<mxfile host="app.diagrams.net" modified="2022-05-23T16:38:47.332Z" agent="5.0 (X11)" etag="OH6f-0cVBpoSQQrTJXUp" version="18.1.1" type="github">
  <diagram id="cgcDBANznVIjWBu-qI0g" name="Page-1">
    <mxGraphModel dx="3213" dy="1260" grid="1" gridSize="10" guides="1" tooltips="1" connect="1" arrows="1" fold="1" page="1" pageScale="1" pageWidth="850" pageHeight="1100" math="0" shadow="0">
      <root>
        <mxCell id="0" />
        <mxCell id="1" parent="0" />
        <mxCell id="DzccVoENs5ZmWSwi9zG2-66" value="" style="rounded=0;whiteSpace=wrap;html=1;fontSize=22;strokeWidth=3;fillColor=#dae8fc;strokeColor=#6c8ebf;" vertex="1" parent="1">
          <mxGeometry x="251.27" y="760" width="148.73" height="60" as="geometry" />
        </mxCell>
        <mxCell id="DzccVoENs5ZmWSwi9zG2-19" style="orthogonalLoop=1;jettySize=auto;html=1;exitX=1;exitY=0.5;exitDx=0;exitDy=0;fontSize=22;fontColor=#06570B;strokeColor=#99FFCC;strokeWidth=8;entryX=0.75;entryY=1;entryDx=0;entryDy=0;" edge="1" parent="1" source="DzccVoENs5ZmWSwi9zG2-66" target="DzccVoENs5ZmWSwi9zG2-73">
          <mxGeometry relative="1" as="geometry">
            <mxPoint x="1527" y="330" as="targetPoint" />
            <mxPoint x="420.32000000000016" y="789.9999999999998" as="sourcePoint" />
            <Array as="points">
              <mxPoint x="933" y="790" />
              <mxPoint x="1527" y="520" />
            </Array>
          </mxGeometry>
        </mxCell>
        <mxCell id="DzccVoENs5ZmWSwi9zG2-79" value="&lt;div&gt;Live seed &lt;b&gt;workflow notebook&lt;/b&gt; &lt;br&gt;&lt;/div&gt;&lt;div&gt;performing request to MMODA&lt;/div&gt;&lt;div&gt;and proposing further elaboration &lt;br&gt;&lt;/div&gt;&lt;div&gt;of the result&lt;br&gt;&lt;/div&gt;" style="edgeLabel;html=1;align=center;verticalAlign=middle;resizable=0;points=[];fontSize=22;fontColor=#06570B;" vertex="1" connectable="0" parent="DzccVoENs5ZmWSwi9zG2-19">
          <mxGeometry x="-0.2145" y="6" relative="1" as="geometry">
            <mxPoint x="93" y="-7" as="offset" />
          </mxGeometry>
        </mxCell>
        <mxCell id="DzccVoENs5ZmWSwi9zG2-36" style="edgeStyle=none;orthogonalLoop=1;jettySize=auto;html=1;fontSize=22;fontColor=#06570B;strokeColor=#FFE6CC;strokeWidth=8;fillColor=#fff2cc;exitX=1;exitY=0.5;exitDx=0;exitDy=0;entryX=1;entryY=0.5;entryDx=0;entryDy=0;" edge="1" parent="1" source="qC28thdIJMezb9HJE6zI-2" target="DzccVoENs5ZmWSwi9zG2-7">
          <mxGeometry relative="1" as="geometry">
            <mxPoint x="1490" y="290" as="sourcePoint" />
            <Array as="points">
              <mxPoint x="1600" y="205" />
              <mxPoint x="1660" y="205" />
              <mxPoint x="1660" y="560" />
              <mxPoint x="1660" y="910" />
            </Array>
          </mxGeometry>
        </mxCell>
        <mxCell id="DzccVoENs5ZmWSwi9zG2-43" value="&lt;div&gt;&lt;b&gt;metadata&lt;/b&gt; collected&lt;/div&gt;&lt;div&gt;during execution &lt;br&gt;&lt;/div&gt;&lt;div&gt;and construction of workflows&lt;br&gt;&lt;/div&gt;" style="edgeLabel;html=1;align=center;verticalAlign=middle;resizable=0;points=[];fontSize=22;fontColor=#06570B;" vertex="1" connectable="0" parent="DzccVoENs5ZmWSwi9zG2-36">
          <mxGeometry x="-0.5677" relative="1" as="geometry">
            <mxPoint x="-57" y="465" as="offset" />
          </mxGeometry>
        </mxCell>
        <mxCell id="DzccVoENs5ZmWSwi9zG2-75" style="edgeStyle=none;orthogonalLoop=1;jettySize=auto;html=1;fontSize=22;fontColor=#06570B;strokeColor=#CCCCFF;strokeWidth=8;entryX=0.75;entryY=0;entryDx=0;entryDy=0;exitX=0.145;exitY=1;exitDx=0;exitDy=-4.35;exitPerimeter=0;fillColor=#e1d5e7;" edge="1" parent="1" source="DzccVoENs5ZmWSwi9zG2-68" target="DzccVoENs5ZmWSwi9zG2-66">
          <mxGeometry relative="1" as="geometry">
            <mxPoint x="430" y="749.9999999999998" as="targetPoint" />
            <mxPoint x="1230" y="340" as="sourcePoint" />
            <Array as="points">
              <mxPoint x="820" y="490" />
              <mxPoint x="520" y="640" />
              <mxPoint x="363" y="640" />
            </Array>
          </mxGeometry>
        </mxCell>
        <mxCell id="DzccVoENs5ZmWSwi9zG2-86" value="&lt;div&gt;&lt;b&gt;Workflow built&lt;/b&gt; on renku&lt;/div&gt;&lt;div&gt;and is becomes&lt;br&gt;&lt;/div&gt;&amp;nbsp;&lt;b&gt;MMODA&lt;/b&gt; service" style="edgeLabel;html=1;align=center;verticalAlign=middle;resizable=0;points=[];fontSize=22;fontColor=#06570B;" vertex="1" connectable="0" parent="DzccVoENs5ZmWSwi9zG2-75">
          <mxGeometry x="-0.2935" y="3" relative="1" as="geometry">
            <mxPoint x="-40" y="29" as="offset" />
          </mxGeometry>
        </mxCell>
        <mxCell id="DzccVoENs5ZmWSwi9zG2-170" style="edgeStyle=none;orthogonalLoop=1;jettySize=auto;html=1;fontSize=22;fontColor=#06570B;strokeColor=#FFE6CC;strokeWidth=8;" edge="1" parent="1">
          <mxGeometry relative="1" as="geometry">
            <mxPoint x="630" y="170" as="targetPoint" />
            <mxPoint x="1240" y="170" as="sourcePoint" />
            <Array as="points">
              <mxPoint x="850" y="170" />
            </Array>
          </mxGeometry>
        </mxCell>
        <mxCell id="DzccVoENs5ZmWSwi9zG2-171" value="&lt;div&gt;complementing &lt;br&gt;&lt;/div&gt;&lt;div&gt;workflow catalog with Renku&lt;/div&gt;&lt;div&gt;workflows notebooks&lt;br&gt;&lt;/div&gt;" style="edgeLabel;html=1;align=center;verticalAlign=middle;resizable=0;points=[];fontSize=22;fontColor=#06570B;" vertex="1" connectable="0" parent="DzccVoENs5ZmWSwi9zG2-170">
          <mxGeometry x="0.2176" relative="1" as="geometry">
            <mxPoint x="22" y="10" as="offset" />
          </mxGeometry>
        </mxCell>
        <mxCell id="qC28thdIJMezb9HJE6zI-3" value="" style="shape=image;verticalLabelPosition=bottom;labelBackgroundColor=#ffffff;verticalAlign=top;aspect=fixed;imageAspect=0;image=data:image/png,iVBORw0KGgoAAAANSUhEUgAAAXUAAAFqCAYAAADlfcqGAAAgAElEQVR4XuydBaBlVfXG93QzQ8wM3Y2khIJIh9JIN5LSId0p3Q3SIA0i0iihiKBggJTyF6QZYJhu/t9vnb3O2+/Mfe/d1/fNnIvjfe++c0/s+Pba3/rWWt2+1SuUr7IFyhYoW6BsgRmiBbqVoD5D9GP5EGULlC1QtoC1QAnq5UAoW6BsgbIFZqAWKEF9BurM8lHKFihboGyBEtTLMVC2QNkCZQvMQC1QgvoM1Jnlo5QtULZA2QIlqJdjoGyBsgXKFpiBWqAE9RmoM2vlUVDJduvWLVRSy/rn6d/5mZcfX/xupe+Ylz+5hp+jVtqgvI+yBTqrBUpQ76yWn0mvmwJ9CuYpKKfg7mCfArs3nS8eM2lTlo9dtkDFFihBvRwYbd4CTVnqfsFp06aZtV3JMq9kuTdkwfv5Smu9zbuyPGEXbIES1Ltgp9X6LaegXgng+ax79+716BYHbIA+fVUC/UogXgJ6rY+K8v46qgVKUO+olp6JrtOYpc7fHNRpErfW+Xnq1KmhR48e04F6kWt3oOd4fvYFogT2mWiQlY/aYAuUoF4OjvotQCYg/JatyAgk2K7oxHRAT0GdiwPGbqE7yAPURevdQbuSY9XOYzeevAq/ll1dtsDM0AIlqM8EvdyQ5VxRVSIg7PatlCsFYHbwbUihkjZj6gydPHlyzps7UDuI8zuv9Jyp9c3Cwn34Mb4ouKXu1yz+Xh/Xs2fJjxXwZ79nS4D/zX7T/4qO3Gp+L3cIM8Ek6kKPWIJ6F+qs5txqqgwpqkn8PJU+zz+LxnolVUpqcXMuwNkBujn32JbHYuH7ffkClIJ9bt1nK4UWGjsqv4WG2qL4/JV+L1U4bdmT5bla2wIlqLe2BWv8+5XAPbVwU0s5gzm3WLOjvhVYOmACaD179kyxsA4UddykSZPDhAkT9G+8/Txx4sTw0UcfhfHjx4WRI78Jo0Z9o58nBKz30aNHZ+cXxz558qQwBX5c//Xp09sWiB49eoZ+/fqGAQMHhr59+oTBg4eEWWaZRe+Dw6xDhoS+/fqFnr166vg+oX+//vq9b8We4PxTpkyxv3Xvli0+3bpjrdvF8+8UlTW+MBTbx39PHbilpV7jk2Amu70S1GfQDk/BHBAFjAEfBzgckvycAWgPA1fAe9q3khlKgOIOyG49MorEX5MnTgpffPZZ+PTzz8OIL74In3zySfhcv48YMSJ8pvdPPv00fKmfv/rq6zBm7JgMRDOEzGgYsNR+rbOSG6TwcarawiKOXkDsi0x33S/gPnSOOcLss88e5tD78DnnDHPPNVcYNnx4GDpsWJh11lnDXPp9dv3Nv+vPMGnCxNBD7eEOVmsrQL9nXTuk1JD7AJw2ot1os3R3UgL7DDqRuuBjlaDeBTutmltOuWB4an7nHcvWwX3SpEmhV69e9rv/LT33FFnVnwug33rrrfDa314LH334Ufjqyy/N+gbMR33zTRg3frydu3fv3nYOFo++ffvaebHyW+FvzW4FazpGjgKinJ/Fh3vnHYBN/3HdIQJ8wHyYgB7Qn3/++cPCiywSllxiibDgQgtpARg+XRNOnTI1TJwksBdYc410oeO6LIzeRvzujt1SeVPNaCyP6cgWKEG9I1u7NddqpirFHZ0OgIAuPwNMvAN+RqUYbmYUxZgxY8L7H3wQXnnppfDWv94Mb775poD8QwPu8fEfC0D//v1tcXBwc6uec/vLr5NLFBPLvFnNECkSX6RSEE0tZX42cNc9sLfgTiYC/HFB436HiLYZKDpn6NChYcUVVwxrrLFGWGqppczS7yc6x3clKWXjz0ab2fXUD+xm3Onrz1Ja6s3q1fLgdmyBEtTbsXFbe+p6qpWct8jOCpFRp9wAa+qrOVITGYB1VQng7i+s7Q8F2v/+z3/CKy+/HF544QWzwAHFb6dkVAzAz3f8XtxSBkAd6Pwzpyl8V8DfHdRbCnpFtU1qIVfiwXk2A19kknFBSH0CDti0BwvAYPH0yy23XFhhhRXCKqutGhaSJb/wwgvbM/PCQp+sZ+0ddzR2flFS06bWRcNafxTy0BTvOz2mpW3R2vFUfn/maIES1Gusn+sBebw3A4HEUs+PichdH+AzsIeHdgBK+fX3//vf8Kc/vRT+9tpr4Z133w3//Oc/w6effiLre4Cs954C8V6hV6QXHAxd3eK8O/eTgrWDeOo8LDZrS4HMFw6nkLgu/zifUyKpVNLvhev3jItRei++KGC5szCNHTvW3jnn5CmTjaoB5FdccaWwmkB+2WWXC4NmGWSngKJJFy64+mJkLMcVndO58iYmOquxIVfezgzWAiWod4EONasvAXUH8SJYOKAZCCcOzs8++TQ8/czT4bFHHwvvvvNOGCFe/Ev9g0aBdkipDYvqjFZnaonnCpJIc7hF7M7DotTPFwKnZFoK6n5vgK5z6Klz1xcSAN4B14AWEI7KHb/X1Pnp4A4NxcspKaeh4OyHy+m6wAILCNxXC+uss05YddXVwoBBA/IR4xr8nlLqpBr3hqz2dKi1tD26wHAtb7GTW6AE9U7ugOLlU0vdQdWBE6CCIyY4qGfvnmY54kgErOCPcVC69PpjOTX/LErlt488Ev7whz+EcePG2TE9BY5YqYBkyoGnlD30S4HtycP5i5RHEZxSBy3P5se3BsSKlm+lLssXuHjvUC9kkelegctPqRE/V7p4YIFDrxj1on9u1S8iZ+tGG28c1ll77bDEUkuG2Wabzb6OdNMXGtq0qNn3c0NTpc9SY0OvvJ0ZpAVKUK+xjvRJ745GByu3SE12KL77W6SHMe9Jz96ZtTnmm1HhpT//OTzz9NPhueeeC/8RV84xgH0aIJQCb67XNoono2wqRdc3RCFUAvG0SVsLYkU6qtLiUHwev/9pyTNVspLT7+Xn9TaIi4HTPHyf48dqcRwkZyuO1h+uvVZYd731wvLLL2+nx7p3OiZVz6Q/myqopGFqbNbNWLdTgnqN9WcRJFMe2yx2nJ6Tp5h6pbs4cF7/efud8NBDD5lF/uqrr5qKZcCAjCYgYGeidNmmP89BLlWGF3/OGkSbAe0I8tDLRgtYFEHcf28rLrmSpV5ph2C7grgoGf0S9ecN7Sb8c9wPfBNFfd0OpU5K2QPKCblmlDuOV4DVJFnwEwTic88zt9Ezm266adhYVrztlvRypVHRavffW7NzqbEhW95OjbVACeo11iEOYHC7/OyWnfPJrqGeOG58+Msrr4Q77rwzPC+rHHol5YktuGjqlDBZkZ0uXbRHrVJaWKRfaqyZGrydFNShX6rJ6eXfseZhQfPvJRGnaTZJANnaVGA/fiIRtBNswVx66aXDNttsEzbccMOw2GKL2T06hUM/uoM364Zq7qyrtHp5n7XUAiWot3NvpPxtpZ+Lly9y1u6Mc4ceVvhTcnjed9/9olieta/3k8MTa5zvmmWuIJpJ4nnhgsGlqdMy7r2bwuSrfWWWepWoWO1JO+C4FoF6/FJ3s9gTUOdntVtPRZpO1u4IVVHvXr0tQhUe/Vt2TvoM65zjvlCELcC9wALzh/XX3yBstvlm4Qdr/CAP9oJSSyWl1TZHW/glqr1WeVzXb4ES1DuoDxuSuaWXzwEp5hzHOnQrG7XKPffcEx5+6NfhX5IhTlK4/qBBgwxEsBSdtzUAoNAEssPuhL3Xj+qcLj1tcgN2fYQ2QrZpwv/u5mnsoAZqo8v4LfNetaWuA5G287z+/DEpQUY7xbZkcbTUCloccVTD2eOQtXgBDoupDABvgrVYYDcQuG+//XbhB2uumfelW/2VwLoS315y8G00OGaS05Sg3s4dnXLkaa6VuiRTET4MOyjWLEeolBe9lNiKF2H5d/3qrnDXXXeFf//73wbYA2WZk7tkaoygBLwtSVUMy0+5bH+8XAZZFSHhnHrXttSr7tp6ctGCpZ6EdVnIVwRui1SFQkkWUXOSxspNrnQhcRmy0XXWXTfssOOOcqyua+DujnA/zseGO79dmeSUTQnsVffmTH9gCertPARSyqWYHpZLW+CMQGW8MhsS+MMkR2P+yccfh0d/+2i49tprwzvSls8x+xyyDnuFibIAcdyl1h7nySzKGGlaUHDY3yM4ZfqWyq+uyqO3ZRem9A3nrXMjx5aLb5WcwPRBRtfIikd6qn6CNjN/hz7v27dfWPV7q4X99t/PnKtQMb64Q+fwM5SZg77n5bH7KDn4tuzmGfpcJai3c/emjk+PwnSe3KIY5ch0jTNgPnb0mPDrX/863HzzzaZkYZJj6XlwDfztVCkvfKKni0ZdKll3wnk5iBSeqnPQzQicetVdG5HcfAjTvfyPtjLmntemfCX0G31GxGr/Af2NshkjcEc5Q4QqDtWddtoprLzyynZF5JAun6S/6xULifdUAnvVPTpTH1iCejt3f6qaYJJ7mDug4KoJc7SJcnn8iSfCtddcE15W0BCTmuAWJrs72HjHouub5GJp59svT99IC0y3BkT9eZpnx/PucJoeJFGTDBWt+zfKcDl02NCw8047h1122cXUMi5f9ejWNM9NnlCs7JGyBZpogRLU22iIVNJS+6mxsFLLC3AHnMkYyOv1f7weLr7kovDE40+YteZWnqeaxdrjM/6hanFbu1Ytt2LAUNoOTTV3c7jjorVcC+3hgEz/siDjLOXF7yZLlc+Ewh9QLCO/HmnjYt755g377bdf2G7b7cKQWYfYZ1AxKf1SbLdUJVX0oZRqmaZG2Yz99xLU27B/GwIkPgfImaS8O1j/73//C7ffdnu48447wsfi0Cn84Lysq1lcq84k9++ScMuYgC7GsxYDq4rA1Nhi0BDdQfc1ZyFow+6e7lQpp84fnWbzhGP0maUviHngzX8Sc7XDuxOleuKJJ4a1lIYAh+zUyeLle9QlDUv7uxo1VXs+a3nu2m2BEtTbqG9SQEqtcsDYZYn87IErv1YE6IUXXaQEW++GXprcrkPndjxlrQcgpXJFc6LBqQvQq2PH2+gBm3GaFLxTh241i1C1AM250ipO1X6vGY/R7EP9Hpwq8fw6TqOYUiaqZbwt/B2nKUoZrPtdd901HHDggWHRxRbNi5u4A9avUclST+maWmiPZjdg+YU2aYES1NukGTMgdkeXW2bmCBUAu6qBz/+r1Ldnn312eESJtoxqIZhF/xHGn9IUlSwxrDxC9039QiKvGrXUU1BPc62n6p/cek3yoPC9NJOiW+FFC55283/ptapZNNqouxs8TcXdRlyA3VLP6ZIof+R3kq1Br7Fbe++998KCyg557HHHhc233MJSPrjk0YHbs1ZyI96WJai3d+92jfOXoN5G/ZSCC9YWYI6KwScjf3/wwQfDJZdcYpN2gPKXm8zQZHDZTRRlctNRDhEcPCdLV7DU09S7PJ/rrnPrNT63P6u/pwAFaKXHp+kQOL5SZsQ26tZmnSYF9HoLjAUoReFMnn/HHtx07UgffQHzXRrnGiv56gYbbRhOOumksPjii9tYSqNSvR3SBc4TitXCAtesxisPbrMWKEG9jZoyBSMmFBGFqFoAMUD80ksvtQAiXlAt/m/smLGmZiH5VFOWtwODVSZykGij+/fTFHXaLTk9i41TEA4yzjfTNmlhiXQxSyNoPTgnv69oxbuFmgJaDqbJzdaS5r6xNgXUfXfiz+8LFWGucO1zzTtP2GfvvcMBBxxgT8hnXk6wITqmpF9aMnJnjO+UoN6Mfqy4ta5gaSJVpAAFL6zzc88919Lgso1255hbXQbkBUu9oVtqLqjnE9u1d9G0t8+zSCW7ttczjeZi7oRNdwoN3pOdyxohp0T41YE7TUfrwG6A7JREpF/8XtNISqcV/Hz+7mmE3efA5ynI83v2jNl9+e++gDRE2eTP622TfTE+euVloio9f0y9UNTBezlCb1sWPNrLi19b28mHMkG5fLi3rbbaKhxxxBEmfyQXTXcqL1EMpZGIsoac0c0Y9uWhXawFSlBvZodVsoBSkHAp2ldffWVUy2233WZWu2dXBJAALugZkkOZ5Un0YQw5b+x2HNR7AGIAZyMHF+/T85PkwBbzlaTg6n/LQTEConH5dchT72cDXv3NnikqdCx9QfzHc7NjQb7JuyW0Ml+C8oob5taRSA76fn1AjWCdCWo//oaFiryTXQ6Lpj+jF/0wmgaqI3LVKZingF68Zgqqlb5jnyURuc3eBaizPJdOpdwy0C8sSvzjuUwOqX/9Bg4I49UG/fr3s89I5raQaqieeuqpYZNNNsmpPQNu5Q9GMZP+XOzH0npv5mTvooeXoN6Mjita6m5VujOQUwEsf3zhD+Hyyy8Lzz//goF2377SlytyFFAbP36cjukReqM5F2A1J7+2g3q1oJIvNjGvDDVIp1pFn8wa5D6mKUkVx/VQSTbwlfvE+uyuzIQGFPqwl9IT8DOpfKfp3XLM6DvkGJ+k1LO8Dxk8JMw199xhzjnntJQGwxRYM/vss0t3PWvop+dGr00CMkCLdAgDBViZFZkZ0/5u+eKj5I8dzzgB+iRZqmi6vxn1TRijiNtvvhkZPv/8C/37PIwY8UX47LPPwogvRphF26dP39BHCwdthEPZ8s7HhTTl7f3n1GGbLQbQQxEcdW+VaB4bMrEzWmOp+2KR0W6oeSZbJs0eFLauc7RY3va+lnEzk8ayMO6xxx5mtQ8YNDBMVnK3niySuv+pcrjzzNw345Ofvb5rWXmpGZO9Cx9agnozOi+1yD1S0POdY1XiGL1HybeuuPzy8MYbb4Q55pgjapWzieoRpVxyughBR7Vm3E9jh7rVC2j11Y6AKEbbRQhQbVOgz11q6c/ickusSuP4AUOVzBs7bmyW293y0vQIQ4YMCfPMM09YZpllVJh52TDvvPPas8422+wC70HWDl4soo0eZ7rTeAg+lvvXX38tcB+hAtqfWtIz2v7/3vu/8JU+w8pnp2SLkwAOQPRUuQ587mhkz8FCwuf1Sv7lpHiWvth+jZRKc7NZ1ufXMxqsSHPZ7yk9FROF+Q4DwJ+o+1xbevaTTzk5LKE87hPGTzBQ76MFlALalnqCRTuqqlIqq3SitteorI3zlqDejH4o0iyAIttiAABq4MILLwy33HhTmIAjS5OLvwP2Dp5FLtcnb26mVnkv1Vjq6bXc2uQdUOOfRzj6cea41f1CoUyUNThqzGgDQYovY3EvuuiiylOyikq3LWcUwKyywJ1SqnTbTr9Yvhvom6jwaC6gFCkZ3y01FG3J3wFxcup8/NFH4S9/+Uv429/+Ft6XlPR/H34YPvnkEwvRhw5i1wDYeTItVEVe+o9FI3Xc1uPbkwduraWe5eydnvdPJFE5zZSCv6eMmH/++cP5558f1lxnbZU5VN58FgPLJJmtOpa90xRW2SJdUjBVTrIufFgJ6pU6rwG5QurYSqmX999/3yIBH3300TCLpIqAJuDlztCM3oAJj6+ER24vWaLvBHiHNumnDIH87EWSXSboVit8LQtQL937ggLt7yz7nbCCIhxXXXVVk9N5uHvaXByfgoRf04EbWoEUwXZMC0Ol3InrAV3u+HOg8uunipp6bR1veIIqRb311lvhnXffDa8rH/0//vEP+zdq1CgDcnYX+Ci8z3zRSItz26mSvrNfM/hs4dM1jBwNKWZSZRH3OHLkSKO1jpemffc991QEalbxytop+k28X7xdmruwdmF8mylvvQT1Brq9yJ+nhxmfLIsW8MYSPPjgg6P2XIoXcda8+DuTiInnGfhcjuc8enNHXAqgxZ8bOxdAAO/N9dlV8ALcvdQaz7HEEkuE9VRE+XvfXz0stOjCAQvQX54hMs39nVM10SmZ6s/TXUJzfAYV19fILRetVH/+VKOdfmbH87/oODUfgvwE/vr808+szwD6p556KvzpxReN0jDaIvabLxTuxLRnSaiY1NGbPnOG/ZmF3NYA6tdxbb4vzixOe0n2eLyMi8FDBudOVI4rltFL2zId5219r80d3+XxbdMCJahXaMd8oOMoTOVtOtYmuHhKAO6eu+4Op512mkUDolbgM4oTT45V5VPrMZ30LZk86eRLt9IOIMXHqAessSgD98fk5x+c+PzzzRfW/OEPLQ3sggsvlCcYs0VJ1h58Os+bctAOVilHm1rRfDfd7rd2y18Ey6J0kd9TYPe2ddDztuK+OBaHL2CMj8MtV+gaePnHVSbwjyre/eKf/mSl6aw/9c8WQgG0qYAiWGOxm/qIRUNvxRiD9gB0b1vva98BehuMUpqBDTfaKJx86im2u+K5vHwex7pD3xfaEtDbBkRr7SwlqFfqERnb38oTZuH7srydl0Sqh6Owhyy+66+9LlxwwQUGkPCzTBBL4BS5S5/8gEtWKzRL5NQSQC9OYiYlDr2U5knB1K/BO8A1Sfc1WvQKxy+08MKqm7mGVeBZb731TdniL57VQI9nFxfbo5ssW5n5ReBMLdH03io9W2stVgeeNJ+Of1ZUpvgCUE/REoHY7yOlpfze0wUKhH7zzTfDk0qD/OSTT5rTFX+JB5I5kFoeH52ARTxte7+31i5mjQGFjyUvwIGSisUFqgtgX2HFFcJ54tmXX3753DnvqhnawRe8tG/aaxGqNcCbGe6nBPUGLHWfqFirbgligfeVZvics38RrrjiCpvo7gjFCrIsivoix6e5WSptd5s7uFJw81BxszwTBxjnZAFxHbxz6OTxXmuttcLGG28c1hCgL6JEUfZ8AHiRIsBvh6MNmaH+bhuVxJFX/LkSGLQ1QKTnq2RdVrxeIgmMqFvHh7vSyCkaI8azdA0oSABHnnvUyFHhxRf/GJ5++mmrQoXCZo45Zg9jpLhhgaSvWehNG69/xUXWF7/m9nVTgJ72gWvzMSYg/rj3caqihbT0IiWMo98Zo+nC7HRMcRFujcHRls9Ynqt1LVCCerH9PMJSn5tqGX02Fjhcqyz0o444Mtx2++1hFjmn0jS6bMdND1zBGq8Eis3ttnp0SpILJbUMuT4TGHBh6z27imysvc46YSdl/Vt6maVNisgLKxOr3KNb7dzRY+u1TA2QIvVUXJQcrFKATZ8npyjiAtcakC9eo2hdpvdSr03NUYj0MIZbuhg++0IujLfzG6ZnfhKsX8v+qK/5LoY+JRHbvffep3/3hE+li4d/HzxwUE7HAK7IK2l7T7HsxkBz+7qp4yv1hy3S8R++AxQ+KJSIZt56663tlOzuiqohwL50oDbV4l3r7yWoe38lEgazUPGJYclOwXLroSCYceHQgw4ODzzwgFlBgKZv292RxqyysO34akvLx2kDDyTJApnG25WsxF0EdEB9PnHlG264Ydhyyy3DKt/7Xg7Y/I0Xk9hTAqdpfbvW0K18tx5py3u1qhQHdo+M9TZySs3D9vn8SxUCf+DBB6zk4Csv/dmiggkM8qIntCs/e/xCqpZpV6UMuzYtLDjEWaX6Ss0DNYgyBmXWbrvtZgtXGojkzvyUrpsRxsDM/gwzL6h7RGCU202Xh0MjY4qoFzjTr77+Khx56GHh4d/8Jgyfc7jyXo+xiexWo+dJd4CcLrCo0iiLwSsN1sUshM+bJRapFn72XQKWIROVXNwEAeH03GSzTcNyK6xgV504YWLmxIt6ZT7DQvfskT0VSeoh8PVus70QqJ1nXLTL7SrVgHq2S8myJZqePjpCWbA9twyfeUyCO0+xhH//9DPh1ltuCX/84x9N8+4LpVWoijVHK+1a8kU/2Qllks/Kd9yUFt52lO6wVd+ag7RPFmRF1C0W+5FHHmnVlTzQjL95jEU6XtMdYWv9Ie3c1eXpG2iBmRfUI0jawI15PRwJ+J1wdfjJzz76JBxx2GHh8ccfVxj8XGG89M55SHaU8wGalneDUG+F3eeTtqBpbmgU1tck148y5DspMPC7O18BdDTycys8fxdRLNvtsENYfInF7TKTBeYZH94jMxYtIKXO6ekLxIxuqTcJ7BEMrXUS6syzRALuVpgEC5hmjNSXB5R9KZ79d089HW4WuL/5r38ZxQGoO42TUjA5lUSfRgjPF5Lks+aup04z+e6E8csYtRztGiPEIHAfWOw/+9nPsmEeDQSvyNXcMVsiau22wMwL6kVLnXDqyLVCu8BLfi7u9KjDjwyPPfaoRVaOHjXaglSIurQUT5mRZ5XimUhm/SZBRo3SL41Y6pwr1Xd7WTRymRCmDkCPkqXYV9bh1srct68ssCWXXspG2RTlAWHCMqlt8kIlURIt3mPKx6YLRltSRZ053FNLva7sSMN35Hx6li0z60N3JNJW3l6pDNCdjvyNUHwW9JFffR0euP9+S+D2L4F7nnRMfTlRfULf+eLAtfwc9AsS2bogtOnD0Zqy1O2ZE9/BFEsOlqmuGKt+PTI7HnrooeHoo4/OgtB0H71k0adBY0UpaGv8IZ05Dmbma8+8oB5li7bjZU6QKVGATKm4nhroX3z8aTj88MPCU1I+UI3GJXX59tQEIpkzzidUs4Cxgcx9vmuwZEySG+J866skVYDEeKkaWGzGKYnW2muvEw455OCwutQs2QMQ9zQ14/mL8Y0VTL8ZebLW3/k0Mb3jymz0BTuuKtDAx8BUaflJioYjndWdndMH738Q7vzVneGeu++2tASDJHclCRqLveXBJ3ulUhiQRoJrAbRmGMQ8LdniC52CrDa7mWryy6TPnPet7UKyxYqxhHoLAD9cicAOFrhPxCej8dJHCedc8phG1LY2WK6KpiwPaYcWmHlBPapcHNSRpjG7eiqT4QjxkEcccqjC/h8Ls0nClgK6AbdZRfkGOpfKpXykW8EN9lkDlrqHdpMpkO0znHdPAbmltRUYLLzIIuGgQw8Jm4o39zStHrVqMruY36MeOjWCcjMab5o+ajUAnS2IEdAjFdPUPHPqwnPFu5zVZY18/8033wqXXXZp+PXDD9v5SXQ2ZtSYQNHwgXJejtNiDZBaYBOWO/EQdsMts9SdU68bn5yqfrIwAJuc/qSFPlHVlA6UUTBJuwgLptO4N0e/7o/n8sjjJsdxU41V/toupY0AACAASURBVL3DW6AEdcA1brOxuKZoQB8pS+a+++7Psiwq4117DOwGcTZajnD6OLMIfMG6QsWw+Rabh0PksJ1blXC4Z1ezeNHqdKdQz+ZsLknb4cOwbS/YLEs9Xro5TZRSWAAzL09360DPAguIPv7YY+EcyQrfeecdk8H2kiWOzt0zRlriM1n80Dh23xX8MNXcW0PPbAuQzsl9YgTgRDVaRr/Dsf90331M/th/QH9bWLgfjnPLfUbe0bXtqKuds800oF7UO9fl8Mich5lGuWc46GcHhPseEKAPmc2cXt0kUUxVJy3puuK1M2sq2143VA2HYzw3y3JKb3vcCSeEtdZdx743duwY48xdaueSyjSRVbOooJY81Ez8He9P559pCldAOW8OZw2w8/vHH38crrr6qnDn7XeECWPHWXI0wNUse3KfR9VNZqcnO8BoteeO/Kq3HvU7J12ETIOvF5JHFqAzzzo77LTLThnNByWUWPcNRcXOaLu7GW0ozxSgnlobdXyjuToNJD0A47ijjwk33vhLG/C9ZDmZnjuqWVoKkimgp0FIPpCwsHKFRqR2AAKy75Hydlfpi/fbf78wu3YNk5QzG96fue5ac3OKxkyITML2DE+f0QZ/S5/HnZwO5O5E5d2d2v5ZGp7/5BNPhstVq/aFF14Icyv3DrQMOWbYEU7QIuDUSabIYmBkgVGtAdEU0C1lhIAcSxy9PekFGOuXKzp6o403MmD3PPJcM41CrdRWpRXf0hHUvt+bKUA9mx+ZRzS3RCKnzpaT4KLzzz0vnHfOOWH4sGE2wXoK1MmZ4sFELQV1v3ZRlgjfyYS1YhRpSTt9hgSNvB3HHntsWG+D9e2+4dOZlMbvi29nwvmW33cS9eiXKuWU7Tu8Zsyzpwt1CmxOvaQg76kcaAkW308+ktV+1VWmkoFaY7HmHQA3JzeSSQsgQrEUSTR35ragOdOgNc9/zy7CpKw63wRJX4cOHxauuPKK8IMf/CBLv6zdQ0q/pM+YGiatmRMteJTyK1W2wEwB6s6Ze0CJO4NoI7acN97wS8u22I/IQBJlkYDLyr4JSEXJVBVM1ECD+2LiVpw702yisNho4hIFSIEKtuEEEe2y887h2OOPD8M02dLcM92Mr9GXYrRrpkPP9uQVKZ4qB0F5WOtbIDUa0v7wn/m7KZpUeYp+e0A+G0L4iTPwguRjx4w1pzg57cn6adLK5NZaCqKpA59zUC6QoDobd7rWN6NHhYWV6O2OO+6wd0DfFyGO9/xGvqP1RYtjWnpPrW/x8gwNtcBMAeqprth1yDQIk+apx5+UzntfG5zIGbGU4DkBdcsCSCQmONpCy9cnVGpNW2CLaZyzsG4oHhaQueaaKxxzzDFhhx12zMU13Nd0wB2DpTwKtrSeOnaCT+efScBtuh0hf9N/KEzMqFA/cwxg+payQZ5yyqmqZfuc1W2lli3jgDqyffv1NeljdxZ/iwZuGwC1+3MFVzQoeuu6pBRYbbXVRD/eaE75NOrYHfFOLRVr8nZs65dXa6oFZgpQT4HVLQ+4w3+qAs5OAlD4RSYZcjML1IBtn2qyGAvcIbNXViKsZa9KYdhY5iwW47HItBsgxP/0008P6ygB10QVUEYNkTs+i5dOpA4prVP8uWV3W36rOS1QCeD9+3l/JL5PNyq8yAoO01/84hfhdiWJY5y4fwR+e6Dkh1r1s4hngs5a8Krk07Gi1hgVMmrGiPoZJMftlGlTLLhup512svJ43J/z64A5vxN4lzqH3VBpwW2VX2nHFpipQJ12dK7wf//7X9h9993Dm2/8K8+HDqCTAwSJmeDdqsqbMiHbZ7aoG1LLzTlXJgeTimLQk2Wpbygn1ZlnnmmJuFDcMNnqVaupIpioRTdXfqlDWsCBtbhjtIU9+nbuu+8+W9RRypD2gbGCb6V/bypVYamT15/AsoYyxFT/KO6EtW8Q7KT1wscd93rQQQfZjtFLH6apesu0AtW3c2cd2eVAPXN3NvCK0rCUQ+RItyg8CRbW0RFHHhHuF6+JdthEMHw3caZCjRDdN5l6j3EyNX7p5M7i9tZpEeci3UrD2qHK/WClwiVfywknnWhWUaohTlOklrxlZ02Ptruuj0nnpxkDnuqXn/HtvPzyy+Goo46yEons3CyhGBQMAWVmV0TDgrgKH2OMbyi6ZPg1lVYgz2QpA6a7FhaEAQMGDjBgdwf8ORINbLfddqaIAdRdd+/jsjV+prZr1fJMlVqgy4F6c7sxBXjL6SLd+fnnnW9b3iEK/3fAxXkEf+myQJnoWek6zSPb+DZhqeeyxLiI1Kls4ESzrTOTF6cYwR7wlsdI3bKLJItuiLtM0RN2lROnub1dm8enY9ANCz5zUHcZKv1P3dRTTjnFUvsidcQ2t4pbVh81InfBaPCnTsdgowZIZulkhgxqG41xEn9l+eCzDJOzzjZruPmmm8NK313JPmd3meaI8fOXBkftjbkuB+pFSz2NpMPSdjBFJjaAdKjk1oigysS47957w8kKkUZlgjWOhexpaFPpViZhz5xKZsE3BepxwmH5jNW2uV9Mxco5PYycicGWmu01E/fHm25iIyJ1hvrvRcVC7Q2d8o6a2wIpv+27Rwd3AJPF3DXkhx9+uJXTw4IH2LG+LWeMl0ZE2orsMbXU42RoylLPFwFXYBVklMwT5s9KK60UfnnTTWHosKFKFCeZr3LH2zN4zQCmRSt8Tc1tv/L46lqgy4G65Y5mICf/bGDzOdZ2TI2KVT5NTiackCgO8PC//KeXwrHiCgnZpq6oe/ONJ4ySwtzyMPUgkZ9NA7oZPvyfrj9Rkw3wRpLm4dhYPkxOLJ75558/XKqcIN9fffUwYZwq0SjREjr5NNCj3uJSXT+WR9V4C1RyWKb+FkCU36E53BCA10bPTgTq6DGjRRXOYjw34O7H9dDAmyZg7Y4zH0MEvz6JPJ1jqdAuRYs+HW8+Dtk1UIx77733DmdpV2t5ZKxwt+I6dI9xxJeSxhocd10O1FPL3IE9B/VoqRttIlmY14+kYMB4AerP9tvftrUUDQB43RHkFMx0dEfkLqux1K0mKR2sRQWOkkWD3QDnJDKUCbLUUkuFKxV4ssSSS4TJpGOVjI3KkpYND8kbTquE1y/BvQZnTCtuqaiUcWvd01Q4DeNWOwbGZZddZv/Y7ZFNkbqpgwXyGCJ8HyV7bpm3xFL3OIcYXW0GSqQhuSbJv7j+DrvsHCYpUMlSOrNDMBFBNmbLV221wAwJ6nlWxVhYmQx0Z556WrjmmmtymRaUi2fJawuqw88xgRqh2iITFcikwKKi+gwa4BtuuMGScU1QoQ1Sr+aFneMWtuQna2tytPfdFFUxgLmPSY/sZCxfd9114eyzzzYQHTbHsPC1gNZ8PwX6xS31aumXSs/n4zhNeTB06NBw6623hiVU55ZdQgbs2bfLMdveo6T55++aoB4taKvirmdWNpSsSHT856HZE5UrZcCggeH53z8b9pB8kQniFWsqOSGrGaCp9VxcDGxS6hpY6Vjmw5Ry4IMPPghrKvz6hptuDAP69TfAzwz6TJ5mypoS1Js/cmeAb/j44d3HLOPCteAWEKfxhGGAQXK2aBBS9s46eEhWHNvGfmap49g3BYwFy2XVsypk8W2y1dJ78p0DtOH6662nMXxTPn4x0LtJC/lt5XqMJdg32dLtd0DXBHW2iMk/p0fcUep1GOH/Pv/s87DHHnuE1//xD6NdoFw8yMPTBXgOlaLDstjsxe1zGslpVovNMhWxED/KtT755JOw9lprhYuVxGmBBRcwjt8mLEm5mMgWAJLl+yitnvYb5LV8ZjcuGFuek8XHIZ+5Wgb/zA2/vCGcdcZZ5iPid3aDjJyMPs9kjQTOWelCQL4FTswU1FlMLFWGxusIle0jlQa5/I1qLMdszQ6rrgnq0VJHhkj0Zf++kltRjg6kp86kZcsjIq53OOLwI8Jtqh85+2yzGdgyGdKouHRSNddSd81xnh2R+5EFxW4AlctKK64Ubrv9NkuYROg3E9ABnMnjEsvWWFY1O7LKG2uyBdKdni/qfOY7SktToZcDO8bHVVdeJWA/0xzs/L23Ze3EiZkJA3r2Vj1V8++0zlLnuu6w5TqWfEy+oetEIX5/jdXr5YNxutOD5kpfUJNd364HdE1QxwsfExMx7InkJ6MiyZKsKrxeTIAH739AJekOt8FJsq7U8mmJQ7JIt5ijSpPKVTSmLxdXThGEJZdcKtx8801hDvGRfXVts76iMiffEUTZZJbbI5Njlq+ZtwUqUXvutCQwjRiLPpIVXnbpZcaxz6bdICorxs0EUY2mjpk0IVNiYUC0cDy5oQPF4zlgoBQ/VHm+tZTG4nYl/hqgohrfKF8MpR590fEUB03teGfeHu6YJ++6oE7ZrcmkCaXCjKLuRPIZBxj1vp9++mnYYbvtA+kA2EZCzaTJvKZLklUFqPpgd/7Tg4U4l1sp30jxssACC4RbcCxJ5TJVOwZeyBad5KwLTMp0vqWl3jGDvRavklJ6Pi5SVYxLDD1QiUjk/vLNEDx33nnnhXmUBI5kXBgtVrnIokSVVjfKe1vyzG6s+Dgn0hRQ5x5GaQd6lApXH31MVrzaI025jvurWrOgtOR+y+/Ub4EuCeoeWYdNbty6shwyISyISNtOBtqBBxwYHnrwQQNbKBeoD8+90tJBl1rqnsaXczHgGficf3ZZ5qhcVlr5u0rjm1Vst9wZBGwYz5lIwFyf2RYJPcqRPcO0QDrOPJ2AxzwYdYhzVP8df+xx4dabbw7D55zTxh/a9G+1bfV8RS2x1NMdLBY40l/O49TlJM0xnP333HdvWEE5/9lBmNEUdwVlkZbOH4ZdDtTNKYST0QEdCkRACbcOqA/sP0AFox8NBxxwgCkD4BstuIhq7lFZ0OT2MAZxFPNp5GHacWvrljtUD2oXtsMXXHyxRYqOV9kyAo7g/bGaTAYWX3U5PKLxXoJ658+EGrqDoirGi6N4XhZiHMgqOka7wkMPPjg8/JuHTRHTq0evMGlqpl93w6Wecz9JuZs+bjr8zNcTaUUXHFgwnQwWXgQeEX+x1tprWZpexrhfLy2nWO/8cP5V7IRrqAu69K10OVD3yE2CfKbKQrdE/z3kHKISEMESSqO7g5Jkvfvuu2GqNLWziPNDBmYqgRZ47dPou9Spmk6aKXJQ9Zbj6ngVtthjr71MnZAFFGULTlatKKOH7HuuNfOT10kYuvRgKm++bVogBXXA1J37GAOTBOiWHkD/iJL+9MOPw157/TS8/vrrKnxB1scsqtp5dTdkrNIR/qYq0114QB734pp5jBcsdcbyuPHjwkUXXahUvTubMZUqyopy4SLF1DatVJ6loRbocqDOg3gkG+/kdkGn20OcOoP64osuCucpHzSOHErA8bLivqhi9LNNGJyWjY2J1FJPovRQ1rCYuCoBK2UctIu4xb332TucdPLJsVpNdnbuz60Xrphz58Vrl5Z6OUMLLZACYc6xRznsZAE9wxg/DePrbRXb2FngioSWhHHsTHkBwtAmpBmAd/e8MUVgzyOy4/xwKpN3p31sPBOpDVcvKnGaqMQ555ozPPjAQ2HYXMNt/plGXp/75HJwLymZjh3eXQ7UzQKJ20vMEasiBGBrAH4k7/yWW2wRRshaNx1v/Ny2lPoag9eKYGCxN2axCLs9f0a9fBqR9sFSsa1pHOQbbLhBuObaa+2cOIucXkk5TQf0BoG9Y/u9vFoNt0Aly9Y/c6DMo6YjVfKYKMd9993PDBiXRDq4+5j0QtkO6r5R9OA99/YUVTipqCCrm9pNxV0mWAvus+8+4WTp19lBwK1jyLjD16XDKai3hOev4a6qyVvrcqCeYXrcXGJRm/WclXw7+udHmZNyNmnS3XOfB3JEUPcEXS2y1OPi4JOBlABLLr1kuOnGm6zABS8fwNMb46WlXpMzoEZvqh4XrnvMFVPJ/XKMGy5Y7BdccIGKp59r1rpb9y4O8AA7vp6DND/HeZHnVIrcd5GX98vafYhu7KZdgqc0uPOuu8LKq66iTI4qB6nPsZfSPDYWPY0x1QpFTo12U03eVpcE9Tz5FRIu8Xm9FGT0nFIB7Kbc5B4FV9zyuaVeFdOR0C/18mkQ4GGx/ZnjB0369b+8XmkA1jT1AddOgb20SmpyzHfpm0pltc57Q7G4nPDwww4P9959t/mS+LtnBzUevhAFmrp0Ut9RpQaqt0PQPOhDDVXtVqkNsOVWW4VLr7g8ixMxejMDdePxo+O1pGA6btjVNKg3Za1QHNoCfzSAdhegP/P006G/rJQUTFOrxCI6sfTje4PN7EFBFUKv2RVA35AP48KLLwq77rqr3QOTiu2mc+huKXVcV5ZXmhlaIJU7+m7UfTyMwS8+/yLsussu4dVXXzWLHeUKBgeWugcJeTs1B9TT68KfI1KwbI36h3aduIyNfvwjS13gVnlRDVMaOR0zQmsa1BtqArca0IGTjvQBlaU78sgj82IUnlM9lS42y1JH75vJZfIkSeTUMB4+DuIdt98+XHL5ZTnN4wmW4PLTrWrHdGN5lZmlBYpyRwd0wBQfzwBJep979lnx6/vaLhYrnsIbflxT9EtD7ejXNTUNEmFVSBo7TsWxSV43cmRYQ0nryP3eTwIF5l2RT0+vO7P0VWc9Z02DejqAfVC4NWxBGRpck6Rw2V61FF977TUbYF5lKM3vwnebBeqppa7vUqcUnTn8/UTx6IsvuWT41Z13hiGzDqnLWhcpGb/PUpfbWUN6xr5u6jB1TptdIzSL0YLkGBLwXqJ4CTj2IaqDC0Xi1GCLQR1Vi6lb5AiV0dNTEl4KtPOChvxKcRpXXnll+Mm22+QLiMscUylwaa23//isWVBPuTjXwTpf7lQH77ffepvpw9068IowRWu5OaBuWhnqmXbvYfmje/RS4V1Z4JSpg7+/+pprwwYbbWg0DMtF95iCNFUJlIO3/QfvzHqFSuoU/4zxCoiSAnrvn/40PCurHRqGF4ZOS0HdpgRjPaEkv40Vl6bJ8UTupe985zvhV3KazjJ4FtO2O/0C9WOGVRInMrP2XUc8d82Cug8Cf3cL3cGbATN29JiwzTbbhLfffjuXcXm9Uadg3DnUHFDnmpkTitB+koUp4CMGD+2w447hTCVTyhcNsomZ9D1znpaWekcM25n3Gg36mXL5SpYOA1ryjX++HnbUeEWjngJqY+qXhlrW4zumz9tOCb3MzwR3f+5554bdVLvAi1Uzb6tNbT3z9mrbPnnNgnq6zUyDIfiZbSfbzTuVLY7Uup6fwqI4BcYO7EWrpFpHaeoU6ilrneCmkeINV1lllXDN9deHueeZ24Is2ClM014US70lBQnativLs83MLeBj1nKsa8yS6rmndpg33vDLcNRRRxkN49r2loC6VbvDpYQBE3/OfldAkhynnBOaZ3Wl5b1Zqa7T69k8KeWMHTY8axPUjf3Ighjcai62CJbA1ltuFd5UNF2aHc459eJAashSLwZ6pLSPOZcE3n37Z/VML7v88rDJ5pupviglvXpmt2QVYFqWu7rDerm8UJu2QFOqrMYuVmlH1xa7O5f5Qr90E6jL6jA/0ng5Svfbb7/wzDPPhEGDBuXAnoXjsctUKotqcrMkoJ5/NQvRzuYogXe67pcqtXf1tVeH7SUkYMfA85bZG9t0+DV5stoEdQZJXNkZrIQkewSob+fukJV+1JE/N+eo5zN3QK7HZ8eFwUG9oTQr9aiTmCODz8grM/KbkWEnycQuvORiKxhN5SIbqDGCyUC9rL/b5GCbkQ5II4MrcdweUu/P7PSHB+LweTrmWts2aV4XgN2dqD1kfLz80p/DnnvuaYm48Dnl0agZrGcKr6bskgajrDMDDAqmt9Jgj/hqRFhbOddvUvbIWTQ3M78TPlalFtB/yoBU7mpb29lNfL82QT2qT/zeMz0uk6CuEsyuO+8SXvrTn+qpTxigOGz6MHBjioB8UmVG9XQ69XRiOc2TcoDsCOaff/7w4K9/Heaaey6lGs00v5YfPa4UpaXezqO0xk5fpAZNly26g9z4Tg+6c7B4604PYhS4v8ejQt1ib8nj+jieSvppWczcC+owXmR0PO3UU8MVV1ypXOz9NGdUg4CcSdnKIgsbf1ATRTUastQp7h4D8jhJLy0iozRnrpOYYLMtNg9TiT6lZGN8qFJA0JLebd53ahPUs6KLmbWu/5BOZVyhknZJSvXEbx8L+yqBFoOVgeQ+Inv0dCsZk3c11iRppBxWjGek889Ha/tqzh8FNzFh/PxpYEU5UJs36Lr60Za0SuMT+SBDbJoCcbp3h47LStEBmp998ln43e+eCf/3f/9nVvO888wTllX+8VVXW9WoPF5eKch/bg/e2aW9Xyof0naS/pLNkTQa3IMZMeRsERDbbjjN9d9IJ6XzzRYTUgvEfEjModESMKyzztrhtjtu1zWwzDMyXqFK2VkbzdHR1UdH599/bYJ6tmPLt2uWtAsvuiYLg/GIgw4J99x9Txg825BYJCOrS2ovB/IGAL2h3NGe7AgLi+sB7lM10NdY8weKlrvFEoTxYuB7Md5cYWMDt/M7s7yDjmmBTAkSwsRxE7L4Bf1O5sR+CvLBQr79ttvDtddcE/715r8s+ZUl2BKNh4N9m+22NY572LBhOW2YgntLDYTUuV9sBad+bpED81RZ7Ha/WmiIvibDqPYMlkG00SR3qaUeL+CuJN9pMHegeHgexAu33HJrWHX179vcRUlmi0FJVbb7IK1ZUP/WXOxm/NggNEtdFsXrr/0tbK1cEz3w8BvfngVbtPTlW2kGIkAO3TKXSoR9JYdPT1kdFAJYe911TFHj9Rq90HRrr93Sey6/17ktYGNG/1n/a0FH8op1PvqbUVZm7uabbrbfUWghJ0QnDlgToMNiAL9NjVGriKXPkQJa8BCg11j20BY+tkeTsrhsu+224ZVXXrHrjVPVooFaiKg74NHSzb1E6jRO5weRrD/5yU/CpVdeYVSPCwss6XVpADW3mZt1fM2CuksFzeEUc6rAzR139DEm0xqihEVTyD8RXy2ZDCk36smH3BHLZNxq65+Eq6+7Js+Z4dZQ6uxqr4nYrF4sD25VCxTVLOnJimoV/gb9gkUOj07B5/4D+4f//Pvf4cQTTgxPK/8QVirjlt0djnykfvw+UOqT0WNGWwm4M888M+y///55icU8734bg3oudbS4ix7hhRdeMO069zVKVvXggYPCRN0PO91MzBK3yXGBSZ3AlRo59Ul5cBMWO8YRu5G77703LLbk4sat244kybfuc6epa7Sqc2fCL9csqGOps1VjMnh+6I//96GkUtsFikpPiw4Y4+viJGtu/6UOKn5mMPIPK32eeedVjvTrwgorrZCX94L6sRJ1kd8vBjg19/rl8bXXAkVFShFw3EonoZUBsTDwt799JJx6yqnhvffeC0NVo5ZxgfXNPxYFxhSf4cQnNwpl6JZbbjl977f52HKjpCXGSWOt6LtJL0fH78cee6yokVvCnKptOmbU6NAHHTkg3sKdgl/DqUl4dePsdb5DDz88HHbkEXnR99JSb/8xX9Og7vQLFYx69+0dbhDInnnGGVkpL8mnyMnSVpa6W99WwFcTkEjV8y68wCwY5yQ9aRegXibuav/B2RFXKHLRaWwEP6epH9yytJq3AmrGw1VSlFx22WVGs8wxxxxmhQOgLP4Ocm7tw79PnDzRqEOqEUHtrbzyylkN3VidqzVUYmOWNM/pNM9LL71kvD50UF/NIyp6FZ+zuFtpqC+Klj3HAfJo4ila8/011gi33n675UnyBdEYmETQUFrqbTvSaxrUuyl5ORaROUrFn/90t92lKPhdGDhgoDlECa9ojYXjA5J3JqinKWVr+pAkjIstuURmlSPJil6hcgC27QCshbPlMRFxV4gF7s5wB3ZPTuXAOGLEiHCcLN5nnno6TJBVCkgD6B5sk0Y184xG65nUdqqBG9bs1VdfHdZdd916KZvb2lJPxzj3wX1x7cMOO8yyKs4+62yWddGjsc1/ZRLiGDHdhM+qSF35755P/Qu10wMPPhjWkhrGC1mn6andSdzWz10L46qz7qFmQT0LdpNEDC5ODtLnfvf7sO/ee+cl5IwBhNdspaPUv89AY8IymfdS8ehTzjhdFI8oGUkonQpyC4POSgdzOSA7a/i2/rqppekacqdLAED+zthwRzlg9cc//jGcphJuryu3CoXF+btTDn58pTtDTYVQCmoCZ/w1UsisttpquYzWdwKtf6r6Z0hlu75I/eUvfwm7UAsAmkT35eovj/6sZIE3Zq1X2tFYfiY5TLeWw/TiSy/J5J6xkIxHm7bXDqWt27Arna9mQR0gZWB9OxWlQTBVwcUXXmjbOvOyW/ZEqqdnjp2WAGtx683AJmfFzYqGW3GVlcMESdb6qsJLWl+0uC0tLfeuNNynv9fUSuevgDagCyC585zf2cXxuktZCM8666yABdpfFAvVflzBkiads4CkaHDgHGS3N37C+DBIFj15hJZddtnwm9/8Jo/wtPqerTRQKvVEcdHyRYf7g4J5SFb0bLMMtpTSXp3I6cZq7qdoqRcdy1RHwkH81DNPh+HDh+fl9/xaZUWktp8/NQHq0w0MwThAyqCCfyRw4idbbx3+q0AO9K6mdgTsTfvaNKgXrep0IfCBy2DEY48ywNIBaNFgu2zHdsH8LpUmm+8wfBEsLmrFz3Fqefva3+LvubOrXtRX2w/OtjxjY+CTXsf9Jm5BIs0zpYg484suushq4OJPMSqB6E3C31FoRbWLFZGIKW7T9uT6ZE4EPNkRon5hR4jFWinXeVs9u49vt8S9z1mw2HHspvQX2v4qQrqnLWIsYHavekZvC+v3mMzLxlDyc1GeOB0do+PH65y/OOcXYY899rBzuighNYjMKOtC46mt+qc9zlNToJ4/IFF6ZOKnYpYoluefez5stummYagi4UjIP07gi6MUTr0554X/OAAAIABJREFU1oSDWiWnkG8NmbQ/RJeuqko9sMI0Sad1lx55mpC95XL49ui7Rs/ZED3UEJD7yer93XPbpDPXFW9pFFeHP13zL5gCSHF352MI6s2CcqTdBswBaByeRIWecMIJ4YknnjCA5/tY7gQcQQ9apDO5gPRKo0VzdZVJs7PG/Fp5hHDCX3vttTn4+4JQzVhu7pP7s/o79+oATyqNQw46KDz8wIPakfbLaSYH9bz8XSHwqCFQT8eO/WwGUfcwTovYD9f6YbhdDlNfLFPaM3/uEtSb270Vj+90UK9oQRW0rD9X4q67fvWr0A/LWY+BdYSVZMFphWK6DbVKvUltEU11Sfv5G5N4gw02CDf88pe2WPTpI9oFVQA51aOV2lWDJlIQq0QX+WforqEJ/GW/o/7x3ZBZbFngTVd9VQL3/HktJiJ75gkTJ1jQ0FNPPmn8+VtvvRUGDx4iy1oRmFKq2G6RICSzMLMQe6tVy990Qss9ZAMnK/jMAsDY3X3PPaz0IouFUzy2I0UeaYe3fds6aI5RkRcWLO7bZcKPPPJIOPyQQ3Mas2d0EqcqnGrvKaWy0jE3STuX4dKs3/GrO8Piiy1uogdeZaqN9plFnQ7qPJZPDndMpc6Tb74eGVZffXVLIYqU0awfvkQiISqvADp81khUqZ8fq4qERqM1uEnIxec94iQkEIPMj+tvuIHUAFn5OpQKBnIag+wYutIrXSxT0JjOmooPBSXAhKcPrlcyprXW/GFYevllrS3ISpkW1bZJ3sUs9aLCxaMfaQ8vygygeUZQjr9JksNLRMV9Lelff9X+zKzPLCshY5HfbQxF67endnacAz06yedIrEWbfvrJx0oRME847sQTw7aKszClSUwAlgJ5pQW3tWMu7e90J+C7CPqdyM9X//pXU/BQ99dUYFLyOOgiSqiGfqm0C+T+2VVDXx134gnhoEMOVmqCrCqStYO1k6f4MOupfLWyBTod1Isgw+9pUM8Tjz0efvazn2WBEf6wTC6seVUdyqxGcnE0zI3k14hJi3De9FcQiKUiJZRb76utumq45bZbw6yzzmpXmS7AqIvldynugBw8nP91BxUg7moPHHhnKA7gl9ddH1Zf7XvKi31NWGDhhW1XRApVjvOIQFvkYuK1Vo7BDvl62h5uPLA4eXwCID1JgNZbjvGv5MM545TTwl1332Wg7AtAPQAW6MOFjxs7znYy/fr2M0uctqJt2E0yzmjTNZT/5DRx6CvJ+e4LAX/3Ad0eYN5Uo6bW+uWqE3CBRAhkdTRaKYIufc7+wYIAYR8zA7vez41RkjbvyKeuZ2WX8ONNNwmXX31V5hyOhlO29Y47lC40nppq3878e6eDelF9YINGE8YGg1byQw8+JNyrUGNTH8TPddMZoLDzNXDJwrYbe3HO3rKk2CJjdTCw0BXjmR+hCNJTTj45HHDQgbnTi3N1+e1hnFTepq5M8IWTz630mZxi//vf/yzSkDgAQsdHaYe0wkorhhulBJpzrjnFFUeHnq2fNWypOy9bF+1uw8IVTFl+/sw6tIUbR2csKNFbi9Ybf/9HOPaYY8JfZLnCn9NmqePTgd3BmTFIsi7Gyrjx4zJnstqdxYD0AJtsskk48xdnh+GK3rTiKr1jcZUCf5wG47Q1IFRa4K1NIn308ccfhx//+McWSQ0txOJGG7Fb7W6BSdoNV+EoLV7Hxhk7GnbV+nng4EHh7rvuCUstu4ztCBh3tmOIKYtLR2nb9Hyng3qRJmBwA7yALuHUm226mfGZJB7KAo4yA6c71gOgLnKTnxvbtrmlzjbZBpgOdwsVz/xQRQJSMHfxGGzE8R4UUS1n3zbd0XZnyWWYCbBne5qMQnAZHpP473//ezjuuOPC3//xd6MM+vboJY3+lDBKeUrWWmutcL2cx0Nmn80suN69+2QACbB3IcdWZjVmeVvSOrYObvTzww8+ZBHLgBuL3WDlF2Lhd/45lyhGMHQHJ8dAAVKc3FMEMH4OOeSQsP+BByq/P8bEFFOYGHVVA2oqp198HhxxxBFGP/LMpOBwJ2lWg6A6+qU4erH0LfGZIr8B8C++HBGuvvKqsN3OO2WS5Ohczg2yLjSe2m6mtv2ZOh3UU4vBwddlXs8oOdIBPzvAJlYvJkR8/jrSJQPorHJLw5Z6LutiyweXJ327V4b5+JNPws6SdV151VXR0ZVp392Sq/X6ig3xmPlQiY48ryvpluTkKdnC+btnfhdOPuXk8O933421XqXTVnsPHjSLgTdW3Oabby6Z5yVh2PBh9bjgFNTb09JszrBvyCo1CxuAoUxifEfCCo+MRX3FZZcLcK408OEcvpPzXD8poPv4sOhMHT9RvLQn8UK/vtSSS4YTTjopbLLZpmb1mgqElxZC0kfXio8mVf384x//CBtvvLE5hy2NsOgk6CNK3eVjJz5GY5LGtK9Y6NhJd5P8mPb8cuTXYTtlibxEaRXYBbiV7rufrmQkNGdMdvSxNQHqbjXwzoQxqkSD4HSpDi65+BJL6m9cJfPCssnpPyuvZWp2/da41jAHPmh4gkuUKtV5ZCx/Apu2kQML64GL8DccSNyDg1Vb5+Ro9462LY3PQs++l9nqtGVPgcuD990fjjnm2DBm7BjbdgNSVI1iMpKOdYoAcPbZZw/vv/++8oBvFy6UTnuWwbNY0RIoh3QSdgYvXLENnZfl3S0/LHQHVn2cJZvqFvr06xPe+8974ewzzwqPPvZo6CeA9hTMgDtjwAHeKEGzHTJ6hddUdnTkgNHOkvGBQ3Xd9dZTWt2zwhICdnY2HGkpdhm7xFVUYYS0+9igaeIzuI8Fw2mHHXYIRJoO6JcpZOyeAfUWWurZzhpePvMfsEiQ8OxJKYoGzzGbRWzXc5aWlnqbdH2ng3ruOCKLnSwEXkwsJIb7KC3AM08/IyAZbPkpPIm/DTNYhEi/VFNOjsGLtU9uZwta0oDDWp9/wQXD49IfY6GwRLgV5lZMrVigDfV2ClY+QU0zbSxLJrmDcsgceNJTE4Wr36+Qc4xgmmyLnAGPLaq0f2xfuUelXMiKhuB32EUlBM8SPwywo/CgPV1ZUyvtlFvqkcf1+/Iwf2sVFnepn/74wh/C8ccfH954443MQR6DiPyZ3GHvNXA9IMcSumkRpO04lt85P3nSjzn2GPPTeC1bz+TIRQ3Qk0RWjVGGbTK7GzlJ6svyMXT99ddrkT8mDJtjaJ4SuLtRTdVx6pUuh4HAeDQOXU5o2opYkLXWWzdLYRyVVGXwUdv1eKeDOo/ig4p3z2f+xr/+FXZWdOdXX6pYReTeGGBULSdXhVMu32IENOE1z8/vBay1JeScbLuhXi64+CJdF+dZzMrXhbzwvsvhGZ0f9Z9d3WEyvFg5CrUGOyD4U6O0AJm8D3h+2jNr32+lLmJS2i5F/5ClERV4lgo8pIDEOTykvrN3NEgJASHUFbnUlTFDzU7tPixvuJ7xtltvs3B/27UAOjIoekWtuB0ACEdrlncA3WhA6tMiWySsHqknVI0+wyex514/tcWUfjD+3NvVfoh+n5hSujMBvaE59yfV/KV/x40Zm9f5bQ2n7u3HWLKgJ0mEGSssfieI8vOYANqiBPUZCNTdssp57zjJ7r777rDfvvsqaGF4bsFbEq+4fW2OpZ6rHeBAY8pe50xvE7itqWg3y89hFknm3EnTD9QMtVCh3ytxyAAOQOVAO5noWFnoX3wxIvxc+a2ff/55o1ssEyERs9GHYNp/227D3GiBxafnemwD/2/DWE14wOvcc8/Nw8jd78DErDZQpe2GcHImY0XqEhuw2FtR5GiB95DDcuRXX4dzRbfdqX6HOmGhwlEOqLuFnvLnnJFn8jblWV3iOVYgv+TSS4Xzzz/fEnNB60CxkA/GHbN1qRX8PjMKrLMF2Sn94rtTFq29tTt+6oknjfLkmRkfLeXUM85c40sLLD6H0aL5aMtlvvOd8NgTjxv94qk+zBjo/GZpl2HZ0SftdEs9tTR9UjHITpKj6RqlJp1j9jlsq98NixFgiY6bOlB3R2nDTecTDAeVDVJNPHSzS4r3vO+BB8KsUnbk+muz0jp9zlU9DtJFMeV93Zpk58OEel+h7ocfdrgco89YcQSsSXOEGRVVZyk554smeZpEyllVwUx1ZJapvjdm3FiLisQ69XSqWLAGgG6CdhJ25VWJGC8opGS5Q9310tb/7X+9GY49+ujwoixS6BYoPtQejAWj52K90exBMmvdFynPoW++FsuLPlmh72uFC7XLgyd2K57jWDB9YbCxlL46qV2KAyqlX/ibJy27+OKLTQE0RNGzdkzs02okjcVrsFOy+JHonOYcGBL4aR56+OGwgKhPd5aWlnrVU77JAzsd1FNL00H9s88+C3vtvVf4+2uS2OkRTPoUuV8mm1EvEXjrHE+NgzrA1ANLXNYoVitBIQcecEA48ZRT6hXCyPbMtQfqlSzy1GnH0zuoW2ImWedmNQqA/vzii6b3/+ijjy0L5UjlH3EagS1wtgGKlIM78jhftNTtvGyfo4OU9qP6FHU2Dz74YAMEdj75jsbOEVMK8B65/fZo10rtQlvgO0HFMwCtudrhGVmf8MUfffSRATmBZ2T8xFIfKH8Ku5XUP5G2rTvOOS9ql7FaBI486qhwoOIazFFKYi+1jxfO4Dy+QHTqzqWR6Z8+K4exKLH4v/TnP4e9RI+MVkUknoEdW+oote9FSWberw1dJ/oRcJSSoZK+8OphJ4sC3GHHHSx3Dv4NW0fjDrlW/DNNomeNHlBToO5Y+vbbb4dNFbQxnvqP0ASyfhhcgLIBDTgUHaV5pFsDAhjD/8gLk3mxLxI0qV+YxFdLxrjJFptnSZl0btcQd5VIyUrUFZ+5lY7F+MD994czTj0tfCPawZygWiDrkk9N0LH10xdHGjnTdBt1Eetx0o6oPfR9LHUAEZ/EyQraOlBabI/AdYsrzUHfHmM/52tTx6Mv9FBHAtpJEybZuLlVAVSnnnqqJa2iTQAWpK3kZ+E8lsBLgUNmMCTnSxcMc65qcWABOFd0y0Y//pFSM483mSILmifJcueqt3FXAHXPxsi9Q7lssdnmAYkj7WJgG2M7mHPWPj4uopOzsf5lp9Sze09LO4CjlDZlQd1fBtVpqlnAnMR57w79poII22MszWjn7HRQr+eFx1mpVfv+e+8Lh8gCxDmV5cnIHCzZCIuWeuyJai11/y7vY6RPXnChheQsvD0svMgimeIlhm3X6jawuKNxJ2jqzHMqxCvT/1LJyc6SXA+LFSsMRzAWLC8WNeSLE2TR07SkGca6t6rvmrwG0uoLjrF0CjH6L89/bQ7Hbib7Q8K3h6w7NNl8BqBZGcA8GtETX5k51qav+sCbOdr9Hj758KNwmsD8vnvuDYOHKKjGKBZ2FCoYrfseQAUtvSYqeZdxv9nwspuE6gP0s3iFKWGyFomVv7tyOOecc8LS31nGCk6TSteSeOl5PfuhyRfThaZNn7btTpb7mdRezql7muEjRNPdc889WclGmxvmyVS666wIfLeeWSUwa/tGIrmd9iRNdk9yLUXDgFTaW2y1lWJDrgz9tHDkBavli7B8S0kep1pdFNuuJ9r+TJ0O6nWTkgEjK1Odf+Jxx4ebb7rJLAUmn6k0zKEHr56Z5NUyJJnvLHOe2c8ahFAvmyqVLzUinUsFbPzcbd/MrT9jCt78nDruHFh4FpeDXqlAmvPOO88mZj806KhB9J85gyNXXNyCRxrZbtYiekl8FhUhno7WI209wZclw5J1d+bpp4ed99jdkjVhBUeiXtfToiyPpU3UNlQVpfdOEJEF/xDuL6uSe3/uuefCuWedHf6qcP9Bswwy5yXP47nLHXjdSWzgoX9jZbHPLh8LqisKWvAd7n1bBc38/Oc/D3PPPXfe9qljOKeeInDVOrCnwoS8LaJf4VEVxCboL3NeZpJXMyIAdrUv8SEZXRd9MQ0M78xPldF67HJMPksby5ex6GKLhZs0xxdZbNEsbkCfeyI/l9d2tpKq9bO2c87Q6aDugFvnUPo2bLv1TwLFcS0PBVIzuD11unvTPabG8No54AYsQLO+IieMw5VEXl9Kc42T78gjjrQUq9MVka52xejAPvNJSHu489OdzJ7Dm/ZiwYI7pqoOQGzadayrCiay0zS8e9CNf+bgR9tjwbk16kWSATGzijXxoSEGiy+99PLLwsZK2gSd5QuMNZHhZQsd0N4XBYeja1wcTD2HDZejctWFokhGfP6F5W9xtYqrgRzEfNfBdwAc5IneTCwS+Hbmm2++cOihh1pgDucC5Hn3cmxpOomKlFAHjpHmXCo1Euz5Y3AVfphvvv5GSciUGZVMjey4KAiiBRP6k6I1/GzUehWZS81oEsVnyiAZbG4kkJ6D/OrULjUJaIyT8ARr/iylpd6cXs2O7XRQd10xwEPekZEC3A3WX1/yuy/q5ZhOJ0xzHtMwQSPQwN222FizvQKBFmuvvXY+OWu9VmJqmeZ5OSIH6tGxRH5SUPif//yn0QJuTTMZLTRe/3mlHiaPh8kzoQArV7B4W7BLgjtncjMpPTWvW1AO7H2Ve36arodVdt3114X1NtrQdOI2oXuqmIlb6m24WHJtB3QWHYLHoInQnt8msEBGR1EV0iz7zoN305cDVNAKvJtlkC0RUFATlC/dzz3//PPb+RgnfOZBSA5AToHZRHJ6sDmDs5OPTa31PMGZ0Wbfhh21iKFbJ+cSNBoac2gUo2IE5pmypWkJq3Pq7OYAda6Jb+NDOazJDrnHT/fMKay0WHdprbd8cNQAqGcmmIG6Ov2vf34l7KqAIMumGJ1+gJNPwuY+qht4BjDkn/j6q7Dc8suFe8Wzeprd1Krs7MlZpEb8fuqBOvrhGM3pwAvNwO6Dd4uOjQ5Ai3Yk6CY6tTz3i/8dfpMXbeFh8d7erg5hB+CcMedxDtS5c1s0k7QC519wQVhfwG68sxKAZfv3aEVEvtmBMH1et6Dr/Q1FRAzYyZOUxW1dqvb597//HUhKBe0yj3KXT9TuYZIWIl5mrasdWJh84SpeF/6cf33797Nw/x/96EeWPoJz0S6+m7GxquPc6q80Hiv1WWPjtjOoGl+46FeLV9DCbnNMlvrUSVMs6pPxNERKIYAcCx0DzBLimfolWwxRRTX4YlxEYYMtGvo+wA2okyOHGqksmtNF2iaLZGfPx+biTS0c3+mg7lbSFG3ZcabcfP0N4VTJnVwSlltUUZbR3E52Sz3j0xUVqcyDpBlli546uZzKaO7526MTG+a8vUiIMlkK2LE6B4ovfuLxJ8KpkmZSdg3JohdOJmmX0RICVldlOA/sk5rndlqBiU36XfKJk1+bivdY85YTRty87xC8rdyaog97adK7VHQOBfNcq53Q6j9Yw/Ki5NkJUSy5vNEwoU4HTjsWeWlv2xz0EnmkOXKpVyvA+e1vHrGan//973/N8eZqJyJEOY779Xu3XN6J492oKY0LNPhjZPH3Vk4c8vcfriAtz//iO6F0MfMFxcdLOm6au6ssLjDtMaYqnTOlYGw8EI8gZyjP+4JKSG6nfD+ofRhrtJvliI+pq22XE4OLGrpf2wnEKmXs8lBN9ZIjHsXVSElJ2QFR1m/IbLPWk5MWF/yOao8Z5TqdDupgNRaAWT+yPk9Sgqlrr7vOtv2VgKi5oFtHv2CF9DS97OGy6AieKaZgbe6522MQNDTBaR+jU+A0TdubAdHtCnc/XU5KD37hnjiG53RfAc+Ftem/Q1e4QoZ2fu+998KCCgS5RJkYqfyEhXv6aacHAlEIrPEQeZfuOUBaVKruicLFujmzuFhUyOy41NJLh4v0/ZVXXSVT3GjLbjQQW/dkgS4+r/OreV/4QiCLHW6cMWLtIAOAaljXq6DHVZKmfv7554oMHWpa+ixPOilfMRSU7ydGKbvfIF0sXHqIn2WeeecNx6s6D2DGfXnaBbfOnW5JwdB3MCk/71YvxxWNBf+u0x2drZbx+/EFy4Os3n7zrbCLdszQoTY3BcbTJuObwd9d5+BobM7YuXGliLbppWjeCcQzSH3E0j5BC8Xw4cPDQw89FOadf758LqZGRy3Mx/aY4+19zk4H9VyZgtWmMbCPKqzT0YCDv5z7K1p21TSO07hsrQkUQd3wK9U7/eEPlRogsRRrZQClNAtWMlaThaabzyErGozlzf1erIRcqFw8cMScoiYjrNNb+07HgZnvY5kD7M6lLy0ABsBXWvm7lkubxWK0LClqc7INZ/JxL56W1i0ps4LVhj0JvNFCMlmAyjkB/Ym6zuJSOFx62aVhhRVXNBnpAFlrzmk7mKZWWQqerp3OKB4hAxGuOOz0fFjTH374oRQ3Z4TfSqkBt0v8gX/H5HfmoMscwOxcUirPnXX8jcWO9lt7nXXCCSo3t9wKy9tndt1IFbkzNKWHfOw5TeiOWl98ocCKL+7BeXn3S3hfpQtNNeO6LY6Zbj5psrjfheCj/fbbN/z+qactQRn+rkkSFWAwsED7nGz0Pjgf9IsZblA19GN0RuNgVzs/+uij1uau8/e+6Yz2aIs2rYVz1ASoM1HpzK9HfBl223XX8Oqrr+YFClo76FP6ZYqu01+T7bHHHwsLLLBADoCpldXZ4O6g7gCd6p/9b2yBzxag/VKSMOSDcJRWiDtZpOznKEnjubGymUQews7gA8xWFOBeLAt98SUWl559go1J06rLxMJiP+zQw8Ld99xtqQVwRDrYee4cjrdFxhRGWYGTQVo0sMS+khJnheWWC1dec7WlZHBOm8WgIVCn/Z0uccWNPbf+N0ELUf9BA8OLz79gu5N/Kekbf0OpYqCg5zVLMurL3Rp2658x5tSLq3r4ffvttw/HiD8ergpPVvAi+iNShUsKMt4PrgRyRRLHuDMZXwWOaxYf/o4UEscr77Sdf8dVRp3lGEyNCNo4y1Sa5fw57bRTw6VKfT2rDCz6BUBnTGC1VwO6maWeAbn1K5LaGDX6LY56ObGvueaasNVPts7nYuonqWrhqAUUrbF76HRQp9+nxYAD2/LttJNtpaEFUkVGSzvYQF2TnEE0QRpqwAtQd3Bz68upns7WxqaTLOVtLbmSQAmwOEEUFbsZOG9AiFmIdc3xbpm71WsLFtpgWcpw3UgeAUG+t+6664arlF9noIByvLI3mpwMq1tbZSs4LWv1K1WrAdgfe+wxy9lhOWPiAoLlTvuR+bGPjiVikB2AAZU+76n3L9SXK333u+GWW2+x+zVpm65RBHXvXwdd7w9b3ETP9VI1Jiz2B+XgPln+A6oTDZaOPCvynNEBaSI2n2feHm4BelUt7oNzU5N1NykwbNFg0dMz8HLL0YE7BV3jn2nzqD5yw4NnYqFBf/3CCy8Yx+/HcR6s9/WUb3333Xe3nSLf8xQL1YBku2NHBHWqNPXWGLjpxpvCkVJT0e/cP4UzAHVotmo4dVskXHKsm/efTWuktmN+o/3/+dFH5QZJ2rbWp11QVdTu/dTEBTod1AGkLLFUj/AHOWf20ICnY92ydMdWSwe9g7ouYBTA1rIKLhdlkUkoM0dbCoQdNoiyLUSMxc8kdSkoOR9Luzi3+5///Cccdsih4WVp+FGrEH0HoGId+vGp484nCODKpDTHqqxogP2nP/1pOFbW6cCBKGViKgWUD6JfXCFCvwDwX0jvTW77F1/8o641wMCJRcLaDstYID9AE34823PdL9pmMhj2EugTkfq1rve973/PnGIABO3uIOvt77sMB3ejMYwKIkK1ly06ZFcEMBkTRqno2gRWOR+cpa+J+b+TBc4tdN8hsONYWAW1z5OWfc2117IditXj1H1NlKTRx4XncuF33815+/pCwuIImHNP9913n6k5qPdKn3h7OyXGIojBwjvtj1oHmpFzeEyB765Sqsd/bvexacNR85EKYXqmJx5/UkFI+xu9ZhG4xD3If4K8MVtEDXUbhpiGQD2GLFhKgi22CFcosjT1paQ7znZ/5s5G4Ha4fqeDOk7STPnSM9z7q7ssjwiA5SDlk2k6/q/KxnD6pZvAZqRylZxx5hlhv/33z5Uvvt3vjO2v8/0G6ZmxWffSwCcvhlt4zz77rAUV/Z+AfbbBKuigL4wc+U2YTW1F2liz1qO8zMDceIiMgplEIq4IPOMExsepMMTe++6jydrDJisvAMyBElDOcsT0EjBlxQ3+9/4HYV+lQn7j9dczKzxKKuHUexMmr/ufpJw6gCO7IBZQiwsQuA7QTuADAd3mm20WrrvuWi0kg/Lttltj3r+urXfumeuguz/3zLPDs8/+3qzFLGeLzqvFBdmkR8pyLqPybKufUQm+eDhoUHqO6kTnKNqWlLvmEyBhXJR8Wph6zAPk6qhUvpgCLNeiPdlV3nLLLXK+/1zP3ls7of55uUSua0E8Gn+uIGIRJTUBgHahVEa0lztMmwTKKsd9iw5j1wxJEiO733nrbTOyPlXJRzO0yGJJwRXLWY8x1DimN2apUxcBq/+72sU9/MhvrL08PoJ7r5Wdc4vasZO/1OmgbtnxIgd6xSWXWuIlrDnnlFMlQUtWbQdOBsmX0h/f8as7rRajOx6LtE5LrtGSPjQQM+DJLHTXcft9ZQqOrAzYfcqFc7YqDmExDxHlQBEDJgSLH0m1ADfnf13pAVUBB0rOEkrXEYQzi8DnnHPPCVttvbXJ1HgBwiweviAAev1lvVsBg5h3B76+t/KcvK1JfpS2yy8q66OF3uN41r1YxkfdKHI1IgXd+Y28kPth4Zhj6Bzhgw8+CFtusWW4TEEnfN92S+ij0T7zH2BNm8QFir6nTu1JJ50c/vPOOyavs8VXf7cdjCxK8rJ4ki4aq6/uc6JoNgt0iWMLMCUbYx8FSe255x4m22QXYVQPi4CsbJ6X/7I2ywCm0suMgJiuwnZJilCmOhe5/3lWMkCOEEXm0dCcwxzM+Bx0PyzAPAdJ5ViQjvj5keEoZXzMqbboB6m3vsfdZLuPzWxbq7YgUA9abWzYftt0tG67AAAgAElEQVTtwl8pcad7dnkivhMD9SYkjY2BOpQgRgSqq2effy4ff+lO0xf8lsyvmfk7nQ/qUa1BJ5xywokW6cmEwHpy/tO54pYMajOAo9MQSdVvHnlEaowVclD3LXlKwXTIgGCOK91kN0VyAG5Ztfm6ZFCEYJNg68477wzniHbA2vPUpT1Rt5ArHMdTnPBMINopc3JmL4C/nybj16O/CfPLMUwwDZwu7cqxaR6USs+cB/uo/bydKP2Gjvsdgaxpl0XZ9FR+F50w57ZTqxvQ5h7hvtm+f6mcKjvvsnM4+5xfRDDO0kCwyLDA8OLZUVtQcu9SOXEth3kERsOdLJ2I/Z8tSjF4xvLeRMUQOzPzQ6hNeafow4knnqRw/+3tGmnVnWyBjQurWwGNDALPvc87i+CBag9UOKhE3L/BQmi7zLhI8bkVJKEYi9rMqB4tPoNUGpCUDvMvmDnufSH1nSNjvsOs1kgJas2KEuMeYc9ddwsP//rXYXbtamgjnPQ5qBvV1UL6hTGl54V+omAGDuSif6EE9ZYhUaeDugMAE+/A/fYPv9YAosK757BOee+WgjrDDot16LBh4Z777g0LLbRQrotNB447vFrWlM37lnOyWJumqY6giA6bCT1aQVKXX3pZuOKKK2xSYynlOVgiV+lKArtyBCNTyxhoKwujrFYciqusulo45/xzw/LLL58H4QDSxejKxp6AtnFq5G9/+5tRMSg7qFc6drSs9Uj9eHumDi+uQ5QmNAXn4Z72EKd8rigQwG6cFiy4fSxXdglfqkLTCSecYEDpOvN6vHZizaZqCZ6bqGEUQQQS4QCmzRZddFHT4PP89XK/I7GLFEK2+LNixPcGGsPGIAso1rru40XVOSWk3vITsVjEvCi5xZk1iC14WYxBXY1cPqPYxkHKSHrc8VnBEZ8P7ktxWqalQoFmjUp38Yh+gYZiQcQpD7WEagwXEG1Mfvp0x9LgNRri1NmVMZ7YAWqxvkvqqpVWWik3Csw4ifReZwsXmtV+NXJwp4O6O5HGyHm1y447hZdffjkPPHJe1eZbU1ZBAw3KPMVCguNdZdVVw4033yh6Z45c2pYuFC1ZNFrajw7qvBPGzwQC4OGvvxKoEVWLnh5rmEXONeuGOWzlI1hkJmumEnDdOeoW44MFbmusuWY4U8Us5lOAB9dyp1xRF9zYs+cLUFS+cP5XXnklHKCc2Cg8Zh0iXj/q3n0SOth637H7cucqzwNFsbvqYZ6jsnjwyzwGypPX/vqqVb167bXXTKWTgrDfR8pr85xeEJrn5/q+q/l65NeWjZNslSh/0twt1mbOeXkn1vFhjXYrwO3fvlySP+SV8ypwCWVSquX3PvLcQ5bOV33MwkOQFMfiRF5Z4/Lh3zxsh6fPWHR6t/v4jIuaGRgUk9GYvOaKK8O5SjeMjJFKUuaUzumXxlPvNkW/sEPF93OFhAubyd/iyqdOES60dCLX4Pc6FNQdmH3g0h4MICYjfPE2W24V3v/g/XplxXwCV2OppOfP1QOAnSY6io8txSVfomAYwCJdJHwQtXThaKxfKz2zTV6jTmRVG6BTbV1yOuUd+UAOySOlikASB6CnFey5b4CxL1WGIp+Zg4Cdk0IOGYWDhbrVlluG05V+dtDggdm2P6p9PJI2Dappamx6+7ucEcuUPCsHHnRQ+ErxBQNI6mVgVwdM7qT0snGAKt83i1T3CK1yuCRzx590ouXqfvDBB8MpkiuiTmHnxu7EpYcsCq5ycXDjnmgfT0PMO+1Bml2UOCfqvPvss4+1B9fKcsrX5SppKUjmba4GP1jP/5Du26godkmFjIPWHqbhJ/UwdJvolN5yUGtXwv2g54d6eES7ktnnmN3u3y12T5Xhi3ZTfdTqv5tlzf9l9BT994jKzh2uLJUUZrec6KTe1QG+Yymui/XuoSFLnd2M2sP9R6ecfpo5ZD2OocPoplY3WG2eoENBvVITOFh8pK38huutb1ZWOjmK36l2IjqYAjNEFo5Q1sf9paw546wz60kYU5qgvXn1epZmjKxj8uDEm1X5L16XymPfffYNJKfCmnUQSzXWcK5YfjmxHB1WtJNTVrTpQQKbI5QKge3teIuQzKxYVxl42oBUWtjQEE0tdY7xKE2A9ne//71FAeMopW8AVl4OnnzGfdGv/A0gswUXv4D+8ez7S42Eg/HSSy+1ZwYg+Y7z+L4Y+JY8tWA5xpJE6V5oM1IeLLHEEuYQXls6fPwKPp5YANoC1FP6ZbufbBP++Ic/2DPzDD5+vS1zmoIsmeoXFhwkgdwzapJxuj+ShlGUYoGFFrSvpQtnexoc0/U3YE5GTZUTs9KFvXqEV156OeymdAEskqTQZXfj6pcmIa0J+sUpx0MPO9TGqkfy+pjssMWsyQfpWgd0KKg3Zqm/95/3wprK4cyEdl2xv1fLq1e01CMIUVPzJFmBBDq4VM0XlPacOMVntkmOQ4xER0xuOEr9/NSTT4bjJTUcoex1zp8DgG59AlrmMGTrHoN/XIboYIWFy3fOlFZ6p513MmvLLHorLl2XqtbvodrJ48/glpVRRtEi5VwUs95nz70sfJ9j0uP8u1wLUDbQQ8seHeGuWefePSWCT3YHuHRn5QtM7oPQuXwHQ7pmilmQXXCJpRTBSrpX3Z9HwbolmC4KLZmu6e5o8002C2+88Xq+oKaJ6Pw6djz9zoIlYERiShsgBf1aixo+Hqi2BRfOfD0pvdQmi1C1DxktdYx1dnZIUt97910plrYI34z6RvfbO8/9kt5jg6dvAtRpF8QLP93rp6bvT1NItMeuudpm6OrHdSioO4imOa2dB31ZBW8332RT49OdZ08bt5pOTs+fh45HqQSpPi+Qs2xvFbQ2VY0GqFW1budX+iz8DDB7KLmDH0m5LlC6WuSJLoUDvFNe2q0WPx8W31hlvQPQARIWA8LQzxVHveHGG1ngDoBuFAtcMeIOqzwUy5BF1UI17cq1Kx2XAuvDDzwYDtBOCNkkwF0ETgOB7ETZOyCHdLGgnmhoYS7ScICdO3sZT9BScPxHH320Za4cr9S7cPRpQFcKRNU+d8XhAX0QdybbqaDLnzV2UeF4ioLpFg2zgLMcKJb7hD6IYhvoF/j4u+++2yz1lL7h2h0aPxE59SzFbpYqAKPj+9/7nhXsHqjyfzg3LYdL7EsLlmro1Qioo1Pn/OzUtt1+O8thlMtxo2O52l15O0/hLnf6DgV1n0ie5Y/Wciv899rG77Td9malpiBSj7Jowlma0gRF5xmT/nwlwNpxpx3zakppb1VlebSge3MaSADLAHbQ9pzn5/zinHCHijpQZQfdOUDpzj8H9dw/oOubAgWnakyHS83N99//b/j+91cP559/noXkIw+EA+ValvrWZY5O21R4jsYmUKUdVnoKFhCklHfdfodpwDnereN0N+TiEgd0p5BSi7bYD96nXI9zWr1ULXjuDKYdWCQJ9wcccDZnKRW6S/2jQseeQKqZz9xoV8eFiXvddqutc1DHd5PuUoqWOoCOYoklAVDn+HFa5B3UsdTdWejtlvZLu4NctNRtmNBZ+oFo4XWU7AxKcEB/+Wa0y/A0AfgIzFfQXFCPnDpfI1XAFlttqaC063JqsL3mYgumb5f8SqeAujvqvMUAdqSMPxOf7GDXktb0ieAWnOuXfeG45LLLwo82+XE2eGTpNurkackNVPhOutDws1MeWOyE6T94//1SqWSFiwEjr+Du/GJqUZpTWYBO2TXA2oNqVhdthfSR0mssHK6XNsqFqEoy68VXWwKDPxvAyUKCcuf6q68xgPWAIM/x4pa6C0wMM/SvEZVzvrj7Iu/tx3PjfMVXsMxSS4XzL7wgrLzKKgaIBEMB+ljp1nZJYFcbdWm+2+CZUkvdpanTgVJisXpmCANGfZ9grdRST4PiOI9p3Vuo/Gr28+aWetZutpPSSTZRwRBkrAMUKWu7s6TTGh1PjVnqOi/PRjbIDX+0kZW2S+drhz1zsxup9r/Q4aBOkzio24CNARd06tGqGdoaUC9adR5lyeeA5dWyBn641g+zbZ6AtElEaU3/JROE0zD4oSVMxibN9kGiKn5H2HsfOQ71dyaL8+Ycy3FekDcFCfKxoD/nM/TecMhQN7Sb18907t2oGv1HsEsK6kXLO90J+L1Ws0NK25uUvbbQSMFzpfT1FK1Id112/YTyMaCO5EidODxCfqTMsmOyl1uwnkKYZ9xmm22U3OvkMJfUIwACckF4/SzSU7rqQg3NIv3iz+qLRvrsjYNVzNUzA4O6yREZPzIidt5+h/C8oj779obOSvOp4+xuZJI0BOr6Dtljeqh/2Hn9QLLbe++9NxcwdOhC1po5XqPf7VBQT2VxTBpzhMbCBxQ6OEuFGTw5VUvaKwUZD97gOkx4qI0bFUTxXeUMNwoD67UpM7ElN1H4DlYs4AJAA0gk5aKMFzpsK6eHNR1TkwL6Jt2DgsHy1fH1/AvQsSqOgYXKMx2soBWcqw5ABmxRPcJtFBNSFWWhaXsVAa4edZA8Uz0rFHkbFqf+PkXRkczw7qJheJ6LlCzrMu2MsJrtXGzldRzHonyx3CxFCzRR9bhl7zp8X/TQgtNuKGbg0PspTJ9kX7RZPy0oLC69cNhaMjAiOjPpaArc/jjpYtasHUxCv8yIlroFVuk/i4oVqO+vHfSjj/42d5TW5VOPzpqG5kkTljpzcPTY0UYZkgzNC7d0qB+hDeZ4rZ2iQ0E9BZGUX2fiY20CBAOUBbAINtU2moNWUdWCxU406S1ySC6z7DIdA+rRUmeC2FZWoPOulAT7kBTrn6+HuZSf3FILk0ERDli7FgYz4fRMFct5w38mnMhA0SgagoqUOZGUpYTrFwtp0Ha0J+/uuyimuXWAKwJZ0TpPgd77IAXiev3JwgQtFHOls7icoaAcuFLL7qcT+BrKtt5s8vhc9RaKCnJN/k47scNBKYK6Zcutt7I0ClbdSE5KdgmWhExtA8j31TVJN5By6g0Bd/rcDbVNvTE4Q4N6Nuaw1K2wjMbhoZLHPihHOGqdrHi775/i2GwuqKvzmQ8kjMNS/87yy4b7RUMikuBVWurVIl7l4zoF1FPnoTvVzlbU45WXXGYJkloK6unkdBWB5QMR/0qpstuVR2XRxRbtWPolOurYyu68087heQXsYIE7iFt+cQM3DWbLiU7JsEwaYcFJsZoQk4ssk0OHDQ8nq3jBNttuk5ew47k9jL4hiqHIzbt2m+Md7JzPZai4k9YDlHz41JtwWGI5iRInOp9xP7KSrSyegP2aa65V3poBmR9Dx2epEVCDRBVITLRtYBInNYm6Mg6dCkQhfCGqaeMf/yicoJ3Jd5ZdNmqalUgshqzbc0fHnUfc+nN5cJIHtaTjpBiQVRWgzMCgbnw5HZH04+knnxKuVt79wbMMtj5FIpvudhqEoEboF0vKJkt93IRxVvrwtttus3z7PpZLTr3lwN6hoJ46MlOriYmEVXftlVfbFrqloO5ghJWbWqmAOhbebXfcKS3wgh1jqUeuIct22D28+pe/Ws3HUeRAUZCMJdWidmekocx6dVNWk8GdoliaKEu++WZUWEQ5wC++9JKwinKTA1Su/HCnaqXgnNTyLHLprnfncw/28TZ0sEvB3xeOOgveXZ31XZ6cz/ua3Qh5XLDEeMb+0tFDkWDVZ7lr6nYiNoyR0Wnbj9XGc2VFtLtLd79zOOq4Yy0BFOeEpmMMFXdl6Rhzg8HHE+8e0eoRoB69mae+rUZONwODuuf4z/wx6g61PVW2cMTPopTJ5ueJCcmKdN50MNQYqJvTP4tbIKYAUCcIy/MLtRzSym92KKj75HKe2K1KwILw8BtURKG/POwtBXX/noO68/aAw+KLLx5u0cChyK0NxpjWtt2GQMQ54yW1yNwm6ucE0QZY5R7ajsQNuiB/3sRBaIsetIMGPikOlqMsnPwOiy6hsnN6HugIB7XMoq2vcEnb0LXanuskKsXrBWE5UKeBXg54HgCTbZmzLJDpuSpVHOIYd26yqJIn/xkFKWUyS+U/iaoOB3Lnzn2x55ok+oK6Ofnkk8POu++Wl9PzGAS3qtMAHe9Pnj9VktDfLK6c34HdA598PHobNmklzsCg/q2CGSwDKOOXeSJO/byzf2H+EeYmVCGfgfhmVUd/RcV5VIX6ZbzSJSyx1BLhjjvuyC311OBrlq+j3SZz1zpxh4O6A1Gx40jidNN1N7TaUvftmytsuA7WBTUy4dTnni9aA+3tKI2g7gEVF194UbhExZ2xVOHBLcLSePPoMIxQyWQxKx0nsvhi7n2jjTayjIZD5xxuuc8J+Yfb9AIXrn1Pa3o2NhlShzXXYJHhxe7Bk27xO2H3fh7uw89fZ6lXHuz1uHYAUP+QWpK6AGC3FAgTlcLVqJtsiTAix2ibrF1GiWtdQgvxBSoisdKqq4RRop7QnbshwL24UzilU9LdiAdHGUUElRWrP5E6waxQjY1UT0+beirjRsFkBgd1JWYxQLdxqF3iheeeZ1kuqUWLD8NqwfqOpqAwqjciGlW/ZDs1nP5LylIH1MmB45Z6k7uAroWzHXq3nQLqbsGllvrJKoRwo3Kpe0h4S1qBCe2gngdv6ERYfEtJz4ylPs9882ZpRckB3p7ql9xSz1QYN6ve40mqVt+P4gxsbaFdBDSTCRnXApMBT0YnAGoMdn4nrevJKhxClOS0yYoStfmWpX11jrhoaTbZdpG7dornAxVIfkrFKN54/Q0VsnjfKioNHz7McrB/VylRqWU6mwqXuKKk0vkrcfkc58AKeH6iCjoof8jEieY55b4zqy/bneA8+5G00b9QzvW5tCXHIUrNTHKOWOqDSBf5ub1ijgFxwgSxSLEIWi4Zfb+hl/lfTMtvXulGmy+7xowsaRR1hn8nUoBY5Redd364SIF7fRToZmPOCPdIm7VE0qgvm+Ncben0C3UDAHX3hXknlJZ6k7N5ugM6BdQ9v0W61T5Fzphfin6hWk5L6ReeLqV4bLJrAlK1fEmB+m3Swhv9As9NJFwHgLoD8Ltvv2NpYMcKsLBUrRKPqVR00wL9FJhNX6/7O/SQQyzRUcYry4mKFFOWk1vy/h2nRVJgtVnDyzSE8V98XrsnnF36/Ibrrhetc6XlRjeFja5jRSsEiMZJ6/dllvlOOObYY8L6G26ge8i4/3yyuRCC60Q/Qsphu+Xlybmo3wmw//21v+ULuFvoVqle1+PvBx9ysHTuCksnYVdU/NBhKFo8ha5z5k6/pM9PWxElgwQUYP+z6rq+pH+kYrBmUfsuIwfdOlqwhmoB8wXIzhVD+RucTjMwqGeO0qwjsxiS7uHi8y8wdRqgbmPjW/mCIqhPl744bbSGLPUYUUp/sTNcapmlLfjIOXWnAEtrvfmAzjc6BdTdUneHGgMF+uXG628weqKloO5b75RLhZoAQBfTVv5WDZz5F5i/Qy11exYmgBqbNLO33HxzGCZ5JQPW0u3qebHKoRYA0M9UmHjBBRc0Dfqu4pH5rjtALcc13Dl4nOxK0sXMga3e3KKuJAFX1JjEIUvQhyL5KE33pBKJQeOw0PDO93FCekEOfsdyJgMhuvBDDz/Mgnws5wfUljhRy7HCdjwqYZxv9XtJKTGe5eOPPw67q6LOm2++aeCK7hywx5lNOUMWP5xxXkDEdjCsfSpCzaIC0LiV7ry6X4O+52/mRFY908cefyxcd+11VueUdh4pR7W3JznWAZJNNtnE8tYMHjLYnpvdIi/OxWu6xGczMKjjKDVDI3HWn3PmWZZBk7kJh+6SxiajdRvj1NnwqC8pHbjo4ouFu+66K8wpmW+xzUtLvfnA3uGgnlpETD7+AepM5hsUYt4aSz1dDEzzLYsXUB8tUF9E1W+gXxZaZOGOUb9EGiBTEcg5J5rlnbffDmefcWZ4WDmqhw4dahTEaCXlIvqRv3/26WdhscUWU5TkKWHzLTbPandGEE4tohQ8HdB98PvC5nU0Dfy0MwGAJxMApYmJ5XuKnI+3qj0sgpcFJqaoxVK3RTFSIVi8vuPh54vErW611VY5P43D1hyO1ASNtFD6bpZDQml4icL3VVxjO9W/hJIhA+A666xrmfqW+c4yZllzPtNKa9J3l6wxP79AxR29nDfNleJ+CACd714jx/JF8mMA1KhpvIYoiymLEosoidBQYaywwgrhwosvCkvLerfdgc6R0jr1AmJmaFCPVZ0IPop5hs485dRwlSSNOEpj4EROFzYKOY2AugWgxcUXUCf1MMaO96dTi5Wc4M2HuZnrGx0K6sXJ7oDEhDlPzphL5RQD4FpqqacLBhPenZTwduRFuUkRpUsuvVSH6tSz6DyKNEw0i/aLjz8Jl8jque3WWw1semvRIakTskUsRpQeiyyySFb4QZ9VsoZytUmkPurRLnH8pm04VSAJHw1vjNrmud8/G3bZaafcKek0Ducxq5giFjqPa9QtM58+n6B2ZDF6WsnXsHK5Rwt0itbsdJp1fe7ndoua23Ngf1uL3K677hpWUd4W9OwUHE85Vb5rUaopz20S/izTZLpD4WeXX3LfZ2rxvFiUATsQK4CthcyjevmuJf0SsHvt07F6tsWkLLr+hhus/J1nEvXz+sI043PqkcIEkKHjtKs78fgTbIfZ1+rEqpfZKZKcrCkFWROgTtvSJ0trISdLJTs2N0ochktLvfkLUoeCeiWw9m3zVVdeFc7UxEbC1lJQT7+XOugACqyAazVhV1xpxawAQPeOyf3iEaU4+1i8KNhBvVQA7XUlSRohOmCAnKCoc76rcGlA0jX2OVdcJP8zsUjjPoE4KTNhiWphjsdK72uTaAfli3n11Vfz3Oy5jBH7y4KlpmdK3TnJAkk1oZNVrQZ6ZArWP5pxgFbetW7KG6D9Vz0nrp/frXbO5Rw7BaxJGexRsPkQ5jasAHWW0Cq3+JPndiMBAPZ6q4DAs889G3ZUvpIh0lXjJM/19fG57Jz6b5JSG/AzstEJAn12DOjhSV+MZe9UwHT1MmdwS92pFwNU9cHhBx0c7n/gfjn5lcJCMQaeehfpY6PpqxujX+IiTMzBSkrdQe4XdtUWSR37u7TSmw/oNk/UgO7qatkZmvktn4g+YdwSuvWWW8NxyoXtuV+K1mdxBW/osn6cF8Lw8wwcODBcdc01qtn5g8waLEgaK1m7zXy0+oc7+Bg/iaIgU3egfMGnSKKkzNSsA2eno3xg17MOm3kzWa/GroUfhVLRNd/65xthCxU9YGFLz28cPblcUAaZ5j2jjFzL7dth2m5BqWJQy1gVJrh0fbeH8/XOrcfPK/Wbgzp36NWaOE+azsAnNMfmSqZ4zhToKy3kcPJ/U63T/gIJLHEvzmEFSQTijD3P228ViLSQ8pqszydMmmhOu7XXXtt2UmkuosxvkPUn7/TnjJj7xf1A2UIawp677R6efOrJMLDfAGu7LBd89KGku6jiGG0I1BNHKTEYayrJngWnRSlvap2XlnozJ35Hgnpx7UidpUw6Kr8cccihqio/MHcCpk6/akHXB4brr5m0TgFgqa+3/noV6ZdqF42qm9iVIORE0ZeyiFFNBFk6SCq7J0E8luMFB5WBauZjcOBq8aB2a1LXxrE5Rdft079vuPeOX0nJcqxp3bG6MjrBVOL2aE7BwLOzAEFRAN5GZYkOwmk637zzmZKIQChvN8L5p+kZCP1vyHrL+f4o6UwXMR8PqVPSFprYbtxb2iYO9L6r8XYjLz+UDv4KrUr2bBQTgTroI0tzgsqyOfcOrcTiZ0og9NZ6JxXDXirPh7Xupf9ok3r9MUNb6v/P3nkAylVVX/8AaRBCC01K6CoIykcRK0URQem9Se8gIEjoUkKTjpRAkN4UEEREFIQ/SFOKiNJ77zWQAGl8+7fvWfeduZl5b2bevJo7+Mx7M3duOWWdfdbee+0MidW+XxiIb7nFFla28PYwzKKR8nJ2FJ9WpY9ak6IDS51+ANSJqsJRmlJvTY/7uido/z2w2y31dGKrWXnvrzffHHbdaefcagLoNalEpdTT0elOINUtAbJONMGwjUwzRSFxqTVYtI473eXRAvfndQ44VqAHPJwaweLL3nPawiZIKhWrdmp6sYk0ivPcWOr8a+B06smnmP/C6IVZLQFoAjuWmD0IaPrdZHGPHuHgvxqgsTDgcHULzbh2W3TOGX2OTcY1wgSLfhmIFLAst8SCq7YJTBfqClolLijtfSftfx0n4JfFjeQvip8zGYB7glHGP7nQGL+x+PC35wrwbMRdx3APFlroqbktxPHWW//udWOl8Z0bFUT9TCOWuo89+/mhhX1CF846bBZvHxbATlnq1v5ZNNMMLtK29rrrhIuNs68G6vXM+U7P1X52gm4D9SKYu0MuRkvQpvfec0/YxEqDEU6mTMG0lqjavaNO1mRXfLSAm3jYY0w0bAcrZ+dOsJg2XuTvOjp/c/0vhE8sYj9RREl+Taxl/yRSDU3fTzyfKAOPcbdJhAV6+mmnOz+abSEM3ACqeA/TeX64vQB7vz12ENmtshf3ikvGzZM2vuaaa+ap+G7JRpnh5tooc8xVe970/XSxUzspWoXM2P0trv/CCy8Mw+eYw3dFct7qvMWFxBcFf9wsqWiStQeUzR133GGJT/Plj0K0Rn4f8Tsz9Ev6JSqDWoczPyfbXPmuFWF51cJQZzNBr0+NknKZAB+ynZAJiA5w8gaoWIVgmOZ7S8Z/s4OwH3yv20C9yKUzyVLgffTRR8MPvr9ymM084Kkl7REQTDosqmQRqNb26YTVuWWBExt93AknhJ/vs3fF4OGcUznCWtGxRUs9Wr5Y5FAtxQiWDN8r64d27jbyG/DTOKdvbXiiyQ2capIFXsXG0dosJp+gOFjaLPWMEhJ3moW5Aeq01yCzzM8880wHdZ+IrqSYlWkj0ica+1PdfhGQiwekVnz6WbUFLo2kcp7Xng9unPj+Sy2yaJ65LBfAon6+cJpA5FJbeGU+VmLbsLAB0tQMnZpqviUAACAASURBVM4Wvztuvz0ssvhiGZDzfXeuxnUwnm9APwT1TPslzjWjo96xMFuye1+nRqnJYrsvjDZlkUsNgqoT0pmcrDQeYyz+Tm8ooxRjC0Pr+OOPryyeU2OB79ycmDa+3W2gXuRTaV6PJ7YXoPqSpaqvbHU2ScJRAgmTVKFl9YC6g1cEaZ1DeiXEQ+9/wAHhCJOt1Za6GG7X5d721HlagVpC1RYOujiRIvuQLYg2SQkdPc1it2e0xBzxQLJiHdSTCZiXLdMuIi7EWLIO6mut6REwxJB3emfR4KOnoC4Khr5GY56U8y/NM6/H5WcMUkYp1Xrl1roBt2fS2oFw84uZTHOWyAYatZWV0/H92VKXuuijj/w3bGPqou9acRIyoHNOPUYStdu2HThK6UPm9/4H/NJ3WMKDlApteqfa4HjqT4d3G6ir0YrWNNzmIONo3zTQXWuNH3sat+KNla4+VUZfjR7QuZUo4qJeZnVx/g/MIbPJppuGM35zhtMNHCun6lRhc93Qw9VohLRtUm65mgXbKIgKBLHUTzvVhMUM1N1+jVE5uaVeAPUYEZkdK1BPLHXxoOn91HqOinUs0hm1mrq981VrDyULoQbpin8G6p9bOKOLT3UA6LI6fScSrfDbDdQXtUQ1jaHUMu3PoO67SFvNlXj015v+EvbdZx/n0gdYxJjvsIlewZLuoG19eNWy1GnrmLF79DGjwjbbbONt7TvBGI2UrcftL8jdMFX73CW6DdRTEEsnvcCGMmWbb7yJVweCG9WWmhaVlU4Ht9fJsrwrQuDcQrWyWRYPu4qFqY357fme8i4tcVnneUx4Nw6iIlesQVzklqtxzbX451ojsDtBvZ5Z0NH9p+Ml5cOLzlL5ZhgvGAF7m14OTrd5LC/hC9tFiEJqr10qzmkHkkeApU6moyQnAPyKMWzH9UdLHfoFZwqRUQMGzhCuuOxyL0ziapZuA2TJR21+9HZAtx1QV0Yp5z351FPC+uuvn+/Qlcnb5TvnegZqHzymR0E9BWu0SHbdcadw9z1356Cuzi06t9rbRourV8KJgJ6kmS9bgs/lV2YSn3LKpFv3jjj7VvavAEISwcXdgnYSPI8+E8Bocatmzdda9LoT1IuLtnZEtJ+eu2htp/Qcx6VbcEU/pe+p31JQF6d+iWUOz22Zr+b1zMIs27HVi4uH14eNoE6G6bQG6rQXuA6tNmDQgHC86b78xjKgZ7FkrAnIPpPD4DuaTGm0XUu6FqhnAWBuqVN28KKLLwrf+ta3KnbPmmulpd446nQbqFe7tXTyM4gO+MV+4eprrs4KKdjEIhIG8C1u29t7zKmsX0DRvsBkRffkjzfcEL6cTFaBS72cfeNNXP0benYtOhyVA0j8iga0nMWaROlAr3fQ9ySop30iEBbFptbhmFRrBQeaMgzTeHHtZtIFwqM0oqWOZjtVdAD1KRaymYXf1X4VaTDAhvDHSk49Ey+bFix15RqgmIlDfPdddg3XWrbn7BZNhHgbvDoO8boMoA4sdZLBCIy4+W9/dUMr7dMS1JtHmm4D9eLk0eR0K4yoCePnjj/6GJf4RF9Ejk6+VyGm1MAEzXlZ+w4RDR/ZbuCPN1wfvm0hWpw3jb4RuNYLks03eds3U2dfShlpcOueuFfaJ12AUitdbdkepdGdoK7715OmXCn3Ics7LbrBsTjN9MxpeTntZuRbKdIxKagT/ZJa6oo0qtVfRUsdTn1ap1++IGfL8ytC2NL0/FngyMDN6ZdkleyMpc5iTe3gf9z1D+fR051ovbvzVszD/naObgP1Wg3HNs51QCws7tLfXhD2Mk6UArSaqMUtXqOg634/MiONu3vHePvR550bNreBKmBJwbLRc3dmMKSDNh3M8iUo+Uo0kuiGarRESsfUykTtTlAv0i+6P8CZiZxK277zzjve/whvqZo8eiA8hxxmAvjiopVSNrLUFdKIpf4FRUVqR1hWWIb5uYhVn4YtdU/MMlVPIpreeuPNsJkFFzz/3HO+ixpoc9Sjg6xN69rZtucotdbnXMtYEXEs9WyaqghAnefvzATsx9/tcVB3i9mcMgyim2+8KWxnGuIzYxVEh6UAIufflSgTOyXLF6wZGp3VbYie+o9tS7/bHru7EmIRwHOOt+Ao7ej8nR0bqcUtK5ZzAmTVHEVe+NfuMa8VGmmBqSJ4Co3SbaBOrL2bdG0tA5hjhatY9JNPPhmuvfba8MILL1ilpZc9soLdGUqaSOBuYoJjSAJLVXH8p+NNdGtgxTNrN1B0lJag3tiITBdgibkhn8B8vP9f94eddtjBE44YP/QBtAxa94ogq1DQLFzaz818IimNcerJbvaeUWIMD/T70SE659zR/k35w/hel+SONNY0ffboHgd1etdVEw3E/vXPf4Xtt93WJ7NCm7wKkJyFHSU7VOmGNFz7c7MMVrB6l8h8ygr0FPGY6CCaozt6M+XUlarOZMIi4nkBQop7oI1Bewyy+pDDh8/h1iyAn6ZUKxZdE6MaDdNtoF4IVUypFp7lt6a/c/FFF1sxkLe8mXle7hewwEJG+4ci4Qdbke41TIYAqx1unQxgyShIjri01Fs3UjO6JVuQJ5kvAp2fq3/3+7D/fvtZTkPm40IEz2uUAuoyptqLFrOpJY6eeeg0K5mqJLKZcYZg2gGWO0KcunbmkvaQ0dWdu+fWtWbPnqnHQZ3B5IBjQPX8M8+GHbbbLrxoBRQAOia8hx5ibQMWcTVPm6weS1qTH650uFmEdxmH57rtbPciCCFc5QtAN1nqAlnkX30gu1/B4oCtPf5uuiO333F7+Medd4bnbOs7wMqIAeTzW9r6j364ulcGWsE0yH2i+C4kOvGSbM6iDnu3gXomLJB3URYaN8Cf4zjTZbn++j+Gma3tqfhEf2T0V6y7inSD/f3++++btvZsYR+rFLWXceTi1IsTvQT1zoNHBVVmtAuAi07RQBtz6ATRZ3PgJLVFF1E0AhokvSsjotZdZOfOMk99/pLE5ZpEmY+LRf7Ciy60gjDrORXju4EoZleXI7bzj98vz9ALQD0rjsUKjub4lla84U4Ds9lmm60i7NAdaAn1kn0n+4mCiFU7SCyEDzCcrraF/PNfbrIImK9YhR0rlGDbTI5xrhonXkyoECyRQt/e+ZsdFZpMTJIp6KnMNGP40MDsxBN+7XHWoljckuUicfH74P0PwgJWgm0bo6l23GUXW6TmDBOt3QaQ7RdDzZy2Kdx0t4E6MghetThbcLDP2HEcfOBB4Y9//KMX3kZUC+DIPo3UGZOecn3WH175KJasI3N17fXXy53ari/DKuBSLW3FuktOvbGRmLadKKzcwIrxQvtY0tHVtqtFRwcKbNjQYU7FAOr1cOpO5zAUUQi1RWKy7wKoamWiagQuGKgz1ymS4UVh7H3Gab3Jho098bRzdI+DuivegQFUCDIw2n3X3VwwH1BXxR2fxJGfy7n2COh1WeqAR5QPoHrP0Sbste1222axuGZFOu0SdwIkRXDOrDqlSRikwNPKcQFIA2gOfCG8ZRWR9th9j3DnP+705CjoISVI5Xy/Hcf74803gETs1pa+fZw9y7CYTEVpOcXv9aSlzj3Qn1MsTpz2/e25Y8JRJs/A/VEk5NPxn4aBgzMNc6e+Yoav+pi3mdw8/1xWYenGv/wlF9dyp2uU9y1BvfMDUm0Iv03Snwug2cB86623whYmuUsJRgrXQJGalydzZmJxx1dH0S8UTMkyUa3mrJ3DrXEKwVjf4hy/7rrrwqKmsaPdGKdtuWJq55upT52hx0E9wzRbwdHrtpX6hONPCKdYWKMiIbRyp9vE7BuSim3fUZrhRqbLzfnRA9/YPPpnnn2W7wygLpzH5phUtCl2Yy521epupSyYOxSNPzcrZffddnNLlsgf7pX7zOO2o9xrNuAHhIH2N/qD6NnsvOuu4YQTf+3O5jy9mrDqQthHt1nqkX6RRY20Ks62e+66y2OS0RRhC05Wou7JLXZ2Yuw07F+cpGzN4deJV9/bLMYDDjow37mVnHrnB2PqoOdsTq8Yd64Shf8zzReEvLISdllUCrr8PiYTR3h7oJ7Rm97R2Rxk/NpODOlmMrxJODr//PPDHHMOz6tMdTbarfMt0/fP0OOgLutMjr8/XHNt+KVVuZf8roonaMIrIqQRUBew810yS5dbYYVwrVVawTlLpRuiMnzHALhES13BVV0F6l7r0cu+zRCuNYfUL37xizxWl8VHi5yAL/8X3tMWwCFDreyf3S8U0rnnnRfWSMS1WCymBzWTeOLuBPUpZupNmZhZ6bf//bawvflJaGsAYdwnJBWZDEQEcfpGOxFFP8hSy/vLyvxdaUUUhs6c1a9VbczSUm8egNJxlba/QP3aq69xcTSikj43yoWx5jSKgTzBBdpZt3cHWfQLq0H2r/uM2MXZ/xHKik7PKOPsEZpLjbbiXG/+KafNb/Y4qKdRIEzmx//3aNhu++3Dq6++6habol808JoB9TQahEViVrMYyTpc5htfz0uWuTXRjZZ6JnubycKuvupq4UVTqWQLDPWCqBk7leKzM0Sdy6RikU0EwJ9t8sYWAnjm2We3bZ+rVKXpTlD35coWHybrxRdeZLTS7mHRRRbxSBbUIYl0qcbL0k+MAZxmWI1Yj5/YjmUJ83+cZxbd0sssnXHrsRRhCerNg1Zqqec7prijJWhgrz33srqk11kJOxN+w9fEZ/DdtD3Gd/RntJ+vm9Fw0DYu/jVDpinD9d63ndipp57qsrsy6NxvFqUH1Ldl9EvjfdzjoI4J4Nrd0VP+sQHaxhtvHNBXB9RVriy1JtzyBuAcFuujX2QRMnDGG3hS5AFxfoAUANF5ustSVzbrAxbGuesuOxs4v+0co+LQUx49/d0noDsjM+7RFynzP9x4001hgQUXcDBl8vQo/RL9BFBbo446OpxpbT2nOds+MSplsIVmsitC6S+NZhHIiCpjotP/PB8/fzBqatn/t2yeqFY6Shuf7MVvCMxTKWrG1Kfjxns4KXLY+JrcyWklGHlhUExvOzDfYcddVs07ibtfJqtvGnF+x2It1IM9jx3mmj+ealeanq8E9cb7ucdBXSuye95jJtsWm28R7jYOFqtUHnE9WjOOUh+MBoZwzgxgMktJUjn2+ONyK6G7Qd31TMzSvuLyK8JRlgw1iUnD4E+SrtIIAxUkcGuG45gg3maTvWDyDaZps/yKK2RCS0Qn9CD94ou00UtY6ieZfvsJVgBhDtsdZRFIrMJERVBUg8SwuDLHDk4tSGXVEv54sYl0ffNbK5WWeuNzvOY3BOosoMqNYI488p9HwsYbbRRj090s93BE7yvmElSKQpdi0axqF8nHLPMav5Cdw4ts2GuueeYJV1pd4sXMSSoDpy0UqoUPOQ2eqsdB3UEI5xrWmyvDDQy/Of0M14CRo5B+KYZQNWOpS0MGS30F49UvsLJnc82d6cx4Zlw30i9QK0QBXGTJOIcdfIjHzeulgV+heSOrx4FwujBxCll/5jS1nw9sd0MY5Fo//UmmndIL6Bfnvq09CdH8tVWcIiwua2fK3mX1Tp1gjdv4FMz1u+vpWzshxHap0WUrrvTNEtRbBFLpzohTylpnIR199jmBWq+DLEIJA4Jw40x7P17c6+x2bKlr0ZCDlT7nutBwq6y2mvepR2wRceNjoXKB52qlpd54h/cKUAdQp5g14J1vA+lf9/0zbGSWAlZD0UvfrKWecnRw55PNUr7KYnBXitYfjrzudJRKefBcK5J8+KGHeYJHKmKWRgFUUDE+7i1ixix7QB/H1dvmdDrn3HOtCMgmvQbUfddhk1+WOqDuC05MRlGquFdaShy6DGH1eWqpX2Il6kpQb3yC1/pGDrhkiNr8U0gjC/GWtlO+7bbbTK5jZgtvVKYpEVXZ2dLCF8W+S6+Xz112bcw5M+Do0/csH2P3PfawmsHHtkU01QD11j3xtHOmHgf1zEOOpU6oWwYEb1tdRDg9CmfAd0vkKnWSuvWe9FMBFyp6UDytxLvIZuPcFGHeyfhsWeo+ZmP4YG6UxDO12mIQqI8ZfW446ogjwizmIGViKauOy6ZZdWn0C4sg1AZFkgfY/X5oyT3nm8W/3gbrl6Aea5SWgl7tg1hxZ6Tkreeffz5stMGG4d13381DfTP5gMZBXWOYOHUkIODlMdQ+t93XsZZfsfU2P8t1n2pZ6tMOFLfuSXsc1LMtFxxs9lB0LtERO++8c7jlllvcWSbOLx7gFoMSJpV5nORDVG2d1PqbENUCv/e974ULLE2ZkEYZjIRbuf56ZjIGigtXMSY73QM5qJ97XjjaQB0RM8Itsb5Fu+giHuJFcpZNLkIBmSSAOpPDY+/NAfnbCy4I66y7TgnqJajXNTbTyKEcfG0sXX755eGgkQfmxhRjb3rsLSjxOEfT3yssq+TKbhRFioZxC6hjsGGczGlhkldZiOriSyyR7cqc+Zw6C7quBykPmqoFehzUs06lLmLMVsNYNsA6+cSTnFdHplX8rBwvAtnUOu/IUs+A0SrOG0873sCTAtcAK7UoF1l0kWxwOVeYtZFfw7MXO+YOmxlXKf1y5K/MUo+RL0ogSsO8cgVGT6UnRIxZYIuf3T9FC8YaR3nO6NFhw403KkG9BPW6hiNzgeE+yaJZFKQAh/7L/fY3p/TFYfjsc2TaPMyDJi311BGLL2XwjEPCWPP/fHWppcLfjd7J1CAtkoZdQEm/1NVv9RzU46Aux577YYjmiNoPCPNvucWWLv4kx6GXRnSgbaNh821h+6ieZbPZwFLiBNYwxahPEAVjg5sRTBwuUgIMNul4awdRT4PWe4xAHafU0Uce6TuSlOdMZXdzTp1nh6LCbZWLeIUwzu4XTn2DDTcoQb0E9bqGoNOdNuAnTzIhLYtOwZf14nPPh22tADSCeqI9oUZj4nNDnHpqqU80eQCMKHaZYz/8KOy6267Op+c6PtGA6pItcV2t0b8O6nFQT7eBgBdgh7X60ssvha222Cq8/OJL5iG31GTiW20QeqQewAYFg2Gtv+sIrSLxAT7awwFtgBGBsuoPfmBe+EvdUTs9povz+5l1Ln475bZb1f1tlvroClDn/F40JIob5eAen5dQsulIv0aILCaEfGp0FaC+fsmpe6jqpeZULTn1DkZqpD3clcXcstjzv/zpxrCbyVUolDjbsmY+r0ZfqmPAv4A5xpeyVZEGwGemeVatbkCj1yuPb2uBHgf1bNy0URxKNuL9ffbeJ/zeYlnRDGGrlm4DFTVRj6Xu2W9ch3hbknciIDqtYQP2Tzf8KSy59FL5jkAFKpTh1pWW+rnnjHZHKTonqoBUrVapHMrEDPv6BT8Zn6u01NtqlJagXie8sTOOnqkpVDPy+ba3qzISicXYz8c/xzboKPUZ7eJf0xtNSFTbQB/fnPsmS5Sbd955c3mI1HBpL5qmzieb5g/rcVAvalDQI/DJxCj/9nyL4T700DCjOTKd28MyFf0SB1o9oK5FA2qFuGcAUcBN5AhaMyNNMApLQu9Le6WYydqqEVPLUi/qn+RRN8nEcp5fehn2O3H3paU+2cdMCer1jdA8Tt3zGqYPr7/yaljzxz/2CKwMj9tKyzUT+ZXFP2TLBj8IeTG/vv/974eLLrrId6JFirG+Oy+P6qgFehzUq8Why0n4xOOPh59t/TOrkvN2GGITlq1gxgSiCpQp/enV0cBjkFIHlQrm0C9yvhIJQ6UddC5mmXUWf1/ZdSoZp2M7asxGPi9BPUYVVQktKuPUM3rQI0+iLHFH47vW2CvOr/w4Dwyw69h8mAED6rwx4fDDDrPiJLN7FBbf60xJOXUr1AsJRuNMj51orZNPOilsZwJvimirt6h8I3NrWj+2x0FdVoEnJ9j2TI5SURAbrLd++Ne//hWGGT2B2psDuVMQGSjk4VXtceqR3vHoGfsPpxCSrl6AIiZekIb+Y9OhYEDjJOJVldtu0YgpQb0Edfw7+EMWWGABL7G40CIL5xRcq0C92nB1w8U+kDMTPZcNN9ggPPTQQ76IuBJjKy31GFkGuF9z9dVeh5bxL6OJe2x20WrRdOxXp+lxUE8tCQaSrGI6ncFFaOMZZ5zhoYjgNvGuiEJNROnPLO56LPWsAktm3bvLBw0KuHWoHBvEH5kS4M+22ir8+uST8hhxZXSmolOt7PkS1EtQ7w5QL1rqMpqoRjXYjJtBg4eEO6x8Inw60WAYNJqDaeGKRsd+Sr+gn/7+hx+EH/7why5nQSCEpLW7Igih0Xvtb8f3OKirQUV7oFKobR///vfh/4QNTTLARX8MhJV845aGkpZcOrwdDz2RI2aXYN0TOeMi/66PEiNozJJgAbnJytwtuthiuZOoKy2JEtRLUO9OUC/WeWXeeaSZKTAeMnKka/LPYyJbjHkAXwXQNS8bBT4HdZytMXmPugX777+/+68UDFFy6o22an3H9zio5w4bnKD2k1MeCH0hMWvvsTV88MEHwyxGwZAQQZEI+HGnXyg0gQ3fHqYrLEuWOolILiJEuJUlJJnlgIY5Vc1H2gBXvUSJiKU6LPU1a8dHlaBegnp3gHoqr8t45geA1/uvvvxyWHftdQIVqrDS01yJzvDdstShN5mzwyy5jiLTK620klOcTn3avJRoXxnW2DFm1HtEj4N6OoikPwFaA7pTJlpEg4VCEfZ30IEHhvnnm8+cLUa7UNQYCU+X83Rk9xTkmq+KyJEsPMtVAqPj1RkZo3KGWz1MSsrNPffcud6M120k+45rtepl9zPRkj4Y0DxbmnxUT/SLKxtG6V1+J/pldD+NUydrlqzihgW95pwrfEG2JKF47fSbLFGFjBImyjgk+W2xJRbPOW7lLygaKktmmy5suuFG7vOBYsiE6TIHZ4WFW2P8dQeop/RLSqtM+HyCKYPOZCqaJ4STTjjRtfjfN6EtjkE2QwVaaLpm+O7c/43sh/Xh/1tuOQtG+EOWWxGdsOm5m7lGq6ZjfztPj4N6e9EvnnFmYP2YVUPaaMMNw+es8GZVM0lx7pBVqVe7gyKNs42jzSe7nX9KzMykgv2AwQPMUj8w7GEKclgzTG6BugZgGlPf7NZUW1+BekWceqSYtIhkT5jJF0AbIbvroZ1WCMNfFP0wyupsMkqVfISvIMs7zQFGXCoiZqedeloYOuNMmfY6C1qSBp4q8QkQfSKyBvrlsuzDs846K6y55pq5ZKuKR+fXtYOl0ni8iTcNn2N4JtrGeRz4LAKJ+8shN+uY7EocZFWQYlk/shEvMZnWbybSu/lxfmhW45Yd11577eVVrSjDFiZMyssT1pq4ugdvi0gVYFnecccdXhA553wToPYqQHZCdIE23cBA/f4M1DM7IaoaxigqPQsWqy/G2UDyxUagPv/887ujdGGTq1D5Rl03HdcNAV8c534ez6RuW2w0ll977bWwzk/XDh9blidGhiQ5FNqb8t0C6dg7lc2pnXDsN0ly+CJn7xEmyS4Y+gUrHYqH5xR/r/up1Ufl+421QI+DeoZL1Ops2xbS6S7+QwYoafs2KPa0kmhY0fMa70fkCkCE9noxUafq4yeCREp5JmpmOhvoTDPn6Y3OGffZ+LDiiiuaM+eSMHz4HG1JUS5OESdszK5LLbyGJpsP/DZLfbRZ6qNMJsBFxeLkIOzSt6U+ET2AM//MgcEt9RnyCAW0bEabMNj6G66ftYdZ8dN5JYO21lAbn3jiiQ7qM5qDLFsdaXvANMovCFPjbiZuaGLxjayP0PCgchSFiRV+6oDo0UUkdLUVyaipp273ll0T9NfinAGiR17Ye2jFEwZH21xi0UkrFopkpLs8Zf8Sp37JpZeEedxSh9Nti5SqNjayfsz6xENZicCy926//faw+JeXaKtyT2hhXIyyfaTlOtjxm2Cp//OfDuoUgnBQdkNBj5UtyA7ivBd3ofzN8eyyFlxwQQf1EQsvlBeMUPRJZyiQDGPbYFhqpz6/7LMxY84PR1iBlqE4R+1vriXqURZ1h9SjHlTXUUZ2XMRoywG22P79tr+HhRZayOeynklRNi3dBTeGf/3y6B4H9WL0C61MpzvYe4ijDQpLYT5/zJhw8CGHhDlmnc0nnicoxeM6XOlTSz12o1MwcTEBOGZE4MvOOd6K7J5jQLvhphu75jo0h4p4cF9y5Ko4csOA7g9moD65jX456vDDbRGZ0yusA2RYnAD1AM98tePd8vYZmmWSYs0jtmSfe+UjW/zOOfsskwmI2i8FSx2AELVFod8zz/hNmG2WWc2Qnei435GlTh9wA7742f3RdufazoBUb23TAbXcSgXyoqV+6imnhKOPPtrK2Q33ls+zegvx11okeR5VqAIQiNDgO1ddc7UVDF8+L5KRWuqcl35DP4c096uuvCrMO9fcNkas/zrgX9g9sHCygJKzMGyWYeEjcxTec889DrZT9TNgRY5EXDOhXx64/wG3OrmHQZGu03mzh84QPnP2W2sPyDSIsGQ/tzFGduXVFuonS5220CKVok5DY007Uq7NQkJkWewXxg3WOTULnnryKR9nsp41ToohjamlnlXXbXup7zIbwQTnWBzsuYbaYgyls4GVpzznnLPzjG3p5GO46NXQs/VLKG7dQ/U4qFd7lJTimGRiQGwfERnaeuutwyuvvJJlfdrPdPDq0RCpd1BocGZzLfuywFrFjpcz/u+3VhWJItA++QzY5djUAO6U595mxYRJExy8Rp91drTUh7p1Pm78uDDErGhx636D0erJ1gOb8PwNtsRFCetnjC166667bsbp8iGWMPRV5HlVzJmKNqOtMAfZte44s8+xIKGyHIirWupZ0pfTBnb+QUMGu6UO/aKoCgqP+C5CNAXRRtZvxx57rOvWf2nueTwme6ABiIeWJtfx+42UxhADRUkQM/lZRLHUL778srDCN1esCurs3DiW/sNS/53Jus46bBZWoRxQa00ZAR0gzTOy0DHmKOlGNIgyi/3xs85g5GQLmD3zFhtvEu68o5y/QwAAIABJREFU406n6eg/7TgTtHLayfvTFl+3km08sRhyLAsJ9AugjqUuQOdfGTfFql91Tf+oTe3hvBFs3Yihv81IOtfG3Sknney0CzteLxQe/UbVaEVJXStDNN9bRUpJ98tzYiShHspYZGyeM/qcsO566+VRL7LU9XzZ0EqXibqesDyoRgv0ClCvcFbFDpbDifuWyNe+++4brrzySq/I4hPEwS57sro59dgQMuBkETH4AFkGGtbFaJOy3cgKU0OFwO1qsgloNIGbirON9AvnuvjCi8KxZsmy+5CFmmYSxofLdxWAzCQDCaQTVK2GyB1qlH7729+uyERM6QnF/QP+ADvA6pZSnOip/ALXlDNZU42CHNzfxxbTP7NZsxeYfjsp355EAlUEWCRcuXZBp552WkBaeIRZvVjAg2NmcMb3k9mbWcrZliTrRy/1B0cdf8dxfZ4VAVlu+eWy6CijyoqLGs8KJwyoA5CDBwzMgQXwrfXKdhfZyzX0WQ/teJyf8PIsKn4vVegXzvrzPfYMf/rTn/xe8few0yg+m9rChbNsMaVttVjRJl/+ylfCDUYtDpttVr8PgausXt17Q8CXmNYaB96uNuYY3xsayL7y0isG6MZvJ4lG6oN0By1fQ2SpfPFLQd3HS1zQlURIX3xoce9ka19zzTVWkzQLPshlpJPn7HD+1uy98oNqLdArQL3ajRVpGQYDzitSjLHc2OpiYcJLNgWscSAWB6QAZZFFFgnX/OEPLh0ALdNeab2GJlt8WFmA9959d9hh2+28Ksynn37mwl68sD7zzD7n1aPFBfjYsQApLynf/eMf/3CLr1pbpPwsbbjZppt5hq6/H619x4AaljrXAdR9J2H3RZEDOFLA9jMDPdrGQT2x1FU1/s833hi2ssSuOY1eyqxVhNkyJyFAmTry3HI14KENWCz44QUwXHrFFWHeL80bKQyAsY0r5rwAyGyzzeY7iOOPO9706YeFSRbh4YBRQRZUjjZfVPDnRHqCBXzRRRcN119/vY8ztWfKbbv1G1HtnN+cGfBTcCwLHm3hPDTjK15bVJG/h3PedyVf+HO+/sYbYZVVV3WZisyX0EY/phYzvzfEPRfoFxYW57fNSueeT7J0fV/Y7X59N9xBdFd79IvaiH8Z1zwXBgdj5YBfHuC6SkStaaGmB+QQ7qzPoIT1qVugV4O6qANuW4VxN4gx6wAeoO4e9li8WuBarxMzpXl82xi3+hI1OtScSDtbuTsWENUDTXcQOdXQ6NYRjjNuycd9Mi6s+9OfhqefecZ5/RSAvVoMdAYgaD8+edg12H8sNFj6FPFd1UABkaRUkz2daKkVRcQDXOrrr77WRr8ANgBRBHVvF3eetgGnxxsbyHLeH/14Dc8MdK4eDhUrNgKZ2oTPqPv6jD3XFlbz8iWjz9AVoaqVV5YvviJtw3fk0KOP33vv3bCV6f+cesbpeT9D66SWOv3mlrItOs8991z40Ro/yoDcKAUfE4kTL90R8HSy1KG1Bln7v2xx24eaiBw/6ut00dYC4ZWo7DnuufMf4WemQa4CLl6uze4n12zxVSULcaT0IDtMvsu16T8Wxd0s2uqwww/LOWe+wvc1/uvRfynuduOKktH5gCg+GDvnm2++GTa2SLIXrD9mnXmY99/kL7KC4O29aoF6anzJSmeuMIegL3//+6vD0t9YOitbZ++nNKYom2aNshLQq7dArwX1FDxZ/RkATJgrzGIj5HBOiymfYpKegHo2b9p00OsFWw0mhcNJHZKBh8VIuS1C6UYsNCLXqtAWUg40XbvRASY6h/Occ9Y5xj0f49aenpUJX1HGLwKQTxzwKsoocJ9YXZtvvvlUMdIpKHAcL9rwZONSjzMKhrh8t5iwUgGRyHUzwQ16nGfXYgJo015YmpdcfmlYzarBc3/+go83WoHzKLSRt7NokelMKOrwMMYyFodZyb4sQsZRqwI00wXWFwu7L7bwgAOU2/dW/r5blNAXaV9zKi34WpRxlqIxMps51dPoqNTyTYFEFBx8OgvJH2yHtswyy7Q5ganOE18V1zak++STj8PeP9/bI7Pg4GUQ6DgBMtceaLTRZEoQ4vy1v1ng5rXci8ushByRNk7T2HhII4rS63Y0xiqMGVrZPZdtSzNROSccc6zvZhhr2WfZAq7on1rXqAfUNUfpB55h7bXXDmcbn54HPsR+VfGZisWyUcOoo8aYhj/vtaDOANGW08EkOo7eeuutsM466wT+pawb0QQ4e/hc1Vo8ysAmRzWHT9rX+lxg7hwuyS5msTE5CTfbe5+9w6GmXiexMZ+cide+WVCHmPRsWAO31155Ley0047hsccey6kl7kWhZ2ybdZ0JE00e2ECGe4BLp84qPDkAyPNX0ASyUO3L3L/A4g3b8m+52ea+O4CGcUecfT7QeGgm+qeffZpRKjhlI5cOj8p2mol6zrmj875x0AI7wGn7cTCL4I7MMe315BNPhh132CGwS5jFgB2rcXLsT/WtwA8nKRa9t7/tkKBufm2LVkbXtIGPLGWBtvh37vuRRx4J2xtN985bb+e1X2m/dKHkOBY6PR9t894H74fDrK9JZeelcZStQZmypy+UWOk27thlDZ15aLjrH3eFXaymLu1DHyhj0ummyCN7u9jOAVXEIZb0A1XDjmW/Aw4I++73C7dkeSFRq92a0zgFY6Um6KZOau4RJ3HE9UmuZz4oPG2RLpvYLu2dd97xBXayve87LZ8r2YLcKKhzvBZI2kdtxn1faMEGq9rirzBbzed0bnc0R6dhbG760Xs1qOupxD/LaXWcJbOcbiJfc9nkZ/AyMKQnIeu0Xq5uqm1rBCUAgOITc5v1dcWVV4SlrK6iIj00cJuKSogPJV6WzL7BFk3y6H//F7bddlunD0aMGOEAkUeWxAnLV33bbrzoe++952p3JNp86UtfcoCSuqTaTZNIFnUa5XO3AdGee+7p55nRrFPOOf6T8Q7IcNMAKg49wM/5UWsLsgIvo6rQvPM4xaB6qgADgIBhmO+SuNc4yVmA/mERIttvv71bp4iz+SIQrXXtyvgXC5Lr4czbZJNNwikWEkn9Vp5bgJc62wS+AhdZ+FdcfoWFUh4VPnj/A38eaZrQBgJaJb8AwrQfNV4Jvxw+fLg/P9ywFsIU1NV3fPb5Z587sF9+6WXhEAu51TNo5yEqyRcVu/YQWzgJYxxvUrTIX5x+5pl5qKiyop3iiZx9vaCX7mzpG/lj3C9hjUcf7Eegge1057PdAe07xITxHGBj9TC32Gu86rHU+aoW1+WXXz5cZ36J3LiKSX46xsdyYSFqGsXKL1a0QJ8AdYEokx2L9H//+59bcB/ZhCUBBH6ZCaptuOJgO3T+VBlUqibkg87O/bFtrxEUO9Mmn7aLsqKrca71ji9NevHU3P+jjz4ajjrqqHDrrbfmljfHzWTP/LmBPxY0zwYArbLKKg54ALomiLa1ui+BunYZikXWboP46lF2PVLiZzfgw1IHcDkOUGOSy2G5yWabhQORarB08s+tHzwtPlqvzhkzoRNQ98kbG8Mji+zc/3744fBzW0hefuklS2CaMUywWP2ZLLMVSoVn06KDhb+tWdrw2gAr7a2+VB+o/QTqfM4PPgYWG0DszjvvtCIrh4WH//OwW/8AHffETofn4lzvmFY/C/f666/voMwCULQk03GUUnscx4LgDlWzyH9nCUTnWLgoC7Pafta4IHkEl9Evr770skvtbrPtNuEXlmGJ1T5+3HiLZkoLrLc5YuulEtNFRBa+FnPa45a/3RJ223XXMCkWgqEtJlkWtVNakV5K6ZDiOK4H1OUkRUcG5/E2223r1yAu3s/NYxXAvd5Fq955VR5HwEM6O3pZi6S3llqtgM5BBx0ULrVwQKw4JhYDV2AksaDUKqj30TR4fUtJcpMNQhKBAHUcjKmF2sz50/vQthXQAzh4hg8/+tBKil0dbrSoEcABx5Y4f5JUiMzY0BxdRAEB1tKF59lTVcni8wrYaRsHNDOVBw6x6733frjWQs6uvfZav96HtlC6tWsgM4dZrEsvvXTYYostwpo/+YnHp0+wCB3irAF1WbFZab1K+gWgB0A5ZnyM5CHd//133wu/tfBEonCeff453yl4lqqBDGBHpMsORtWsvvrqGYcfaZoisKb+EH2W+kZ4Bs5JXsNVVhLx5ptvDi/ZYkKUjCzZxRdfPHxj2W+EdddZ1yk9vqMFUufkOtXiqQX88oHwPa4HhYbf54EHHnAnMRQZ7Q3wj5h/gfD973zHMn83Cqv8cDXXpmFsDbUQXdczMk+1wK+dgJ2qQ1ntoXoA3t/Wdiw27CbWtxBG+neoLaYsfBhHAC67ROLKOzSAkquqJpIWbV2bc0ArsYOkDWabw3bSZIUbqLvFHnMX6p2L5XHNtUCvBfWcv4zONk04HpMBAm+6pYXmMYjYLjNZeV/8eL4djVEdap6Oyt95DG7kook+8eNtsBIueJ2FnRHG1x6Yt9EPbVvoal2TLliKkRcocQ58BvzAQ8sBiFVOliPWpJy5tItol5Trl6VIOyjOP+U+sZqwuMmAhNb4wMAWkP3ovQ/CWAMiIhfmshDCrxrIDjKA/9zAHItOhbtTaxYH4wCTcM3DI2OfcYxi6T8dn+0y3Fq2ReDNN94Mr73+mi9a3B8WOW3MwoVVrUWcf9NnVNvrWcQ/877aT+Fyis3nM67zuFXS4j21Ddf72te+5t3D+7pOakDwWTVLXeAv2k+Lpjsg4/WeffZZH5ckr81qGbyzm+N2ya8u6RmlEwxoyYiGiiECZtYYo94RqE9FFzJeE95dz+Ka5US82LVPPfnUMGrUKG9XHOzMF8bVHLNZO5ulrhin9ix1p8ugavAT2L/OvkfnpuYa84/nZQe57fbbZc9o9+FgnvgkmoOq8lv1tkCvBnU9RBrBoMgIBu0vTNj/0ksu9SQRwEMynuLTU/CVBd5Rw/gAT0AdjZVB5mRisO6y6y6mlXGETyJxhUULJ590JNe0Gx+dTSUsK86h3QXPCoizA6n2csuXdHR7fr6nELGi8zb9rnwSmvDcOw5mFi04bhYtnMPVOFWce59CxdgzDzHrzp/PZvREc7JJ9x7L3UPiaLc4eeVy43n4PrrdTHAWDDJm2SWkFnB6v3I4yqKWNIOesQhieYJQdCzKWhWnL2doNWsUKksgr+fRuEl3gLq/9NoSvkrvXfdcdddkbUm7ff75Z2YhD8mzT2l/2keO89zr3NFgjZ+nC6wWNO1w2DkgraukOehKjQcosXEubZBF47RLv9C3cfHwkZ2xKXlSHG1Lvy1ti+SlFs1DJJAbYnYQQnlOvUhboc7nKg9rrgV6Lahn2JoNtJQ6ALxFNfzHONqfmXQAgDsAPhi+2R1DpPaTjm72BQ68tnDrtqrotX1Cfl2f2ICf/Xw87hMHrRkMvCh75+F8gJo5F5Vxyt9YvLlFkji7anWNnk+hi+JCOV6TU4sY9yFQShetFGyK/Gtq1ckv4QBGJqdizKN+jgNDDHFD1phn9/uxC+QRLrzv4Ytt4YjaBWSzPE582o6+I2UKSsEms6xfzjXZrENZeSnfn/os9KxKQKpGqen5ZC1rgUvDTWkf0Tj8LkBTH6tdtQDIH6P3U79JCnzp7+or9b3OrV2SzsXzTYzWa5al7KiYRZ3Y7/XQL2mfareifs/A3Z43hgATFbb1lluFf5rgGAuqK46iFYQui+nkjP1orO8QZFh0BCHSq8Hypg4Buzba69NIH7KgHWnidLvtsbsZCxZCa0NiACGosUJZ6gDu6Frl5823QK8F9XTwps6x1FJiUI8ceYCrKs4+u8UkG3+HxcN2lgGHLFiWvp5lS7q+BxLsir+r0m6p9eGJGSTRRJEtKsKwfb7mD9eG2ex67gRykMrSn92Cx+nkqYOZU6gjQK9mIdWymqq1SXr+4ta8lpOtQvI28YBlEc2ZFeYgE3cb/m47i+BUzxgXxYzqisAedy3ptYvPWQRNX1jjhYvP3l5b1Pqso3ZNDYl6fs8X/8I9Fr/blgjUZg37vWQPqNTTumZxtfDBisgvMy5cCM2UNM86/Yxw+umn+y5WORAyHLQ70djtyFJntSDEFac2oZCMbQwnTzSy+cY1F7OqYVea7s68Fh2V0n48WEm/1NW9LTmo14J6OjHSyZNaQeLWcXLJksMx4+F1yaRxSz2CV0ecOtdNnXBwiFRtedv4bbhInG1o0Bx3wvFOK1AvlYnhKoUxtM8JRzda20fCIgirR4v0QvH9ej6v1n75ebCgxaRGAM82Ftkfjsnx7wyE25Iya466xFLPryPrE2CP15PeugBb/Vn8OwXz9LO0TTtqv2I7ddRu1e6hOPaKi4zaub3v5ot8wn37vWRfzto6tlG9nLpr7iAOZueRTwbg/IxYebPCH7j//rDdz7YJY83nRPSUQivThb4jIyHta28H1p9Y9B1Ahy6iDgG0HA5frPTtdti+bacb6bC0bTpyyLYE1abxk/RqUK/VN0VgP8ASOIjX9thcKeFhHTBnoqNUlno9oK7zY6WzbYU7VbgkwP6mJe8QJ7/5llv4NlP6M5keC5yzrK9GzNseGomJpd7uHSTg30N32ncv214bN9iuAuKUlhNQK0gApze05EMPPZT7ZkR/yWBptDHTxZekP1fcNC6eBeN9C2FcwkTJrrPKRrPPkdUhALylzV5vzkij91QeX70F+iSoi+fU1vGFF14I61nI1rvvvhtmnmloTGdvkxIl3k6a4SpA3VHImIey2cD8HFVE+yHqhUw8OeuIJCC9e8kll/TrYTVlg1kWWGbt1rIyywFZtkAzLZBG/cg/wL955JSd9NADD/KxCeUCuPJZCuYd7SCr3hf0SwRr5DkwjlyVkugqO//Jp54aNtl0E/c1kXGb75wJDY7UpOZCM89dfqf+FuiToJ45hDJ+UglJyMmebYUiZhw8Yz6ACcHK6HPb9JOWj7mOo68dTj3bEbd5VifGeGecSYTdEXnCZCHW95vf/KZX2Rlq7yvkj0gCn0BRdErnq7Ztr7+byiPLFshaIDVo+FvSB9AiA00X/Zqrfudl43CEYimnsfudsZhTX5MKoMxgO9M3LDRyLROkG2O5BzNZ6KsrXqLEGZ2o2iF05tpl3zfWAn0W1DXAlRyCFQ23/torr+YaMPDqWAxYDw7s5oWfjG5HB5Ep8vJ78kZcPDiPwiZlcZBqvd9++4XDfnW4X8M5dRJzzGpPwzBTLrcpK6mxPi2PngZaQJa3MmMZcw8++GDYafsdwmdmgGCEQEcWE6o6dIjWbLvoa7HPyYwda5nWM5t+DNc/++yzw5pr/9QDBxj/ij5KAV2nLcd/1w/OPgvqHh4WE0loJuK2qWM5cv9f5oON7DkSbABmYnLhutkqQpG0JbFP3chtDqyscK7i1nUkE0OJTvxOZZ8tttrSky3Ylgr0FTcvz38ZAdD1A7q/X0G7SO1WFaqKUUMm7kMm/YA0gcC8VSCabV6zHTIFSNjBfvDRB2Ebc8aeZqqPeXYxTt8GI3r6e5919/P1WVDPsPYLT9QBYAFQ0tG3tUF2pxWMmMOyLnmRAj3EAH8icbOuQuexhu2G6KVRASSO+xJgA7XIZ6owAhmeF19ysdExK3kxAMA7tdaZYGU9xu4e2v3zeqJfGKNpDP3PfvazcOOf/xwWtKzjT01LxvM04hxJreSmLXWKe8TMUKQi0O4ZMtOQ8Ocb/xxGLLaIF/lmUnkOhEclVLebWrXI9M/ebc1T9WlQpwkUqqUU77usaMFW5vmfzdLcX3/1VRe8ItPNnaW2NczHWjvhhmmwQrF0l8Ad7Qz4dXGaXOca009ZcMSCeZ1RFhwpASo+WFZ8a7qvPMu01gIC5TTh6VdWzAU9HXw7EylYTsm8aIi0qn3y0E4zcVCbpAzfQQcfFPbZfz8XCUNP38MV4ya4o4Lfrbqv8jxTt0CfBXVAUlvMYvjUgVZC6yKrzDO3FYGQJsxQUwP8zNKzsWAqKr1XGRXtgbpAWeFjomJITEI5cfR55zqQA/aKANCEUIRMeslaCULlYJ2GW6Ai8Stz2ufx/XFwem6EjTGEs9B/Z7f4icWkY7yo6HMzMeG1Yte1K+CcZKJSn/bCSy92h2y2+c2S70pQ7/lx2ydBPY0A4Hd+AFIiUtAVQRlv1ZVX9kHOoPNKLJF+STW5azV/rcrpGCFparY0RyT7i+ToBqageO6Ycz27VaFcTBQBfBHEG0kA6fnhUt5Bd7RAWyZvm36Q3tN4B9CRTN7adqVyiOI7mtEyqpGuSHeGzd5zGgUmY8Z1dMxReu7554dVV/9BJntgDlnkkjPBN5OQsPCy6RFpb79CXrO3VX6vgxbok6CeJh+lsboMZAYVmizXmHwtleURqkKtTgWBGZQdUSAdWepEuZBo5PrfOGKjTK90MLaw0nJknGJdITuK1onfV4xlL0bDNM1zlsO7f7ZAYqkri1O0n+8MbUzd/6/7zTG6fXiTTOc5hodPTJ9osAE68hjou7j0cUPaDllT1jIyeJ/xi8G0k1V5OmrU0R7xhcqnyha6me7lr7IM2Y5yQfpn5/X8U/VZUC8O2HQwSuOayj7Xm1wuW1MHc7aJMQa9vQFfMwEwhjcqOiYFZ9EwXGec7RgOM55zL1ORdMEvW2RcetYWgQEWS6yXIga0TW5mEvb8ECrvoNUtUJEnQZggPLZXprLyebPMHJ547PGwjVno71iyHYVNJlqJw8xJmYVeaRw1M57S6Jp0XCqjGrnia6+/zhcSDBZUPD33Q9dmYYh0UQnqrR4Z9Z2vT4K6LAoN4BTQeU984/PPPx+23HJLrxCPRUFhZe0Imxnw0ZTJ1a2KFrZnlprDiAn2wYcfeKjjDrvs7IlJWPZsUUmtVgYq98mPSo81w4HW183lUX2pBUgkyqR0LOLEaDxoDQ9dNGB/ygB9p512cj10xo3qrIpuSaO0mnlm0YsKlZSWPwYI17rgoovCGj9eI8/f0BzMDBRmF7Vck2zuZm6i/E6nWqBPgnoRxIt0hnQx4LFxJI0cOdIdpEOojWlbRpfjbafZ2rPUU4nZTOiqLfvUB7j9yTb1MwttxEo/xuqpbrfjDm5lIXw0eUpWXUcSr2WoY6fGb//8MvRLlOQF1DEGBlu25uNW7nDP3XYPTz39tBeOTqsuCdQVv94sp55HucRABNWMpRjNXnvtFX5ldV+ZX7oOhoikCPR7MaO6f3ZS732qPgnqtZoz3TpiaTDoCT38xS9+Ea60kmY4eAB2hLpabRXnk8EmJFvVOeYcHt62+pdEBRxx1JFhR7OuPraoAUrC4VhVSBrPUtIvvXeC9MSd+VjCVLdxSkIbgP70E0+GXYzLpiQd/qE0Xt19SZ6Dkb0646PRONZul7/5/aumcXSpieYNHz5ntuCYVa6FIw2v1D00vRPuiQbvZ9fsV6CuraO0J0RzvGGqiptZ4eSXnn8hD/fSoKtm9TfTx5oMVBTCdid8kpJwHxu/zi6Bos0777KLO7mIbwfYtVUuFnUoXr+cIM30SO/5TnE31+Gdxa2iJDCef+bZsLMZBU888YQbKUpsE5gWx3JnwmTTIAQWD+gXfFJnWUHt7638fVtkJmSVkih+Yv9xjwpWYGFJhcM6fM7ygC5pgX4F6gJoDTQGpQbcLbfeEvbe8+c2KK3WJlrQSRRMZywb9YpbTmxFbUJS9xEOHw4SJTsvImCfIxG8+557uPqjim9w7dJS75Kx3WdPmoYtPmsW+pZbbeX1amWhp3SHLPPUQheoN7MbTXe7KoG3/PLLh+v+dIM5q77wsZ1FdGUhuyoSw5zqLJ/fZzusl914vwL1dPuZcoOAK06lU08+OZxy4knObTMIET2CM5TUAN9v1ip2jhEqJWZIe0QAVIxNAoCdF7zk3vvuEw4++GCfDAiEpaXOal272XvqZWNtmr2ddCwKsNMchhRI1UgA6n333Rf23mNPp/HkFK1H7bAVlrrOoSS7DTbYIBx0yCFh+FxzurFSwZ+rLm1CAZVjtueGe78C9WKMrf52h5JRlJ9+/EnYd599w19uusnK0Vll9ejRJ0EJgG3Gssm7DjCPBQ88SYliGdpG8zcJUraYvPv+e2G7bbcNpHZDz6TceprYpK13K3YRPTe8yivTAiktyN8Atgpe4yiXtas+55ibb77Zd3bjx37sVB3Hy+gQYHYF1ZEuQLK8FZ9OFim66QstsrAbRKINPTDA5g/3We46e37M9ytQ1yAXtSJVRJpZjh949W1M/OiZZ57xCAJerbLUPeHDIxfs/6KlPsX9XVkRDWiYmYbOFJDsXXfddcPRRx8dFlhgAXesMoFSGYHOWFs9P6zKO0hbILXERbfJ0ckYpf8xPORnIWLrqKOO8kSfWYfOXFGKTs5JjfFqLd2ZsaM5xD2xO+BcqiHwoYXpfuP/LRdGHTMqrPStb1k+xjj3EbEwyVlbGiE9P/b7FainnLqsGr3HoCPEkHjx+++9L6BqJ+uCCZW/kiy8hiqNRUvdrXN7qWwepAw5rAoBQ8+dncGbb74ZVjYpg+OPPz4svfTSeXUagJ2Xtr16jp4fKuUddKYFBJaMA/Ut/yqpB74cw2PUqFFhzJgxbgU7h07yUZJUJPBMaZzO3Ffxu6mlLk6d9ygQQ5LTBx9+FOb50rzhaLtPKBlVXQLYZbmX1Esre6Txc/VLUJ+qGbzqkTky7T8K5eK9v+yii53bxhphMOb60xmKZsBMBin/+lsd1BvtANSxyD6lqrtZ6qrdyL9Y6lAxa621lk8QXlJ+FMDX6tYO76nx8VB+o5Mt0F6kixZ2Wdv0P871QQaI8ObQLXfccYeDOfSG795iRkVKDcoS1622chykoM6CQ7QNL5RO57D6ox+acB3G0MyzDPNQ4R133NHnEMdy3+29vLB5Hyjb28kh0ONf71egrtZMB6aDs2XoMZimWEqzpzV7cejpw/HHHhvOMIF/6o06oALi0ekjDXUlInXYUywcaBhl0jL575TQ4xyn/E0QAAAgAElEQVTck3Ojk7Ktdka1BNvajvOQMSQN0KphgjKhmUzlVrbDVu8TB6gf0xBEyTLzAA8//J9wyCEHh3vuuceloiXp7APHrPfUUk8Xhq4IIUwXJX6XY1a0kQcDGOVCAAD0yzbbbONGCVQmtUlnIKPaXtUWGomS9YlO68M32a9APXWUamAVB+kEs9QHGHDPYBosn1gyELKl111/vTktZ3HRrfFeBsy2vQb+U5A3jcUGOrSGalnqWdqpW/9ZhEwW3+sJUPYeqd9McBaeDTbcIBx6yKFh3vm+lC0ypIsbN5/VO82+zz3xnVoTpw+PxT5/68Xxx99Kt/f+sv+gAKcYIA62qCtA+8rLrwgnnXxSeOP1191xjt/FBePM6p2OzE3/XvuvDsdmgy2bUpYKXUQBksACT5yz3yeaccKdke36gx/8IBx73LFhoYUXNovd5AIovo5bSdEwqgZWWuoN9kRzh/crUK/VBAL2KVjsgGq0hglnfPHFF8Mee+wRHnnkEbeeNUHYSpLNxwLQKQBNAL04+XzyUKg3xvyyrf3GN74RDj300PA9izRgy8sCg/aHF7a2BQZA9/OwTnhZvvLVm1pA3Dky0OKZPRkOaQrGn/X5oBmHhPfffS+cctJJLmMB+CmhyKkZknrI2uyI8uuCB69mGHEZWeo8C6CuUo2DBw0O73/wflj2G8uGk085OXzta0u7Vsb0ZrFDL7EozGgZsf4qx2wX9NjUp5wmQJ3H1mRLY2xVZu5R09TAcUrm6fDhw8PrZjVBifhEMx32ukIdO7DUnQfNZkdFL2TLTFuEzHvvvRcWWmihsLcpPG666aZhmHGXk61UGPK9VIt3eigPlyxBvVtmSfEiMp8ru9L7RWNN4YmMt9Rng6X7oMnmHmORT/+46y63zjW+Urot480jEtZ4yM5EubTXbul95MEH8i9BycQwTPIucKDyjCxi+IdONBG7NdZa031XcuqmxkdPLFQ9MkZ68KLTBKjLUlfpO/GEGmD8TaLHbrvt5g6rWaxwL7ymh2rBwbv11LnXVDgQJwkFfCmGzTUlb8B9UrFpo402Cgcb17roYouFybatVejjoBkHZ/w/tEz56jUtoHHmNJkJt01vWkMqWMFY4vcLx/w2nGIW7QfWv3PPPbc7HfnB2aidmx6ooeirLm4F6BfoQhfLi5Y641EvIroIwWSHu99++7l/iLBe3+1ijBRkgbv4dqfp009ToK7Y4DR6QLwng/EmS0raZ5993OqYxTh2V1Y0vWoZZEXLqDOOTH13gk2MmWxC4BwF1KGExGNSIm+++eYL+++/f9h8yy18kcknSYGfTJ9JEyh1GHfmXqfVGVKkItprh7zcXNyNUfAcY4EX/fbf//43HHPUqPDAv/7pWkB8pvh0nOJ59FUPUC719G9F8EHMhlZkDAYQLxYmnvVVqw0MsP/qiCPcJ0UYr7dFpF+K47J4/a7agdTznP3hmGkK1DMLKit/pwnH77wvQP3973/voY5uPRlfOH38jjjPNKGpM4PPnaZ2bRxmgDeTgUkh6QAGF9dyJ6od+8Mf/tBDyJZd7v/5uEsXqAxHMl+Bfuff9O/O3Gt/GOjNPkPVxVD1DsWdRe1zv4b9jv+D9h5s3PlYs14vu/SycPppp2V9G/VS0phuHwtJ/zV7r135vRSIWZQIz9VcYNw61x6VUaFkSLD78Y9/HE61DFTi2mWoVBuXxftOF9OSrmm8V6cZUGdwpAMrlRYVyCsZ6WIrWn3kkUd6qbqZrWA1gAsdAv+p9OjOgqS2s9Av4lylre5CYGzXbaIwcfic+qeLGQ2z6Wabhm232y7MNddc3tuqk6rwNne0VQH33g4ajQ/drv+G2gyLWjkDaTQLlqcXtIiVf5xqob8s5I/XvffcG462zNC77747jBgxwqpfjfeYdMabqAtpqFRYwl3/aA1fIadfMIDimOUkSqTSfNJ77HwB9mWXXTacdvpp4esWAKBQXj27nK3pd0t5jIa7ZqovTBOgXrRk1QqatGlGqSoRnWdZfccdc6wV1bBydAaqADqOVBIwGJSp7kYz1oScpl/AU0a+UhNb96eFiL9xklIT8tPPPw3f/OZKYffddw9rrrlmrhtS1N7QxEkjelIrqfNDp/+fIfXFpH3C7+p/L7RsIKcKQfDIzz37bDjv3PPC5ZdfbovzAKPUhvpubEhSzzMdM31hwc2d/IzXbEOSv4o0lQweQBtjZP4FzYF64q/D6qv/yI0iAD9dxKTwqB2LdgCpgdL/R1vrnnCaAPVa3CiDRjQGoKiMOOlqXHrJpeE4S4dWsQ0GpAOsDdZ0y9wUqMftNk4nVVPSeYrCXpoAAuixn3zs9/qjH/3IwX3FFVf0+yIEUvxsupMQ1VSCemMTR+2uVP4UzJ0TtwgPktkGWMGI6W3Rfc/CFC+64LfhkosvCe+8846F8hGLnnlkUmna4l10dtfX2FM1d3Q6h6jdlYJ6LV8T45i5wnhlXO67774e1cUCyHdUDJ47UhtL3Iyx3hWCZc09fd/61jQB6rW6JLWMNah4j98lrnTR+b+1bL9D/G+4Q/GGFWFoimW3C9WTLML96Lgsv7VykuRWYCw6kIo3eZiYbe9VM5IdBBocZPYtadVpBDy6TyaHAKU3gHqNaMB2Z023RIFUuTFixdXPKeh4ZJQtqsgskzcw2cAdyu5S+3nB8h5ob7W7uGa1fVdkgXYH5KTNU7TU27s+Y3eISWNQjB1acVtTKIXalDY8801GUlpsQ+dsxmDqjvbozdeYpkFd4KlQQjqKgYdVIanTQQMHhfNGjw4nmPCWnKx8LgfrVIOvnWSjdCC0B+o4ULHetQ3VrkDWEnmGgAb3AW8JgBMj/JOf/CTsbCXPiHPXK+Xc00WsyLsLdIoUUPH9zliV9S54xQmTfq+jc9TalaXnLEYKVW0XllqXl8hUCtXnym1wLR+Tcr762mvCVZYVSt1QgZIsVByK4233BGjxkxoOfQ2smgF1tSuLI98HyKGhVl99daNjTvQx6/o3ZFZbW3E8NXwHWsRZR/3V19qvOxeBaRrUNejywRejYph8LmZk1vkUdFrMQr/kwovc6eUVi+IA9I4CfKMTVhxgPRypAijYylaAFhWUYqIS4J6eU+elzqnim4lvB+ChXgjFnH/++b103+abbxYWXXSxXLsjtf59p1Al2qLWfafv1/Ns7Q3gokFctMKrWfJdaqkXVomc66WNPHM3i4ySA4+2JkHsr6Z3fuVll1sx6MecTmDHJKvcs5FjNuVM5miHq5DfZrIx0p4z2ktDF2v1ncYr/9ZtqUfq6XMrwj4s5n6w2wXYl1lmmXCSZdQut9xyJs0x3ttExlSxGHtnx1x3AmpvuNY0DeopuIniSGkVf4+BaRYbWjHX/P7qcPhhh/mghC/FQUYkAKg88zDTvZaUqkTB2pm4qaVeMRASjj0fzBFccsedWT4DLLEF+QC0N3gfsOHeJ9gE+uCDD91a38yAfZWVVwnfX2Xl/BKKqEktdb6vSjxqB7ea0L6J583BLmrQNANKSQRgHvtfzyQQqJNq1Yilnlrt+n2qyCCkFuhi48bVBoAwUS0kEJHgNb1x5rxeeP75cPNNfwnX3/DH8OTjTzhwDzO98wFGh02wzGMXabP/Jk2i1FsEbh8+2bmdL44LdT3P3ZuOSRfbzEtQ5yuOZ9eOQfPGwoTpA4wQsrd/c+aZYbUfrGZzx9ra2owkO4payw+kMVjMMWlm/NV5x33+sGka1NNJ314YIFaxrLG//e1vJrp1iEkJvGGVjLJKLxm//bkNxAFhsP2kANjUCBGw68uidNgYRGBjsWFyeZZftLqx7JkEQw1oxo79yC33hRdZJCxleu0bbbyRO1ax7PXi2NQpm95rCupa/Iryr40+WxSwDECkdiicI3+m5Hc54gQmfIf3ZDHWuraep1o+gnY9cpBzDqJXvjDQdYE1BKooWGE/Qy3WmkgWXg9YWv/NlphGNaKXX3nF7wMAV5ijrlns91SV0IFQ/dTLY9Ib7ddax1dQYTEru62NrDiIiYKx6yX/Yi8r88iLGH9qHmDdy4fF4qmqSn3VJ9GqNq3nPNM0qAusanGsDEDFKAskGGj//Oc/3XmKCBiJFrwH6LulhnhTjA1oz5qo6TBMLPW8A6OlXkFDKBY98u8cKytcUTweeuk8pW35zfohzh3ddn6++tWvOs/LC3BXRiN/i99UIpQq4Oh+mrWSUgsvtdo7Gqi+eFUB/GrfK3LqejZ3MMcdlKxALcjssKDRsCKdKjHH58e2G7v33nvDlSa49dhjj4XXXnvN2wuZZqxMQIaXOGF+n8owiMtV1td24pik1Gz7ddROXfl5zfHazkUzgVIlxZFglbWRgJ35It14HP0HHXRQGGpGxydEy9hOOPV1cBnmoMIh+2IbdmX/pOee5kG9VkNrMKbWrKxXQO6pp57y9P0nnnjCLWLS+z00ka135MT5t5WvqhMr8pYphZJrxMRonc8oFGygzjFMIhKXVlpppbD22mu7KuQSSyyR3yYLg85VvHdZug5gTajhpLxs5QLVTivZQ6uKVD3cutQNeYY0MUig4O/HNuO9lL997913wzNPPR3+fOON4fbbb/d0dxU0IT+BhRunKQs5/3IeRXHUJfrWysHQB85VayFgR6kFlcWRMcnPhhtuGI4waYEvWVw7iX84mkUtppXA0gW0DzRDt99iCepVmlyALoDDsmNC48hRRimTmcQKZHJvuOGGTBbXfqZ3ed/q3G9qXaTA0qmIkgKo6141CbIMR5PutVJkKnLMIsQ1OQbH6ne/+93wve99z4F+EaNr9MIymmQ8KPy9on1UR9Wt3irMeAa8mRJKUQk8Oz47IrPU43H+duaU9FfF723HpedOtVb0e2YZZtag36+nfGY7EQddN5azSAu9PjKa6j4rb/gv2339+/4HTaPlkfCJWeKqX5tmPaqfOLcEuBQ51UrLsbjbSEGs+Flx7FSjFLsdVTq4oMY+faLwYXaFOKChCA80ETtqoGr3q4gjFRYRv652adsN9LYn7Zn7KUG9Bqg7MEdnoQYVE0gAwWeAAxbbeeedF84666wwzn6nUHCWLp7pYqcDrgjkrejylM8V/aK4Xw1+Epzc+mbR8dh3GG2fEu7sZaHCwl1wgQXDkkstFb5tE2qVVVcNX/nKVzytXdwy3/DiIXasizNFSqNisfLzVnelpe1RcUQbGme3lfoUHPAN/jHX3Wpv+2a6WxCAOz/u1a30hMZ/m5Nbrwm2OH9odTbvtSpDd955Z/jfo/8LL734koeGDjNhNfqXXZf6lu8p6UuZxCzoAvNUw6UV/alzFIGqOI5SqqcafdjKRaaVz6V5xb9qQxWu5p4xOOaaZx4rbn1MWGfddRz0VSpP481HrujHaAh0xjBq9fP19PlKUK/RA5pEslAZNHLYKIZdEQ38S0o4sbfvvvV2mA2NmM8s+9TwR7ouiqwQCGgXUEFpNEHXpAuFrHTfMUQHrk8A+zt1DqaRBan2CJNHevPsSuaxyfUtA3iEmRZccMEwfM45wzzzzlPZYrYzQTpYCnxOORHpUeVZvE3dhs+AOTfIsaATrjX9Xca9UyksJDEShXMVcwU8yapQOOSTsR+Hd997N7zx2uvhX/ffHx544AErH/dw+MwccoTS8RoyZEZP5yd8VZa5QhB1L6IBuAZWZQowKci0YkKn1raMiLSIhigkjZ1Uj6YvWepqNz2PEraogzrb7LOFnXfZxVVTs6iuLLqo6CgtjptWtH9fP0cJ6lV6sL2JIctYqc5y9qAnjQP1mCOPcuAgyoTzAA4CWem5876SWVREoRVbyPQciojBCC7GwmeWcEZFpFEZ6SQDqJ1+MaDnWeHhsdxxtn75y18OCy+ysAH9iLCo0TUUIS6+CE3LdeiJfJBlBZizc/D3st1Q+kpJG99doBlv/2NHYUuF36/vnBLrW9+fYv6Ml156KTz9zDPhdXNsUuwEn8d//vOI/f6aXwsO19PToaViJrC3FffFibg3+6fWotRqAK8GIGoT2ixPyonhpSy8EntLQV27ss5GKHU3oOXGk8YFO2DbHXpZScvH2HzzzT0ogfmiuaSwW809+rSrdkzd3R6tuF4J6jVasRqvmR4qZyQTDMsts/iGhHfefMurv2C5s413DXSzMhiQAD/H8rvXeiTGHQCpI669VmcXKZ387yJHHQHLz5Na0SmPDaaRgGUWEWDuESExsgdQZTIhucqLZ5nbgH5us+ZntypRC5glT2z8wgsvHBYwnn4++5nD4pAdzFtQdm8K8cssBGh5G82FuNqrBtwvG4i/aD84Nd98883wgdEo75jDk2In0Eo4NYdaPwyy5+Dl0TDsLNKX2iNGamihE4CnIJs1o3YabZEcraQ7dH7+FfWg6zJu8OXwLz9SD+U40YSpGmkrQKLV56hGQ2phZcxhUCBbzHPwfAjXnXPOOV6NTAVFBPA8N+eTj6N0WLvRVDCVWt2D/eh86WQT6CvkUU6fQZbiPMlA/A/X/SEcecSR7vyhwg3WrqwpwB7uUINRYXGtBAbR2oocqasbsJyJTDCKgXsCyIeYhaSJ4skzEdwdZCLIS4oAoHcr2D7DcgJIeXbAfU77wflI5iX/DrUfHLBY3KlKH4sJCV0AMuXSqKbzqVElH1kdzLffeiu8bUJZvC+ulX+Z6Nwv/D/3q37CuhMPXgRmB+wqETx5e7U2cKmu5tdB6b3KMc1n+G/4+/tWv/bBBx/0dlAstyi1ohOxoQv34MHpQuoZq2YIMA40z9gh4rf62te+Fmv3Wq0D6r4WaL6WzqEebI/OXLoE9QZaL98qxiQfrHDRMLnTMDoQ4X4ffvChcNyxx4b/+7//c6sKME9TyRX7LtAsOr+yaJCp0aUe4BGpoTDAuh6zigXqFBL62XEC4SSVNofTIzFTkmcBWHlPACPRMYmjTbAIHBytzv3bsVhleQIPtEcsYMI5UxEyzyr0yjkZj875ENTy3UPMrhW3moJaSn25lW4O4sg8Zc1RhfevJ2yyVqhezTaW4zfuBGR1V8SuR1+DxoCeg/YBzImNx78xcuTIsOrqPwxHHf6rMNo0ibBeefG5witpO/8+9FK6E0sd0MnN1vPMdY2fThyUgjqOfTTpCTwgL4DnZ+FmJ3i8aTBRMCbV42HMpaqO1Xav0xLYl6DewEBMLSgADCsQoGbAiI6BJhhoFiqAw8D86KOx4dyzzw5jTJ+diYfl+r5Z70y8WcxqxdpKQ+wyrGmLmlEYYMMTL6J6vgBUXx8qnp7IEdLiJ1mmn1vaJmaWgXrGr8Nv80xTzGkJheHbfDsOJ6OcWZwwex7CCgklxGmbMdaAdha9mFEynDv/iYAOWPvn+WdZmv0Mdh48AFzbF1c7j0fhcD37jO175jjNYqDbFpYssYp7YDHCAmRhqQD1pG3qWTAbGDJTHVpB3cRPs+CfLEknBTdxxnwGt7zv/vuF+U0EC1VIaLCDDzww/O53v3OKSbsSnlUAVgFkNQC9M8/Syu+6dR77HMc+Ibhk9VJYhGdidwftxHyjMtku5kSl/3F4s5ilO5rUOCrOp1bec289VwnqDfRMyrMr8kLeeAaVh2hlPkh/TTYAGjjQAM5A5p5/3BUOM90YalUOt0QWaYAAjtAQWJHaTspK0/WKEYJ1AU8ToJ5bdfH+9YwCyBSQ0nt134A9NM/BMXJkafeSRhApCodnUOiizsVnciarW1hIAGR/39sz07JPX5w/jRJxB2/kzVOLP+2zzoB6U5a6L2vQCpmOTNrH2vHoPVnaLPiLL7542NfS6DfcZGNfqMh2pd1oM6g9UuxvueUWF8xC25228vZJFkYHtqLVnjRgwwZDA3Om3kNThz11ewe7UiqUJUEFQ0zt0pK+DNix0OnrXXfd1SNjZp1t1oowY/mnaMt03JaWer09UR7nLZCDXRZSUvE3YC1ww3k32hw+F1xwYYCKGDZsljCRzDkb0ViRWOXi11O+ME/l8ThtAwQCQjoSQSn0TT1AlE3uLOwwfa5iN6cTJAdYnJjxwDxkMaGOFEdec8gk30+PqcaFdzTsittvHV9hJUfgawbQails1rovZVB+we7NFikMAO3sHKhjpBHtCrWE9jjO6nXWWzfsP/KAMCJKKSMahg8C8SuAbdDgQeG5554L+xq43XvffR5Ky8InA4Nzy5HIYpjnWOT9lC007KsaHE4ddUFTn6eLEYtSsb/4m+pRtBNzaaONNgpHmHLqfAvM74Jq7CL5jPaUDHJR8bGpG+tjXyot9QY6LLecEyB3KyjhZiuOiRmNHJMmCd12223h9NNPD/fZRKQG6ow2UJmA48waAcyHWCjXRKNxqoGjgy1rR0d0StFSr+M5HdALk6na1+oBzWqLXXu3ULS+dWxxK13HY0zVH9XOlVE8U5+tnrZV01crcFKrvfjOAKxlsyCzLMoZ6cmo2z+d0Qr8HcJbBlbLmnTD3vvsG9bdcH2nitxp6CGibbIGtBfOZOiIh//zn7CbWa6vWdjmwBnMOIg7F9ESWjSmagfGrv3Uo35ZT7t35ph8OCe7DPk80rGhCB+u9a5FOcGvH2XVyRCt+2TcxxbpNNTnGgtbsX7vtBIZU4J6kyMxpWIE7EVgwnaVFgnHyJkliYErr7oyjBl9XnjLwvOwKHB64UCksIJHcSDWlZ284i7rsi6bAPXsIm2rRSoDkDpcq1rqfpuVFr4cgdnalvHgukL6QNW2xsXdT+40ntpvnGWaxgVJF6hYEON3Ks6ZPGd6L10F6v7c1p8DUXe0vv7EqBWeG96Y95FzJjJo4403Dj83xUJCRT8bZ/U8zXKfNNkylKNTOaW3OKfCY3HGU1UICobxJSGzFMhE6+g99XRvAHVvnyKgJ4570Sm0A4sZHDuLI8D+FROnO/rYY8Iaa6yRF7cR7ZaOramineqaSE0CRA9+rQT1Lm58gX+qgpgXKbZrv/Dc8+E3Z5wRrrv2Wo/PZTD6xLcf592nur8sIzMHTE2GCKrN0BVd3AT97vTif0mgSh2bxV1O2hduPSJQZbQJQOwcuFElaM9wHJone/3852GFlb7p7fX5+E/dCe2O6RjdIUDnOvJNKOqIcNLf//734SBzno77ZJwvEBzPWFNUDOetdML74DFKqFLOord1mHa5tJsUSAF2ntFlsZHmNSPo4MMOCTtsv4MbUpkefsaru9/LgwCy2dSmFVTNQuhtT9/4/ZSg3nibNfQNOb/kAJQF4c5EG1NwrFjit916azjrN2eGh/79b7eyJHfri0I2G/OojxQ8NFFl6UxLDqGGOqKFBwOyXu2KaA07r7JP29u98ZmnuUdABoywMok5x+mHYuZAo90mWDQHfe0BQuZ4VoEOvq/IFkkGiCMXzcD7p5x4Ujjb/DZeuSvG6acce3qPuvfpeY4aPo0WNlvTp0p3wHKEaoHjbxbLcdae9MZOO+0UDrSFbSZb5OSD8Au77ziRqFAIaZxbTd9cL/xiCepd3CmaRIoISbP9pKSIZTXMUu0Rm/rdVb8Ll1xyiWu1MyndMolRIRkPnFlWPvHd0GqTkq2HD+/ix50mTt+RpZ7SUOoTUR5YlcjKoo65++67h/WtaLjr6dhJqWLlvnYsSyJZ6ONYBagYbSWHIP2fKknCvR9myqFXXnmlO12LOj8ajxnAZS+Px4khlb21A2V1K6oJo8cTzmx+EBEzBOlre6C33n4rbLXVVuFXv/pVmHe+L7kvwg2pDNdjuGyk64gUwrbKApL6zasE9S7uyqL1NtXflMojSsEGKBEPWGZvvfFmuP766x3ciW7gc2KRpcLIFh5Qz7VLPD5bxQiyByot9q7r2JxWIcM2OiVVCUmSEbKmnU4zDh1/CpTBiBEjwvrrrx+232EHi2oZYSJik3MpALecFfI4KXOQZnGQGWUgLq44hvSkvM/3333n3bDP3nuHO+64w4Edqx0QVBYux/C3QkEHsohw7YLvputasLEzT+WrSnw3+TiPUhuA/FuWefyd73wnnHTyyaY6uqQtokZBoTZqTUipQc95mEFUjM+WvG0bu7PeeXQJ6j3UL+IJSVLKYoptwNnkw4mmLfdrpmdymRU3/vOfbwzPmEiVh7xZdR4GKBa/dDBUsLe3a370UFO3/LICVflAWIxdViFGXQiYVWQZqQMqTaFhsqkVBV/m68t4fxO6qAo//p2E4q1w6vkGrS1UJ+XF9XAaTwAYQlgvvvBC2OZn24Rnn33WdXokHCcZYWnqEyLoRgIZwy1vqdaesD0DaRLJcfYMzA3aAuudRC10mFazDFwWTxZJosoQmxtCtFG21c1zB1p7tz13thLUu7jta1lVsqbTySpdFTnClEL/4osvuuV+zTXXePHjQca1eqUleykOWefpjDhYFzdFvzm9+nQCWbUxoiUtDcjvJA4BnID5euut51EtX1nyq94GFOGYyag1txwNYJwXtoUhS+2POvxJvGUuVyxeWNmnCdDLeY6RALDPNPPQ8MRjjwfKxBHTzcLPbkHcvo8/rouVTqJWLwf1Wv4KLXAuI2FGD2CuucHvBB0gLbDZ1luFKSRuudwFT2//oqLgdnppqfebydnTDyIglpWliAYBPhOU7DomJK9XrOjx9dddF2664U/hySef9M+wwnhJDTJ/ptzTnwYp9vQT94/ry4/Brsq15JP2dy0g+3txKxEImEO1LLbE4n4MIMMLikBJR6DKAJNZ0KuayFgbIVy7/XwscWHjUZx/Z9dgiUq33fr3sNtuu+Uhk4qWkRAYtN9grFtgrpfSL7WeWvPHnciW5CdNIna6OEmJiMF/wWsbC/c8zHh2krc+t3yQgZalmkfDEMfaj3j10lLvQZxJE5LkSE29+xp0cg5J32LsBx+G6wzcSWJ62KJlsMSI29VEzfn1GJ0hB2tuldgz53HjmsjJsf79bGXJUvmjJZO/723W2zfrxY5NMo0S8Mr5cfG0ScJY1gRTy+uq37KC3pkT7sOPPgwzWULRit/8phcVIV09DmwAACAASURBVJplfqu1yWuCWc5+LkIUDXDUr2mYqxyazfpCBOoTPsuch6q+xcJzyYUXhcMN0DgGI0CKoXo+d7zHZ+3B6dDUpVODiEADnpd5AOVFWw62tmBOfWR5AJuZfs7hhx8e5p533jZZDuZCjUS+YpSZbrDZPmrqAZv4UgnqTTRaK74iMJHzU7K2RVDX3wpn+4wsQstCnd7ilwl/Iz381r/9LfzVfijLRmYiHK87USMop05UpeunAzNP4ffJHasTJYkf6XeqJGG2ojm6/xzJ83HxImetG6rmgOY915exn4+NYpl7zrnCj9b4kcea/+AHPwjDZp3Fvy7hMPR9aG/6JS2MLVAH0IuJQY02SOqjmTTRVC1tfMAfTz8gC/n79Qm/Dueff36Fxe5WujlSoV/6YrZlaqkPmC6L6Wd+0M6uE2RWObvdz2J9YbTZV1xxxXDab84IS3z1K5lsgoePVvozavV9o33SU8eXoN5DLS+wEFgXJ1U1x5iiG7hluFgmrrJNX3z+hXDX3XeHa413/4+FQ2KpYUnOaJMWGQKEoORIBWAEKPCqDGwBlWgBEl84P9fxBcD+p5T1GBvWQy3X7GU97TS3SLVYqk4mFAjt1VbrNIsmKoYk4pym7YgqGbHwwuGnZpGvs87aJry1RE6jTLS2BmAQI0szXVNeOO1L5TJ0xlrO6Rce0wANCsKfLe6yuG/it1F1ZFfnYwAwt89Fu/R2C7TY8xXtieYNJQmjBrsiibRLBdiHDLZIIFMgndPKMhIZgwM1LVuo5Cadl++mGj2lpd7s3JuGvldhQReiG9JmqHacwAaASZUICZv7j2mB/M0s97tMGZKQyLEmWTqzaWKw9eZccPEubWv/ATwCNhxMroluFyeKwOWFbRIMsogbJr4oooiMfaunYvvybMjzEtbGK13cAGIHdndYog6ZRYTw3O9YcQ7aj1J+yy67bFhrrZ+Eb333O64SqPOoIDdtDAXSnnOP7xSpn9Y0aMYlFK/N3zhukRKAthtuRUt4+RNGOYq+BupqwzQvIM3fUHvmFn0c158RPmxGy3EnHO+Sxqo5rOglHZ9r/Vv7pJ/19l1Naam3ZiY1fJb2Jnxqpct6qwCAqHWSDmrASTog2oqz3fy/224P/7YqOQ899JDXTsViofycHKycF2tEVgrn4W8HNIvEQE5XqoJ81hal0cc8SymoA9pY4fZ8XgM1AiyArp2PlP6wcIlgWX655cL3V1klrGwZoF+afz7/DrrzQKjvYOx8tFmFumbKx8cMxloDpVqYYiODaqrxpIzJuBhr/FDDdccddwyPPvqo685Msb4eZCJg7FH6oqO06PNIKRn1hXahyqCFnqEAB/7RPffc03cwvHBkkw+ic4oaLVJjvX3xK0G9kZnTG46VUydSCamyogY0jjBeiprh91dffiU8bREzgPudd94Z/ve//+VgznH8MKhxLFGoQvSNLFmluDvwuS3YtxylqTgZkz2Va1A1KtL+JedAxudqq63mP4suumj4qiWx8JpoURXZlp6C3pkaoMAjlbnVUOlpAEhBTgqH9957r4MZhblnNQ2ayfZMvT2ksdGpJ0orT+aKCXqcB5kHSi1Oth0bu5e11lrLVVNdUC+WnYReo+20E3b9mBgL3+i9dPfxJah3d4u3+HqpVS96BMDifaxMBzAqFmF5w8Hb6wPLOKRw84MG8LfbVvy/BvAoQzLAvdBx1KwmxheAh3sVReNWjIM6/1cA9oRCyh8zPaaez4vHKwInidKpOLfOmX5e+F13KUtabUPcNhOcnctsVrhkdvvBEmeSL2o1MeGe0Sx3MDffAg5FL9IBMOBk8ypQ2dac96tZ270F1B3Mknu91gTkiAQZa7s5onYkHtfZHUOLh3dTpyv6oziJ3vM5wpix+TDBKnqxYyWnYJlllglnGLAvudRSPgfoZPwSjBklBaY0aLWoqKZutgu+VIJ6FzRqd58yHcRpNI3uA3oA55lyLGZI4qId5N97P9xtTlbExJ6zDEQAn5j41157zblhp2qgF+zHwyojqBdpomrPXW2Cpce1Rd5k1n/FOSOg15pAaSRaOuHEq+p7ALcXqDZ/A3Hlw2yLjSVOzUsqC62wwgpe0FjJQdyf6CyBsoA7W8syB6p+z3n55H09Y28BddoHK1S7Cvr11NNODaeedEoYYmULUwkCWaW95RkanU/FUOHU4S2A93Fgu5SPPvzIFvPZPSyYHdlxxx0Xfvij1T2Bi4WbjF9CJTF0UnXUWn6uRu+1K44vQb0rWrUbz5lyqQIxf4//4FOjDGn2d8E5FzlfyRLotp9/9rnw8ssvu5OVNPOnn37a/33v3fe8YpMs3pRDTkEudSQptl6CVCkdkIKjJpu+W1ww0vdTxUvphquyj6IZ+D4OMK4PTwqAf/3rXw9LWFLQQossHBZbdDEH9DTxx0MAyeiM4Kxn0hZc3GzRUVbcIQnsKxaabhwT6aXymProUJdTkGdjJ3fG6aeFM08/09ooc6IT482OjX/76qseY8MtdXalSXlE+ZVOOOGEsPEmm/jcIWrMF/S4Y9OYYAxgKEh2oTe1VQnqvak3mryXIrD7aXCmAu6IQnnIRzSv4zWckk/oEG3NXX/atp3p60NLdvrg/ffD+/aDo+2JJ57wjFYsed4TD4kTFtCArhGIi7sWjy0OupZ1m2ph59E2hJahYGgvRSTwbPw3o1EHWFE8IBmFcwyfIyy4wIIulrXkV5cMiyyyiItooYI56yyzepZl/oIXR/eETQxOU547j3xsi8jPdwqAfdJ+Ra9C0XrraStdC6Wel/vTgiQ6Ddptj113850afhWoCBZB+Qe0QDU5NHvd1zQN8J8ojyPLzsjE1BhzLGr77rtvGDlyZMzUhpIc6MW+oePY+TLO4d2Lu7be8MAlqPeGXmjBPaTA7qfz0PICnZFcRwM5pTb0sSI/GOCAMoO31osIGxxuL5iAFNXeAXpU8gB7KRNyPoAfy9BBP0bYyMpO47SViCN1QyxGqVRCGXC/hF4SkjevZQbi3JprrrkcvBe2uPHZZ5/dJ2Ktl/R1REOkwJuvfWqcDNEqFr8cILMmzkI9fWc0dfZpb7DUi+1QpOpYJN947fWwnWnEPPXUU96+0mHXsb1hcWpkikw1F6qNe0UHRU4yHYO0CYvbZia+dqgVi5/TxhfjF4OAc2flCIfkTnUVQ+8t7VSCeiOjpZ8fq8kACPO7rGIeW1YzA1dgLOBtr1kAdiYBkTUCef6WqiG/p1a7QJ2JArgA6vwOoGNBAuLtvfQMKXgXk64E+k5PAcw8H6CMlc5iWNjVVLue7Hh9t7cHeE7FAfvuxHYqSNEaiD384ENhzz328AV5qiiPxHmdGwP9YC5UBJIp5JUFGv+RWe3vvfdeWH311cOo444NX/7KV6wEodFSpoCZ6/ZYGzA+e9viXYJ6PxicVR9BqJNanR08q8L+RJ2kMddOdyR0TQqU4prTrSjnUOZlZvC2JgRSRZTTicS5FfGTUgypxSbaQbH28ju0kSyZ6Y0/WYxVNapFx/t2PVrrdawBPTbKilZr3g++mtGn9sym3T7DwBnCHX+/LWy//fbez64f4/IBvgfJ7z9rN+/QXgdm9TRyBZAXLHjGLM8tQwPAJunsaxYRc6wlKq286qq5nyY1gHIjwa1/Xtn/axfcqrFfz/P5de3mKsZ1vV8sj+ufLZCCQGqdu1WbxPrqOKXbpwNXv+v7RStRQ07v6/jidl88v0+TaEFp9yBrKh2+AnQtMmkPpQ4uvS9LXZAFzlVbCyvYmHiMUy8R7mTt94URUZzu3lZmrbNzQq73/NHnuga5U0oRuIvtKH9Md4NVS9oXFUvruOnJM9POzPs063mNWYAaymXmoTNbwp4pPZq/5ahjRoUtttjCHajscDQW3WDII7Uytq4n26YE9ZaMlP5xkmpWXdFClzNJVrkmQbUwuBRktSiopYpRLrqOzpsCfnpfAppqC4Cso+KESr9TPL94dNEo9YI6x8ta782WenFkpu2W8cjI1BpfbL4TgBwRrEMPOjiMMfGvWSzkL4vHp7ZqBniAmUc99VFL3R3hotgKHafxyu5kgkW9oH00BR0dIoUs6gvn6t57/9x+9vZQx89MUI/28rHMcXZ87n8lHj5u+bob4EtQ7x943LKnKFrVxQFZ6/P0/fRmioCsz1JwqfXd1EKvdZ56Hry98/s16jlJ4Zi+zi2nuyVPOIu0AzQWDu299twr/OXmv7hTWuXwHAP5PyKG4qu7AauJrqr5lUoqpoo6aUpiYInbD5ExG264YTj22GPDHHMOd6VUxO88SQnr3XJA4N6HDp3JKK2s8EkxBLaVz1DtXCWod3UL99HzF632dBIXAVkWcnFrn75f3MqnlEu1bX7xeik/We067TVztWvnzwdQNdFHqZHXFy119Y18H9Jzh0eHVqCA83bbbuehq4AS4apDo+Cb2aZ5o/U5UE8t9an63XkTf1fjg90Lu7KJtpDNFLXo4dl/+tOfhkMOOSR8fdlveKIS4bQTzZrH6extwvfMT+Hhsi3yJ9U7TEtQr7elyuP6bQvUcp61u1BEC7+ZBaG3NGS6OGONp/ISZBH/97//9XJ4hPcB9h71YccNNO1yrYTdDVjd3Xb5jsYurCpkhDM+b2UllzORt1HHHBNWNQfq58a7zzC91TEw/XqnbKBkIkfX3W1Ugnp3j5LyemUL9IIWkCUqPX/tZuQbwYLHYr/lllvC7rvv7sAOFYMD0Wt9uqlfmQuR7qZ6wSO25Bbk68ECpyjKJ9YOLHj8kIsxi+kDAeybbr6ZJ93ho3DpZsIi8VPYf0Xxu65upxLUW9L15UnKFuhbLaBkm9RaV2y/kmmUNj9mzBjXROFY3pvRtGL8ezHDtpoju7ut065qfXHiaMWQuexUVKx7qp0NbbLzzjuHgw852KWqx1OdzBZAspTVztUivDry9TT7TCWoN9ty5ffKFujjLZBa6254R+6Xf6V3o7j+UaNGhdNOOy3MPffc4bNPxrnFLspGkU3Vwlv7eBO1qTvCkZu1DleuTGtpv9COhIRSZPyQQw8N85nePhXDkJ1Io60UXUObdBWgez/ayZtx/vf1virvv2yBsgVqgEsKCWQCk9lL1AdaKNdcfU2YyySKATEBFvHcgLxAPV0g+nojp/4WQholB1EUSoNnR+mRGrVHHX20SfguGZO3pvcFUgsfbSuZ5q5qpxLU+/qoK++/bIEmWqCWLZda3aJjeA9+HeXOXXbZJTz2yH9dsgGgR3OeEooCdHHy3R3G10QT1PWVNArmi4Ru0pdpG4mjkYH65ptvenHrI448IqxslbJoIwBfPgrtfNLv13UjDRxUgnoDjVUeWrZAf2+BFOxTaxSLnWQkQhy32XIrF3GDNwakcBoi7CYFzp6Ize6qfkktddcHihdKfREAOwsbCx08OyGP85jY3MgDR3pN2FR2oNg2XeF7KEG9q0ZDed6yBfpgCwh0FL/OI0g2GcqFJKU7b/+/sJPVOQXYlFEMmIlmKFqhnUkc6+kmrAXquQM1hoLy/NBQLHAC8UkmJ7D3z3/uNVAlsSFLPfU/FPM+Ogv0Jaj39Kgpr1+2QC9qgTQqRmCcZpxiqVLi8PJLLg2/3G8/LwGoYiQqUFLxOIUImV70qHXdSqrimVrqqkWQJrZJvdEdojhJLVIGoN9oo408AxWqKi24UgxtbNXiV4J6XV1bHlS2wLTRAkX6RZZ6CjiURkQf5aRfnxhOOP5417WHnoF+SdU7HbSoiwrIGcB1ZcRHV/VOLUud6/E8qQwv+jlKUFJ74BR92+iYn1jd2+NM6ZEKXK6nE+sIp5pJrWqjEtS7ajSU5y1boB+0QArmepzJU7JqUVih++y9T6CI9TzzzON/G88QhpjDEO18OPcvrErQJKI/XMK3+1Pmu6wLYpy+t0/2YBXS1O5wtme36sAePUTlsO9aUfNTLSx0xIIjPAMVATAWQjla0/oFnaFgSlDvsl4vT1y2QN9rgfaiYvQZ1rhL9RpoU+1qA4vPfvLxJ8JQoxcmWGLOTAZiOA7JpATgUUVUQfS+1iLtSkgU5IkzzRcKrmTKjtMZXzNx8kQvcD127NjwubXZWj/5STjt9NOt7WZ0ITmAXPy8Z6HGknqdiR4qQb2vjbLyfssW6IEWSJ15ilFXnc7HH388/MwiYt4nAoaCzAZecO0ffzTW9FDs78mTPDa7L9IvjTY11JRb7agz2r8UrIaKcUeyvUed0/3MF3HgwQf5zkb0DWGPafuUlnqjLV8eX7ZA2QJNtYCAB8tbtWYJ5fvrX24OO+20kxX3niWMs9hsrE+v42mZlVAvuZJlooIoOqa/gT1FNGYwDRh2Kh9/8rGVwBviO5ZPSOSy3Q1gftbZZ4V111uvIkGppF+aGpLll8oWKFugmRbIk3BimUIX9rLfiYyZ3gCMYhGXXHRJ2GOP3cNSVs/z9TfeCMMM7EmXh34pvlItlM5Ypc08S1d+x3c0sDDGp6MDA6CP/Xis6axnGbf4F6CmvmJtdMVVV4b555/f25FdD22a0jHN3mdJvzTbcuX3yhaYhlog5dqxNAEo1eaEcvjCrFMUCo8+6qhw+qmnhsUWWyy8b4WbAXyBOparHKatjs3uLV2h52JnMoM9+BSrKkL0D5ExaNID8ixi71rb7PuLfcPhhx/ugJ62p3YwzT5TCerNtlz5vbIFprEWKEbCANLEd1hxO6diiN3GCt3TpHr/9re/WYblMMSlPMqDlzRi4JElLSCHYL+x1uUojVXMXXrXnpeKUZMsaohQRtrpc9vhDLWasEQOLbPMMhWhoCWoT2MTq3zcsgV6ogWqJca4hT69gbZVcibiYzIFNMwx+Pyzz4XdTCPm6aee9pjsocNmzmgaCkfYC8chkTPKwuxMpEdPtEV713RHqRd0pWKS+RL41dqGxc0awOkXnht9dmiZTTbZJJx11lk5t15Gv/S2Hi3vp2yBftwC1Sx1g/W8yCsADngPsXA9Qhw33XjjLALGAGz8p+PdcYrMAE5WyQukcr/9oum8ObJ6p1jnADogD6iTkeoOYwN3/MWUyJt9ttnCFVdcEZZeeumpsk2bbY+Sfmm25crvlS0wrbeA1/uMoA5aRV1xwH/IkMHh77fcGnbecScHNQAdwJeyo4pNyOHab6z1pAaqNw1OUypE2e+TAfuoVU8C15AYz09lqcMOO2wqCqbZ4VWCerMtV36vbIFpvQXc7MRJGk1Q+wdrnbJuFJQYMHBAGHPW6HD0qKPdeh0+fLiXxQPYkKmFV1f1IKxX55JjdQcBYVNVwXuyXxJQVxynO4rj+yqwQTTMxEkTvSQeNU4vuOACb59UG8bbI2aqNuJzKEG9JwdAee2yBfpyCxif8MX05giEUyf6BVC38DxQPgvtswpK9veRFuFx2WWXebQMVAygDw1DkpI0UPIQR4Csj7eJNYf5GbIFyjl1/9t8DvHBvI2sbYbMNCR8Ou5Tf9pLL700rLLqKjmoNwLixeYqQb0vD6Dy3ssW6MkWSOmXeB9wyc6z40S191Ar/Hjsx2FHk+q94447wpxmjX5qjlIsUtQe3XLFGtX3oxRiv7DU4zNllnr2YDwnuxl2KOxOWPyQWjj8V78K++73C/c3SBjNjykt9Z4c4eW1yxYoWyDNDpXeOuD00ksvha233jo89thjBuxzurUu/XWIF6oK8ZqByMjcumVV6LttmmfR8ny+arWJf0nimLZB/OzHa64Zzh492uLYB/sDu3xvpKT0e72Zt6Wl3nfHTHnnZQv0bAtES306Q+HMLs+oE1ndujkvDGHg9cCDD4ZtttnGnaWDLNsSgStoGJQdc069n1rqoqZ4TjRhiNnHrwBwQ0PNbPIKf7XY/vkWmD93mEroKwX4ejq8BPV6Wqk8pmyBsgXqawGZp87AWGJSpBiwRtGI+d3vfueVgNBGybNKUTuMVilcdBox0rcJ9rYmK2bQAtj4GFx/3kD+Y2ufm26+OSy3/HI5rw4VkwqhlZZ6fUOwPKpsgbIFuqgFBGSEMiqLFGA/8UQrrnHc8WHOOefMUuSx8CP4k1qP1f9FjO32gO5+8EplFlJA16Oh3njOueeG9TdYP4/hT+uZNlJAo7TU+8GAKR+hbIHe2AIpqMv5Jx5935/vE/5w3R+8xBugTpQMTsHpJmeALkdpP8H0XDMdoJaCpXYvnxmg8/yHWqz6rrvvlkkuxJfasBGhrxLUe+Ns6CX3xIB65ZVXwqOPPhreMNU9uFDijHkfLhROkArzxNdidS244IJhgQUWyB08veQxytvooRZI6QJZ6/r3kxgRc99993m2JRa81zqdbobMUidhh/vuJ6ieWuo8lnPptoNhHgHin9mz77PPPmHkQVmR6uKrtNR7aBB3xWV32223cN5557X01KeccooPILbE1V633367xxX/8Y9/DB9a4YNGXgD9IossEr7+9a+HFVZYIWy++eYO9B3F3W644Ybh+uuvb+RS+bFoZ9BOtZ6HA+Fyt9hii6bOz5ewKFm8Fl544bDyyiuHddddNyy33HIdPlfTF+wHX1SEB4/C7wCbyrfxL9owW1qfvPv2264Fg8U6YPoZTB/Fkpeo4Zk4UPtBc1Q8Qi5lTJ1TA/hxFua5m8kW/+qII/y4tNZrNd2d9tqjtNR7+WjZddddw5gxY1p6l9dcc01Ye+213UpI07PfeuutwPVuuOGGll3v1ltv9Yy5tABA8eRM+Lnmmsuz65p5rWfFBq666qo8mqDaOfh8yy23bOb0Nb+zpoWhnW6lyb785S+X4F6llVLrlN8FTqrfOYOpN95+2+1hdxP/knzAZ+MtyxRVx2ihd2QMtLRDu/BkU+nmqKYplJNdF059BysyMuqYUX4X2tHolhSvXo+cQgnqXdiRrTh1V4D6gxZatuSSS3pBXE0a+D0s0H//+9+tuO38HE8//XQYMWKELyC1JijXXH755Zu+Lhb0s88+61v4WotHV4A6Nzz77LMHFsnVVlutpJ0KPVgEMlmgKBlincIjU1zjsosuDiNHjvQxMvNMQ91id6VDXhH00pjvpgdKL/yiJ2jZM44zyYRddt0lHGl69LSbkpBExbALTR2n7T1KCeq9sKPTW2o1qCOsRCIIXDhUiYD2l7/8ZYCWaeULwAPUoS64Vq0X0RCEuXXmRbbit7/97Szuucqrq0CdS81h9Tjvv/9+p53qsaQ685x96bsCoTzJiKLKZOEgTysZAc8sHRiOH3VMOPPMM8OMg4d4FqofB6bbTw7oqXWbaqxwTBTN6s0hkFWt9QjqlLo78MCRllW6n4N6MYmrETXLEtR7+SxpNagvtdRS4a677vr/7Z15rFTVHcePsoiAoElbUAukLoFEQdyN1dioYKw1LhhKShQj2sYq1LVB07TWJS5oE01d4oZGQmpbbaqCxMY2EmM0aiKauPyhEiuE1JW6PkDa3+c38xvOu9yZe2fm3vG+x++QF968mTn33N8953t+5/vbVKs1AKTSObw3RtAi26GHHhpWrlzZ71pp/UNjUFShm3b11VcHNiY2rbQTQZmgzrh/LFXiH3nkkX4bZTf3Mxi+m6RfDKWVcNB4eXKgYDDcqCB/8UUXhb/++S9hzNix6uOuwEaa2rowGkBX3xAGuowUvOugjqZ+zTXXhHN/fl6/pF7tRpPqRihfSgaADXRZDarxFw3qGPgeeOABBVorR0b1FZL1F90wTN5xxx1h1KhRjWslrwF3iEYP/dNNmzFjRnj00UeVUkozmJYN6mjo0Ej77bdfS/tBN/c4EL8ba6dmOFV+WLR1aPNvpJYnpfDIA7P23++HXwi//uKLL2qBZpQO82MnjcDQOmWjro8DTFNPg1lVPuQH+mWDKFZLly0LM2bOUOrFslcqSEf5X/LYGBzUK75Sigb1S+R491tJHgTQGv986aWXhj9IXcmiG/UX0Z7xbGjGdT/77LPh6KOP7vrSbFJr1qwJY0XLS7tW2aDODUAhXXXVVa6tJzTrtEhI6BXAjE1dnxdJHYVHf+GFF6R49S/Dhx9+KH8XT5jNtcIbI0fsrGCngI52S/3PejZELtf4vcK5YuKwf0vByz2xeWEo/cfTT4fJUyY3Im1NS1fDspxq8lJ7Dupdw0m5HeQFdaiOPLs4oH7SSSf102hPOOGE8NRTT2XeCJo9/DGGSSaiGT/Ji43nCgtRjVz1RjrR0047ran2zMd+L4YhgLCIBtWDwTKNV88L6lOmTFEbAAsKOgr7Q3xPrcZ53HHHqRtos9NCEfc40PpIM5bG96D5w8WNsW9jXyPP+vLly8NlomigvUKnwbFv+rpG0ZCnfUcNVKoVtB4o+deTmrq9tmCkH+y1V1gmbrd7Su4XO9EkN8M861s1e6dfqr1M8oL6+vXrleLI2s15H6Nl7I1y2GGH6ZE3q6F5X3jhhapZqcYUBYbYJAXY33vvvfDOO+8owO65555NeW6ud8wxx4RVq1ZlXTrX+1dccYVWZ0/j1fOCOrw4XkCW9pQNCx/4xx57LHMMBGDhhROfgjK/tB1+IEnJIGu0cRrzk9cY7RcvXqxKBJsr/uv4rcubYcgABHXTtM1fn/tkQ+MUy9o9a968sPgPt2xzyoy19LQTT9r0cVCv+KLKC+offPCBThDjyZvdFpOECRWDP9rpW2+9lSkJaBs0fTaFZoE+Zrk3bYMNoBn1AmDuKjUa4U1btRNPPDG88cYbSq+0akcddVR4UpIipWnKeUEdXv7444/vR6GgOXLiyGrIBF9/PIuynkNWX4P9/UbwTT0oyeajufAxJ9igqd/Je3jFAIJqWNQfoSTklZlRrS5oVb1fYlDn2bImOAFyKly7dm24RejP+WIkNf90y0tvkaSqgeeMrnVQr/jqyQvqaMhMkGYufa1uMy+o47J3wAEHhN133z2MHz8+TJo0Key7774afIOWGjfT3FtNRCgfqJ+sdv/994dnnnkmPPjggy0/ymYD8DOW5EaSF9SJamVMsbbPSYIT68F/9AAAEEVJREFURZ727rvvhj322KOj55Cn/8HwGZsbpgBYCTfzxQYAeX4fffSR8usvv/xy6JOgpJ2EirGshv8TA+uOwrnzv1pcNbct3jLVTACWZig1oB8j63aJUJXTDzpwK6gnALydYhkO6hVfJXlBHTDLAnW0xzR/8SOOOEINVN00wB26BY125syZmTQQ11q0aFG48cYbW16WyYyWjhvmeeedlzlENG3cC5P32Q2oc20omTwN+gX30FZ++Xn6GcyfibV0o/EM4O09C5PHpoFn1rq168JI8WzSv4twRojm/tnnn8nfRmrBjS2C5aq1VxPTG8ZPnqtRMChgUEt4bt19771hOLEc6hBTuwkD8vj3PNq6g3rFV09eUM9zG4AiLobGF9t3CJ8H9IpqaP7XX3+95kdpxfHn4fKJfAVUMcRyIshqF4mv83XXXdcvWpbv9ArUoV/wwHFQb/2k0vjhJKBrgi/R2NHU5/5sbg28MZZK1xTd0PeFa1fe2Yp05KQosuZR0e/HpxP6NvoSCuaaa68NZ88/J2zsk6IhO9VK/AlBKoZg3D7b36Uc1It+egX3VySon3322eH222/fhhMH6C+44IKCRx4CrpI33HDDNpsIF9qwYUOjenqrC59zzjnh5ptvVuPj5MmTM3l1kmwRXYp9Ieb9uwH1vH78jBHNMuvEVLigB1iHSY+YpMGd1wA2J0vLZPjQgw+FK6+8QrXZLQLueMLw+9dffFmzXwjt0o7bX69FFtOR5qr4tdiU9t5nn/A38Zgi4GoHrUm6dWSuqff6KfXoekWCOqXECMUGfGLA+49kySP7IIbLohsJr9gwkhw3ScNOPfXUzMvdK8dSjt+ANABP9shWjfvC8wbePzZWtgvqHI1JMvX666+rx0+enDj777+/cv9xtG7mDfoHGhKItVmjXzjpQVGMHjU6XCsRl2QsHS3zdycB8o+lYPMo6BcMqI1UMe1rtkU/gqj409auoxhP81En4G6ReGz9SgpObxItfaikS6DpJtdFshvX1It+ogX31wtQZzFdfvnlhed+QRR4glBsGJCNN5IFCxYEUuZmNUAVgyyGSwAeeWQ1PCZmzZrVjwLJC+pZfbd6n8LKtmm690v7kjRNm4AcwNw0dvUUEYUDzXzhhQvC3+spmkeLgZFc7ESnbt7yTT832370jgLqtmBfWr6YehqDpHZuEmEdoDCgSFHCDg+whopumxOD6zCQykG9/bnX02/0AtS5Ibg9crCgaRbdyGnBphH7xqPVAvatGhz6c889p5ovHDVul/D1WQ2ZESGrgSv12pe9AHUAndNQ8iSUNV5/vyaB2EOE+WieXID8NxJZCt6h3c4788zw2muvaWoBOHW4dgVoS/hV13b7gWpd9e2XIKxgwWu+FfLVRGH9W+9r68ZCJC2vCLybO+8sCazq05EMg1qSlAm1NAgO6gU/nup01ytQZwFAv/xGSmrdJbUSi6Rijj32WA3ewX8ckMWYiEtkViPH+tSpU/tx8uRnT3MPi/siadnzzz/fj1cvG9Qxjr766qvqThlvJln36O/3l4Bp2JYSQAOTNkuNU8B7kxRiFkPi6ldWhzPlVPSF0DIbJWhpWD0YTkPuhw3XyklQMmj45lVTSy6QuFZJmR0x5pJaeHO9LN2OBE4JWNMY0wYpPPOTk08Od99zj66HPgH14SMkY2rdHbMx1g6ZJNfUK76qegXqplGwMNatWxcI8X9aclGQUrZbgCeqFK3cIi2XSeKiuXPnliZ5NB20eo63RoOUDeoLFy4Mv5OqNdyje7509mhjA6oZT5N/s+Ccxx9/PFxy8cU1DR4OGr91uSwVk9CWAdak50gtoKeWWgBFuOh8Maapc/ca/i/jskpP7ClsPkq7SLzHkiVL1PDP/RjtxFyN3Rk7k6KnCehUbj37Xl5Qp4YoWk0rF0JLEZAVEcokA9yZcH19fYGAGoyP1CvFqEqgExGs+GTjQ57V0FzZKCwz5LlS4eW+++7L+lpX78O/w3EbwJYJ6pwMyDtDtknP+9LVY2vkEW96GhOg/Epyj2M4v/XWWzXOYbT8vkW04uFDh9fy9AiADheA5PchQyRZmPHUCW29aE4dXRyOn7aJk8Iwri2ePJJaeNjQmicP8xHnASqPqYFXPm9ePpYiQUFectt06nPvmnp3c7D0b+cFdcA2K01AnCIgy/81Dve3pEMWNGH/E32Jm2RWA+jef//9hlfIXpK8iI2izDZPcmngqmlUSFmgjra1dOnSsI+4ppn8s2Rb5n0Pxr6TEaiA35d1YMdt9gGpnDROksx9KfQhoMn8RBkhfS9gX+Opt7U6Fs2vx5r6N/XqRUS9wqFj5GWNXis+6XhTAfDMEzR57gX7gdFFPMNu5pCDesVXQV5Q7yZNAFo51yHTI37eaJ5o1XFLLizeo4xbnmLO0C/wzfTJiQJapOxGSoNXXnmlYbQsGtTZqAjmItgJDZ3NI64kVfb9bU/9x3PPFAy0cDZRAJGT36p//kvjA8zAyrOA6gAoNX9KPQlYTW41o6Vp6rVSFbWWFo4fe9I0S3+hSpD2Wr8CAVHyN+wBzBXsSOSyoWyfefcYlcQYzYUzHkenz9hBvVPJ9eh7eUH98MMPb7iBZQ0N4yNBSOY2BoUCkMcTChdEcphgrDRKgQXFomGxfCrGHrIxfiK+wllt2rRpGhAEqMPVswh70fCQQJPmeJsX1C31blJTQlaA97hx48KRRx4ZSLOLK5qlXjDw6MV9bW/XiFPRAp6W9Iv/kf+ad9eERZLL/lmJPOY54UZLNS/mrZ0qo8ldA+9EbaBmmnEaz6/bgpXbizxdTFPX7wgVSnToZ+KtA11ESgyyfVqxd3PvTfZvCbxcUx/EszwvqLcjAnK9YAQ1bh2Ne/bs2e100dZn58+f34gKhRYpMiVBq4Hcdtttqk1zn3+SXNWkQ8hqydS7yc8bhcWi5MfAvJtFmDWm7f19owIBPCJN43wxxkMD7LgIrhS/b3Od5T0FdREgFAil8dDYeT2E14AzAB+BdCzrpLE2Ceb2WtMUaGm+HdTrRQFf6J6v+mpJyIjJuFiMupZemDljAUhJDT1WrDp97q6pdyq5Hn2vDFAn5woZEs0bhSIVLIiyGlGgp5xyih6XJ0yYoBRMLxqRqHgZoLE9/PDDuUA9LfVucqEZqGTlru/FPW4v10gznJqWq+6LYhAl9cQfJVbgrjvvFNpjs9IxcOpgLOSIGR/xa9fNuR6TbyeBOP2v/Z52XfNWMW3bCmvHBbb/K6dZUgBc9uvLwqzTZ+lmZIbSZNrqTtMBNHv2DuoVXxVlgTqFnq12KOBHfpMyGhQObpFQF3jQQP1kNdL7Mr5k4jH7HtQPWSGz/NWhkN58803dTDiN5NHU01LvZo3X3y9XAv2iQ6NLxc+fqFL+4c++YsVy8Yq5Sew4qwXYxwgds4ukGvhcgRWg1/z9cOz1viyFBaBMi90K42vw9xiQ4cb5AeSZY7wPHcnvP5KMpZdKKcf9p01VvhxAx+5inL+dIoqgW5LSd1Avdz523XsvQJ1iyYTjl9Fuuukm5dDZQMjbgT93VoOu4XssgmYFNuDp8xT2IKXw9OnTA7SKg3qW5Kv7fsw9p42S9wFYo8PwruKUhg2HsnhjhWdnDmIPog0R7d00bgNx4+qt6HNSgzYjrf2da0H1ANpEugLcGOiZ46dKmoqRo0ZqjIe51Vpysm1AOCUSths6z0G9uvNYR1Y2qHMNJrvxfUWKg2ITLCr6hwI544wzAppwVrtTjs8AcKtwe1wps4pmcB02BzhNaJU8AU+uqWc9neq8H3vFGPVhhawxoALCGMuX3L8kPLnySdWiAX5NjSx+4/AypkVzVyMwrApAm8au+Vgig6pdQ2kd6ZsNQt0R5VrUGD399NPDXElh8L3x4ySTZK2fIeKrbt4uVrYvzgvUDXg3exIO6tWZo6kjKRvU0XbzUCLtigmDKFw9NSbNe4YQ+jzeMi+99JLmeLG0AmnXJpXB+eefnzksgjwwklIQmmCkrOagniWh6rwfgzp+6bxGK7ZKSoCpaclk2VyxYoXmEsLV9bNPN4SRchIcJR5ZaNum6cdG2Iah1Ph4uXWoG7JG8v/ee++ta+fIo34Y5sz+adjtu99RMN8kwUabJcJ1551HqPF0i/yunH7dcBufPh3UqzOfejaSskEd4xLeKPDe+JLDe9sRtZ2bZHLCc1P1aM6cOQrKLBYWFZoJi+qQQw7J7BIXSqggS+LVbNIzVrj3rMam8vbbb4cnnnginClaVFZzUM+SUHXej0EdDR3QtKLoADqaMQCPVm3JwSiRx1x8TfLHrF69WguuExSknkykGLBWN6LqNepulENlHk+aODEcdPDBYZqA+fQDD1Rqb5jkbVFOX1MA79Dgz9X9UgKfrEyfbTad1B1tR+quqbcjrW/hs0wEtBB+jPPrdhgAJZPcNGgWAJqHGX2Y5PigE9DEIsDnFwMPC8cSLbF44Lzx1SY1LhWKAFBbWAA5n4mNnVwDjpE+WjW+y9hapa9lwdAf42rVH/dKP4wVWfL5xvE6ZRB2X3FGyW7l7d8vTwKxETXNPdDcDW0DiA2dX3z+hcZbrF+/PrwnxU3wyvr4k4/DVzJHoGHwqNl1t13DmNG7hO9PnBAmTpio1M14McBrCgBpmvZX1gU0C941WgAbjlz+XquuR76ZWnBT0V4uzaTqoF7efCukZwu22CaIosvezb/XJppdx3yC017bJZPeCOa7TZ/xT1LL5h4s30Wr4cdja/W5dvozF7Ws65uHg7srdjnBevD1pPE0Od/iACEF4LrGbf93UqTdbks9aKTZyaCO2rX87vUP2dpSj/hExsVmHj1FiM1BvQgpDtI+DOBjME/eauz+VQY/OEhF67dVkARaecXEmrFpyvFlY4UpyaXbaz5vJ+QGx17fHCyBnnnRQNMooFtgkwYh1bX1yOAa91PGmnFQL2hyeTcuAZdA9SWgm4D869vY16AKTYu30cenYju52d/ioKTkaW6bnO1FZwzLKV4H9ZyC8o+5BFwCg0cCFkVqmrj5oMfpq5OaueVKMq3fXBztRFAVys5BffDMU78Tl4BLIEMCaXRNTNMkqZa0ACQuEXuwlBEV2s2DdFDvRnr+XZeAS2BASSArMjXWzu2zyb+Zpp4E/KoIwkG9Kk/Cx+EScAl86xJIeszEfHuad03ZRs9OBOKg3onU/DsuAZfAgJRAFv1iWngykVcM7nbjDZfFeqBSVQTioF6VJ+HjcAm4BFwCBUjAQb0AIXoXLgGXgEugKhJwUK/Kk/BxuARcAi6BAiTgoF6AEL0Ll4BLwCVQFQk4qFflSfg4XAIuAZdAARJwUC9AiN6FS8Al4BKoigQc1KvyJHwcLgGXgEugAAk4qBcgRO/CJeAScAlURQIO6lV5Ej4Ol4BLwCVQgAQc1AsQonfhEnAJuASqIgEH9ao8CR+HS8Al4BIoQAIO6gUI0btwCbgEXAJVkYCDelWehI/DJeAScAkUIAEH9QKE6F24BFwCLoGqSMBBvSpPwsfhEnAJuAQKkICDegFC9C5cAi4Bl0BVJOCgXpUn4eNwCbgEXAIFSOD/5NofIcV/yIQAAAAASUVORK5CYII=;" parent="1" vertex="1">
          <mxGeometry x="253.5" y="50" width="144.26" height="140" as="geometry" />
        </mxCell>
        <mxCell id="DzccVoENs5ZmWSwi9zG2-90" style="edgeStyle=none;orthogonalLoop=1;jettySize=auto;html=1;fontSize=22;fontColor=#06570B;strokeColor=#FFE6CC;strokeWidth=8;entryX=0.25;entryY=1;entryDx=0;entryDy=0;fillColor=#ffe6cc;" edge="1" parent="1" target="qC28thdIJMezb9HJE6zI-1">
          <mxGeometry relative="1" as="geometry">
            <mxPoint x="260" y="1129.8235294117649" as="targetPoint" />
            <mxPoint x="1310" y="1020" as="sourcePoint" />
            <Array as="points">
              <mxPoint x="280" y="1030" />
            </Array>
          </mxGeometry>
        </mxCell>
        <mxCell id="DzccVoENs5ZmWSwi9zG2-111" value="workflow &lt;b&gt;metadata&lt;/b&gt; informing MMODA workflow catalog" style="edgeLabel;html=1;align=center;verticalAlign=middle;resizable=0;points=[];fontSize=22;fontColor=#06570B;" vertex="1" connectable="0" parent="DzccVoENs5ZmWSwi9zG2-90">
          <mxGeometry x="-0.0516" y="-1" relative="1" as="geometry">
            <mxPoint x="12" as="offset" />
          </mxGeometry>
        </mxCell>
        <mxCell id="DzccVoENs5ZmWSwi9zG2-8" value="" style="endArrow=classic;html=1;rounded=0;strokeWidth=8;strokeColor=#99FFD3;startArrow=none;entryX=0;entryY=0.5;entryDx=0;entryDy=0;exitX=1;exitY=0.5;exitDx=0;exitDy=0;" edge="1" parent="1" source="DzccVoENs5ZmWSwi9zG2-12" target="DzccVoENs5ZmWSwi9zG2-67">
          <mxGeometry width="50" height="50" relative="1" as="geometry">
            <mxPoint x="460" y="340" as="sourcePoint" />
            <mxPoint x="910" y="450" as="targetPoint" />
            <Array as="points">
              <mxPoint x="970" y="300" />
            </Array>
          </mxGeometry>
        </mxCell>
        <mxCell id="DzccVoENs5ZmWSwi9zG2-9" value="&lt;div&gt;&lt;font style=&quot;font-size: 22px;&quot; color=&quot;#06570B&quot;&gt;Starting interactive &lt;br&gt;&lt;/font&gt;&lt;/div&gt;&lt;div&gt;&lt;font style=&quot;font-size: 22px;&quot; color=&quot;#06570B&quot;&gt;&lt;b&gt;workflow notebook&lt;/b&gt; with &lt;b&gt;input data&lt;/b&gt;&lt;br&gt;&lt;/font&gt;&lt;/div&gt;" style="edgeLabel;html=1;align=center;verticalAlign=middle;resizable=0;points=[];" vertex="1" connectable="0" parent="DzccVoENs5ZmWSwi9zG2-8">
          <mxGeometry x="0.1213" y="-3" relative="1" as="geometry">
            <mxPoint x="-20" y="-13" as="offset" />
          </mxGeometry>
        </mxCell>
        <mxCell id="DzccVoENs5ZmWSwi9zG2-11" value="&lt;div&gt;&lt;b&gt;reference&lt;/b&gt; to&lt;br&gt;&lt;/div&gt;&lt;div&gt;&lt;b&gt;data&lt;/b&gt;&lt;/div&gt;" style="shape=cylinder3;whiteSpace=wrap;html=1;boundedLbl=1;backgroundOutline=1;size=15;fontSize=22;strokeWidth=3;fillColor=#fff2cc;strokeColor=#d6b656;dashed=1;dashPattern=1 1;" vertex="1" parent="1">
          <mxGeometry x="95" y="260" width="170" height="90" as="geometry" />
        </mxCell>
        <mxCell id="DzccVoENs5ZmWSwi9zG2-12" value="&lt;div&gt;&lt;b&gt;reference&lt;/b&gt; to &lt;b&gt;workflow&lt;/b&gt;&lt;/div&gt;&lt;div&gt;(notebook; call to a service)&lt;br&gt;&lt;/div&gt;" style="shape=step;perimeter=stepPerimeter;whiteSpace=wrap;html=1;fixedSize=1;fontSize=22;strokeWidth=3;fillColor=#e1d5e7;strokeColor=#9673a6;dashed=1;dashPattern=1 1;" vertex="1" parent="1">
          <mxGeometry x="320" y="265" width="360" height="80" as="geometry" />
        </mxCell>
        <mxCell id="DzccVoENs5ZmWSwi9zG2-13" value="" style="endArrow=classic;html=1;rounded=0;strokeWidth=8;strokeColor=#99FFD3;exitX=0.25;exitY=1;exitDx=0;exitDy=0;" edge="1" parent="1" source="DzccVoENs5ZmWSwi9zG2-12">
          <mxGeometry width="50" height="50" relative="1" as="geometry">
            <mxPoint x="325.6349999999993" y="510" as="sourcePoint" />
            <mxPoint x="326" y="760" as="targetPoint" />
            <Array as="points">
              <mxPoint x="410" y="420" />
              <mxPoint x="326" y="420" />
            </Array>
          </mxGeometry>
        </mxCell>
        <mxCell id="DzccVoENs5ZmWSwi9zG2-14" value="&lt;br&gt;&lt;div&gt;&lt;font style=&quot;font-size: 22px;&quot; color=&quot;#06570B&quot;&gt;Request &lt;b&gt;MMODA service&lt;/b&gt; runs a workflow &lt;br&gt;&lt;/font&gt;&lt;/div&gt;&lt;div&gt;&lt;font style=&quot;font-size: 22px;&quot; color=&quot;#06570B&quot;&gt;outputting the result&lt;br&gt;&lt;/font&gt;&lt;/div&gt;" style="edgeLabel;html=1;align=center;verticalAlign=middle;resizable=0;points=[];" vertex="1" connectable="0" parent="DzccVoENs5ZmWSwi9zG2-13">
          <mxGeometry x="0.1213" y="-3" relative="1" as="geometry">
            <mxPoint as="offset" />
          </mxGeometry>
        </mxCell>
        <mxCell id="DzccVoENs5ZmWSwi9zG2-27" style="edgeStyle=none;orthogonalLoop=1;jettySize=auto;html=1;fontSize=22;fontColor=#06570B;strokeColor=#99FFCC;strokeWidth=8;exitX=1;exitY=0.5;exitDx=0;exitDy=0;exitPerimeter=0;" edge="1" parent="1" source="DzccVoENs5ZmWSwi9zG2-11" target="DzccVoENs5ZmWSwi9zG2-12">
          <mxGeometry relative="1" as="geometry" />
        </mxCell>
        <mxCell id="DzccVoENs5ZmWSwi9zG2-20" value="&lt;div&gt;ESAP&lt;/div&gt;&lt;div&gt;data catalog&lt;/div&gt;" style="rounded=0;whiteSpace=wrap;html=1;fontSize=22;fontColor=#06570B;strokeWidth=3;" vertex="1" parent="1">
          <mxGeometry x="120" y="190" width="140" height="60" as="geometry" />
        </mxCell>
        <mxCell id="DzccVoENs5ZmWSwi9zG2-21" value="&lt;div&gt;ESAP&lt;br&gt;&lt;/div&gt;&lt;div&gt;workflow catalog&lt;/div&gt;" style="rounded=0;whiteSpace=wrap;html=1;fontSize=22;fontColor=#06570B;strokeWidth=3;" vertex="1" parent="1">
          <mxGeometry x="390" y="190" width="200" height="60" as="geometry" />
        </mxCell>
        <mxCell id="DzccVoENs5ZmWSwi9zG2-30" style="edgeStyle=none;orthogonalLoop=1;jettySize=auto;html=1;exitX=1;exitY=0;exitDx=0;exitDy=27.5;exitPerimeter=0;fontSize=22;fontColor=#06570B;strokeColor=#99FFCC;strokeWidth=8;" edge="1" parent="1" source="DzccVoENs5ZmWSwi9zG2-11" target="DzccVoENs5ZmWSwi9zG2-11">
          <mxGeometry relative="1" as="geometry" />
        </mxCell>
        <mxCell id="DzccVoENs5ZmWSwi9zG2-44" style="edgeStyle=none;orthogonalLoop=1;jettySize=auto;html=1;exitX=0.5;exitY=1;exitDx=0;exitDy=0;entryX=-0.011;entryY=0.611;entryDx=0;entryDy=0;entryPerimeter=0;fontSize=22;fontColor=#06570B;strokeColor=#FFE6CC;strokeWidth=8;" edge="1" parent="1" source="DzccVoENs5ZmWSwi9zG2-66" target="DzccVoENs5ZmWSwi9zG2-7">
          <mxGeometry relative="1" as="geometry">
            <mxPoint x="420.32000000000016" y="789.9999999999998" as="sourcePoint" />
            <Array as="points">
              <mxPoint x="326" y="938" />
            </Array>
          </mxGeometry>
        </mxCell>
        <mxCell id="DzccVoENs5ZmWSwi9zG2-45" value="&lt;div&gt;workflow execution &lt;b&gt;metadata&lt;/b&gt;&lt;/div&gt;" style="edgeLabel;html=1;align=center;verticalAlign=middle;resizable=0;points=[];fontSize=22;fontColor=#06570B;" vertex="1" connectable="0" parent="DzccVoENs5ZmWSwi9zG2-44">
          <mxGeometry x="0.0258" y="1" relative="1" as="geometry">
            <mxPoint as="offset" />
          </mxGeometry>
        </mxCell>
        <mxCell id="DzccVoENs5ZmWSwi9zG2-108" style="edgeStyle=none;orthogonalLoop=1;jettySize=auto;html=1;fontSize=22;fontColor=#06570B;strokeColor=#FFE6CC;strokeWidth=8;exitX=0;exitY=0.5;exitDx=0;exitDy=0;entryX=0.25;entryY=0;entryDx=0;entryDy=0;fillColor=#ffe6cc;" edge="1" parent="1" source="DzccVoENs5ZmWSwi9zG2-66" target="DzccVoENs5ZmWSwi9zG2-91">
          <mxGeometry relative="1" as="geometry">
            <mxPoint x="80" y="360" as="targetPoint" />
            <Array as="points">
              <mxPoint x="-50" y="790" />
              <mxPoint x="-50" y="20" />
              <mxPoint x="578" y="20" />
            </Array>
          </mxGeometry>
        </mxCell>
        <mxCell id="DzccVoENs5ZmWSwi9zG2-112" value="&lt;div&gt;complementing &lt;br&gt;&lt;/div&gt;&lt;div&gt;workflow catalog with MMODA&lt;/div&gt;&lt;div&gt;services&lt;br&gt;&lt;/div&gt;" style="edgeLabel;html=1;align=center;verticalAlign=middle;resizable=0;points=[];fontSize=22;fontColor=#06570B;" vertex="1" connectable="0" parent="DzccVoENs5ZmWSwi9zG2-108">
          <mxGeometry x="-0.4312" y="-4" relative="1" as="geometry">
            <mxPoint x="6" y="-108" as="offset" />
          </mxGeometry>
        </mxCell>
        <mxCell id="DzccVoENs5ZmWSwi9zG2-38" value="" style="shape=cylinder3;whiteSpace=wrap;html=1;boundedLbl=1;backgroundOutline=1;size=15;fontSize=22;strokeWidth=3;fillColor=#fff2cc;strokeColor=#d6b656;" vertex="1" parent="1">
          <mxGeometry x="260.95" y="765" width="42" height="50" as="geometry" />
        </mxCell>
        <mxCell id="DzccVoENs5ZmWSwi9zG2-84" style="edgeStyle=none;orthogonalLoop=1;jettySize=auto;html=1;exitX=1;exitY=0;exitDx=0;exitDy=0;fontSize=22;fontColor=#06570B;strokeColor=#99FFCC;strokeWidth=8;entryX=0.5;entryY=1;entryDx=0;entryDy=0;" edge="1" parent="1" source="DzccVoENs5ZmWSwi9zG2-66" target="DzccVoENs5ZmWSwi9zG2-67">
          <mxGeometry relative="1" as="geometry">
            <mxPoint x="1280" y="340" as="targetPoint" />
            <Array as="points">
              <mxPoint x="890" y="630" />
            </Array>
          </mxGeometry>
        </mxCell>
        <mxCell id="DzccVoENs5ZmWSwi9zG2-169" value="&lt;div&gt;view and modify &lt;br&gt;&lt;/div&gt;&lt;div&gt;&lt;b&gt;MMODA workflow&lt;/b&gt;&lt;/div&gt;" style="edgeLabel;html=1;align=center;verticalAlign=middle;resizable=0;points=[];fontSize=22;fontColor=#06570B;" vertex="1" connectable="0" parent="DzccVoENs5ZmWSwi9zG2-84">
          <mxGeometry x="-0.2183" y="-4" relative="1" as="geometry">
            <mxPoint x="112" y="-23" as="offset" />
          </mxGeometry>
        </mxCell>
        <mxCell id="DzccVoENs5ZmWSwi9zG2-40" value="" style="shape=cylinder3;whiteSpace=wrap;html=1;boundedLbl=1;backgroundOutline=1;size=15;fontSize=22;strokeWidth=3;fillColor=#d5e8d4;strokeColor=#82b366;" vertex="1" parent="1">
          <mxGeometry x="350.32" y="765" width="42" height="50" as="geometry" />
        </mxCell>
        <mxCell id="DzccVoENs5ZmWSwi9zG2-39" value="" style="shape=step;perimeter=stepPerimeter;whiteSpace=wrap;html=1;fixedSize=1;fontSize=22;strokeWidth=3;fillColor=#e1d5e7;strokeColor=#9673a6;" vertex="1" parent="1">
          <mxGeometry x="280.95" y="775" width="91.27" height="30" as="geometry" />
        </mxCell>
        <mxCell id="DzccVoENs5ZmWSwi9zG2-74" value="" style="group" vertex="1" connectable="0" parent="1">
          <mxGeometry x="1338.73" y="260" width="253" height="60" as="geometry" />
        </mxCell>
        <mxCell id="DzccVoENs5ZmWSwi9zG2-73" value="" style="rounded=0;whiteSpace=wrap;html=1;fontSize=22;strokeWidth=3;fillColor=#dae8fc;strokeColor=#6c8ebf;" vertex="1" parent="DzccVoENs5ZmWSwi9zG2-74">
          <mxGeometry width="253" height="60" as="geometry" />
        </mxCell>
        <mxCell id="DzccVoENs5ZmWSwi9zG2-47" value="" style="shape=cylinder3;whiteSpace=wrap;html=1;boundedLbl=1;backgroundOutline=1;size=15;fontSize=22;strokeWidth=3;fillColor=#fff2cc;strokeColor=#d6b656;" vertex="1" parent="DzccVoENs5ZmWSwi9zG2-74">
          <mxGeometry x="8.730000000000018" y="5" width="42" height="50" as="geometry" />
        </mxCell>
        <mxCell id="DzccVoENs5ZmWSwi9zG2-48" value="" style="shape=cylinder3;whiteSpace=wrap;html=1;boundedLbl=1;backgroundOutline=1;size=15;fontSize=22;strokeWidth=3;fillColor=#d5e8d4;strokeColor=#82b366;" vertex="1" parent="DzccVoENs5ZmWSwi9zG2-74">
          <mxGeometry x="98.10000000000002" y="5" width="42" height="50" as="geometry" />
        </mxCell>
        <mxCell id="DzccVoENs5ZmWSwi9zG2-49" value="" style="shape=step;perimeter=stepPerimeter;whiteSpace=wrap;html=1;fixedSize=1;fontSize=22;strokeWidth=3;fillColor=#e1d5e7;strokeColor=#9673a6;" vertex="1" parent="DzccVoENs5ZmWSwi9zG2-74">
          <mxGeometry x="28.730000000000018" y="15" width="91.27" height="30" as="geometry" />
        </mxCell>
        <mxCell id="DzccVoENs5ZmWSwi9zG2-71" value="" style="shape=cylinder3;whiteSpace=wrap;html=1;boundedLbl=1;backgroundOutline=1;size=15;fontSize=22;strokeWidth=3;fillColor=#d5e8d4;strokeColor=#82b366;dashed=1;dashPattern=1 1;" vertex="1" parent="DzccVoENs5ZmWSwi9zG2-74">
          <mxGeometry x="203" y="5" width="42" height="50" as="geometry" />
        </mxCell>
        <mxCell id="DzccVoENs5ZmWSwi9zG2-58" value="" style="shape=step;perimeter=stepPerimeter;whiteSpace=wrap;html=1;fixedSize=1;fontSize=22;strokeWidth=3;fillColor=#e1d5e7;strokeColor=#9673a6;dashed=1;dashPattern=1 1;" vertex="1" parent="DzccVoENs5ZmWSwi9zG2-74">
          <mxGeometry x="133" y="15" width="91.27" height="30" as="geometry" />
        </mxCell>
        <mxCell id="DzccVoENs5ZmWSwi9zG2-167" style="edgeStyle=none;orthogonalLoop=1;jettySize=auto;html=1;exitX=1;exitY=1;exitDx=0;exitDy=-15;exitPerimeter=0;fontSize=22;fontColor=#06570B;strokeColor=#99FFCC;strokeWidth=8;" edge="1" parent="DzccVoENs5ZmWSwi9zG2-74" source="DzccVoENs5ZmWSwi9zG2-71" target="DzccVoENs5ZmWSwi9zG2-71">
          <mxGeometry relative="1" as="geometry" />
        </mxCell>
        <mxCell id="qC28thdIJMezb9HJE6zI-1" value="" style="shape=image;verticalLabelPosition=bottom;labelBackgroundColor=#ffffff;verticalAlign=top;aspect=fixed;imageAspect=0;image=https://www.astro.unige.ch/mmoda/sites/all/themes/bootstrap_mmoda/logo.png;" parent="1" vertex="1">
          <mxGeometry x="230.95" y="830" width="197.47" height="60" as="geometry" />
        </mxCell>
        <mxCell id="DzccVoENs5ZmWSwi9zG2-91" value="" style="shape=step;perimeter=stepPerimeter;whiteSpace=wrap;html=1;fixedSize=1;fontSize=22;strokeWidth=3;fillColor=#e1d5e7;strokeColor=#9673a6;dashed=1;dashPattern=1 1;" vertex="1" parent="1">
          <mxGeometry x="560" y="150" width="70" height="30" as="geometry" />
        </mxCell>
        <mxCell id="DzccVoENs5ZmWSwi9zG2-92" value="" style="shape=step;perimeter=stepPerimeter;whiteSpace=wrap;html=1;fixedSize=1;fontSize=22;strokeWidth=3;fillColor=#e1d5e7;strokeColor=#9673a6;dashed=1;dashPattern=1 1;" vertex="1" parent="1">
          <mxGeometry x="560" y="160" width="70" height="30" as="geometry" />
        </mxCell>
        <mxCell id="DzccVoENs5ZmWSwi9zG2-93" value="" style="shape=step;perimeter=stepPerimeter;whiteSpace=wrap;html=1;fixedSize=1;fontSize=22;strokeWidth=3;fillColor=#e1d5e7;strokeColor=#9673a6;dashed=1;dashPattern=1 1;" vertex="1" parent="1">
          <mxGeometry x="560" y="170" width="70" height="30" as="geometry" />
        </mxCell>
        <mxCell id="DzccVoENs5ZmWSwi9zG2-94" value="" style="shape=step;perimeter=stepPerimeter;whiteSpace=wrap;html=1;fixedSize=1;fontSize=22;strokeWidth=3;fillColor=#e1d5e7;strokeColor=#9673a6;dashed=1;dashPattern=1 1;" vertex="1" parent="1">
          <mxGeometry x="560" y="180" width="70" height="30" as="geometry" />
        </mxCell>
        <mxCell id="DzccVoENs5ZmWSwi9zG2-96" value="" style="shape=cylinder3;whiteSpace=wrap;html=1;boundedLbl=1;backgroundOutline=1;size=15;fontSize=22;strokeWidth=3;fillColor=#fff2cc;strokeColor=#d6b656;dashed=1;dashPattern=1 1;" vertex="1" parent="1">
          <mxGeometry x="85" y="170" width="45" height="40" as="geometry" />
        </mxCell>
        <mxCell id="DzccVoENs5ZmWSwi9zG2-97" value="" style="shape=cylinder3;whiteSpace=wrap;html=1;boundedLbl=1;backgroundOutline=1;size=15;fontSize=22;strokeWidth=3;fillColor=#fff2cc;strokeColor=#d6b656;dashed=1;dashPattern=1 1;" vertex="1" parent="1">
          <mxGeometry x="100" y="160" width="45" height="40" as="geometry" />
        </mxCell>
        <mxCell id="DzccVoENs5ZmWSwi9zG2-98" value="" style="shape=cylinder3;whiteSpace=wrap;html=1;boundedLbl=1;backgroundOutline=1;size=15;fontSize=22;strokeWidth=3;fillColor=#fff2cc;strokeColor=#d6b656;dashed=1;dashPattern=1 1;" vertex="1" parent="1">
          <mxGeometry x="100" y="140" width="45" height="40" as="geometry" />
        </mxCell>
        <mxCell id="DzccVoENs5ZmWSwi9zG2-99" value="" style="shape=cylinder3;whiteSpace=wrap;html=1;boundedLbl=1;backgroundOutline=1;size=15;fontSize=22;strokeWidth=3;fillColor=#fff2cc;strokeColor=#d6b656;dashed=1;dashPattern=1 1;" vertex="1" parent="1">
          <mxGeometry x="80" y="150" width="45" height="40" as="geometry" />
        </mxCell>
        <mxCell id="DzccVoENs5ZmWSwi9zG2-113" value="" style="shape=step;perimeter=stepPerimeter;whiteSpace=wrap;html=1;fixedSize=1;fontSize=22;strokeWidth=3;fillColor=#e1d5e7;strokeColor=#9673a6;dashed=1;dashPattern=1 1;" vertex="1" parent="1">
          <mxGeometry x="195" y="715" width="70" height="30" as="geometry" />
        </mxCell>
        <mxCell id="DzccVoENs5ZmWSwi9zG2-114" value="" style="shape=step;perimeter=stepPerimeter;whiteSpace=wrap;html=1;fixedSize=1;fontSize=22;strokeWidth=3;fillColor=#e1d5e7;strokeColor=#9673a6;dashed=1;dashPattern=1 1;" vertex="1" parent="1">
          <mxGeometry x="195" y="725" width="70" height="30" as="geometry" />
        </mxCell>
        <mxCell id="DzccVoENs5ZmWSwi9zG2-115" value="" style="shape=step;perimeter=stepPerimeter;whiteSpace=wrap;html=1;fixedSize=1;fontSize=22;strokeWidth=3;fillColor=#e1d5e7;strokeColor=#9673a6;dashed=1;dashPattern=1 1;" vertex="1" parent="1">
          <mxGeometry x="195" y="735" width="70" height="30" as="geometry" />
        </mxCell>
        <mxCell id="DzccVoENs5ZmWSwi9zG2-116" value="" style="shape=step;perimeter=stepPerimeter;whiteSpace=wrap;html=1;fixedSize=1;fontSize=22;strokeWidth=3;fillColor=#e1d5e7;strokeColor=#9673a6;dashed=1;dashPattern=1 1;" vertex="1" parent="1">
          <mxGeometry x="195" y="745" width="70" height="30" as="geometry" />
        </mxCell>
        <mxCell id="DzccVoENs5ZmWSwi9zG2-122" value="" style="group" vertex="1" connectable="0" parent="1">
          <mxGeometry x="1160" y="260" width="148.73000000000002" height="60" as="geometry" />
        </mxCell>
        <mxCell id="DzccVoENs5ZmWSwi9zG2-67" value="" style="rounded=0;whiteSpace=wrap;html=1;fontSize=22;strokeWidth=3;fillColor=#dae8fc;strokeColor=#6c8ebf;" vertex="1" parent="DzccVoENs5ZmWSwi9zG2-122">
          <mxGeometry width="148.73" height="60" as="geometry" />
        </mxCell>
        <mxCell id="DzccVoENs5ZmWSwi9zG2-68" value="" style="shape=cylinder3;whiteSpace=wrap;html=1;boundedLbl=1;backgroundOutline=1;size=15;fontSize=22;strokeWidth=3;fillColor=#fff2cc;strokeColor=#d6b656;" vertex="1" parent="DzccVoENs5ZmWSwi9zG2-122">
          <mxGeometry x="9.680000000000064" y="5" width="42" height="50" as="geometry" />
        </mxCell>
        <mxCell id="DzccVoENs5ZmWSwi9zG2-69" value="" style="shape=cylinder3;whiteSpace=wrap;html=1;boundedLbl=1;backgroundOutline=1;size=15;fontSize=22;strokeWidth=3;fillColor=#d5e8d4;strokeColor=#82b366;dashed=1;dashPattern=1 1;" vertex="1" parent="DzccVoENs5ZmWSwi9zG2-122">
          <mxGeometry x="99.04999999999995" y="5" width="42" height="50" as="geometry" />
        </mxCell>
        <mxCell id="DzccVoENs5ZmWSwi9zG2-70" value="" style="shape=step;perimeter=stepPerimeter;whiteSpace=wrap;html=1;fixedSize=1;fontSize=22;strokeWidth=3;fillColor=#e1d5e7;strokeColor=#9673a6;dashed=1;dashPattern=1 1;" vertex="1" parent="DzccVoENs5ZmWSwi9zG2-122">
          <mxGeometry x="29.680000000000064" y="15" width="91.27" height="30" as="geometry" />
        </mxCell>
        <mxCell id="DzccVoENs5ZmWSwi9zG2-154" style="edgeStyle=none;orthogonalLoop=1;jettySize=auto;html=1;entryX=0;entryY=0.5;entryDx=0;entryDy=0;fontSize=22;fontColor=#06570B;strokeColor=#99FFCC;strokeWidth=8;" edge="1" parent="1" source="DzccVoENs5ZmWSwi9zG2-153" target="qC28thdIJMezb9HJE6zI-1">
          <mxGeometry relative="1" as="geometry">
            <Array as="points">
              <mxPoint x="107" y="860" />
            </Array>
          </mxGeometry>
        </mxCell>
        <mxCell id="DzccVoENs5ZmWSwi9zG2-153" value="frontend user" style="shape=umlActor;verticalLabelPosition=bottom;verticalAlign=top;html=1;outlineConnect=0;fontSize=22;strokeWidth=4;fillColor=#d5e8d4;strokeColor=#82b366;" vertex="1" parent="1">
          <mxGeometry y="835" width="30" height="55" as="geometry" />
        </mxCell>
        <mxCell id="DzccVoENs5ZmWSwi9zG2-164" style="edgeStyle=none;orthogonalLoop=1;jettySize=auto;html=1;fontSize=22;fontColor=#06570B;strokeColor=#99FFCC;strokeWidth=8;" edge="1" parent="1" source="DzccVoENs5ZmWSwi9zG2-163">
          <mxGeometry relative="1" as="geometry">
            <mxPoint x="240" y="890" as="targetPoint" />
            <Array as="points">
              <mxPoint x="240" y="1020" />
              <mxPoint x="240" y="978" />
            </Array>
          </mxGeometry>
        </mxCell>
        <mxCell id="DzccVoENs5ZmWSwi9zG2-163" value="&lt;div&gt;developer&lt;/div&gt;&lt;div&gt;of various MMODA services&lt;/div&gt;" style="shape=umlActor;verticalLabelPosition=bottom;verticalAlign=top;html=1;outlineConnect=0;fontSize=22;strokeWidth=4;fillColor=#f8cecc;strokeColor=#b85450;" vertex="1" parent="1">
          <mxGeometry x="50" y="1000" width="30" height="55" as="geometry" />
        </mxCell>
        <mxCell id="DzccVoENs5ZmWSwi9zG2-175" value="" style="group" vertex="1" connectable="0" parent="1">
          <mxGeometry x="1240" y="97.15999999999997" width="176.88" height="145.69" as="geometry" />
        </mxCell>
        <mxCell id="qC28thdIJMezb9HJE6zI-2" value="" style="shape=image;verticalLabelPosition=bottom;labelBackgroundColor=#ffffff;verticalAlign=top;aspect=fixed;imageAspect=0;image=data:image/png,iVBORw0KGgoAAAANSUhEUgAAAhEAAADkCAYAAAAmXnaRAAAgAElEQVR4Xu19C5hVxZVu8UZsFHzwEoX2LaA2+MAHyEMUx9gKmmg0KnCNeDNOQjOZbzB3kgvc5E7k3pmx0S830YwBNI5xjNpMY0YSFBSMShTaCKhoaFREFCPtCIggcOs/UJ3NZp+9q1bVPrv2Oavm64+MZ1fVqr9q7/XXqlVrtdkri+DCCDACjAAjwAhYItCy63Mxr3mFaHh/tWjaslG07Noh+h/aXdR06y3G9R0oJvQ/y7IHru4bAm2YRPg2JSwPI8AIMAL5Q2Bu8yti6srGAnEoVkAonhh2kyQVffI3QJY4EgEmEbwwGAFGgBFgBKwQmLHqd2Lm6qe12ujWobMkEjeLkT2O13qeH/IbASYRfs8PS8cIMAKMgNcI4Ohi/LIHjWQEkVg5dkrhqINLvhFgEpHv+WPpGQFGgBHIDAH4QFQ3zoo9wigm3IT+Q8TcoddmJjt37AYBJhFucORWGAFGgBGoOATgBzFp+aPkcTdfMY2tEWT0/KjIJMKPeWApGAFGgBHIHQLjlj0g5r+/hiz3nHO/JiZW840NMoAeVGQS4cEksAiMACPACOQRgZHP3Cue3dxMFn36wIvFjEGXkOtzxewRYBKR/RywBIwAI8AI5BIBJhG5nDanQjOJcAonN8YIMAKMQOUgwCSicua62EiZRPAaYAQYAUaAESAhUCeDS81e+zypLiotHjWZ40WQ0fOjIpMIP+aBpWAEGAFGIHcINLVsFIMX3k2Su1+XbmJ97R2kulzJHwSYRPgzFywJI8AIMAK5Q2DiS/8u5q1fYSw338wwhszLCkwivJwWFooRYAQYgXwggIBTNU/NFu9sb9EWmANNaUPl/YNMIryfIhaQEWAEGAG/EVi/bYtAzIhXWz5IFJQJRCJEuXqASUSupouFZQQYAUbATwRgkah/c5mol46Wn0Zk8oQPRP2QWjHumIF+DoClIiHAJIIEG1diBBgBRuBgBJZ8tE4GX1rX+sNVxwzIXdprWBUwBvyLgrTdI3pUi24dDtGecpCJhR+uFTt27xJ9Oh8uvtG/Rlze+1Tt+ugbkTBBTKgyaHfGD1ohwCTCCj6uzAgwApWOABQdrjlCcbZE7MCRsRI78An9/Q7vDAI0c/UigX+jCsJTTx84pmiuiyQckLFzxqAxsTjYylDpazGL8TOJyAJ17pMRYATKAgEozlHP3CeaNHwBRvY4Xjwx7CajHX2pQKpfu0xMXbkgsTsQojlDv3bQkQSuek566VEtHEBG7hp8xUE4zFj1O0lintaS4YlhN3N8iUSkSvMAk4jS4My9MAKMQJkhYEIg1NBruvUWK8dO8QoJXQIRFHrl2O+0HtMAB8SKUMcfOoMbJ495QARU0SUQ6nmQmcWjJ+fuqEgHm7w9wyQibzPG8jICjIAXCFDjI/iUdAqKv3rBLGM8cTQBIgE/CWomTxUnAkcYoxbfR5IBqcS5ZIsAk4hs8efeGQFGIIcIUJUvhopddHPtNC+ONagEAOPAkQSOaKgRK4HDlqtnkEkIZOCAVdm/PEwisp8DloARYARyhgDlCCA4RB+UH44huj8+k4w8jmZGSBJhkzvjl+ddK2588d/JMuD2S0PgWITcEFckI8AkggwdV2QEGIFKRaAcsldSjxGCcz7i6Gp5HbSZvAwQeIoSMjvY4d7r7iT3zxXtEWASYY8ht8AIMAIVhoAtiYDyXTL6tkxR84FEXNVngJi/cY0VDkwirOCzrswkwhpCboARYAQqDQFbEuFD6GcfSARbIvL/5jCJyP8c8ggYAUagxAhQb2YoMX24oWHjHIpxHC4dI+FYiciS1DJTBp+avmoRtbrgdOJk6JxVZBLhDEpuiBFgBCoFgYb3V4vxyx4kDzcYZ4HciIOK/RvvNMq+GewSVoSRPU4Qk5Y/SpYEVzRh1THJABrsbMrJF4r6wbXk/rmiPQJMIuwx5BYYAUagAhGgKmAf/CHUdM1tfoVMAkAAunXsbJwGXPWtjnRMA00FlxpkQMwKLtkhwCQiO+y5Z0aAEcgxAhSfAhwBLPEs0mLNwtlaKbyLWQAoVhng0CQjdyoCYCtDjpdR7kVnEpH7KeQBMAKMQFYImO7kfYgPEcYK8SJGyvwfr2rk/0DdKKdQExyiiBT8M0yONXxwTM1qzfnWL5MI32aE5WEEGIFcIQCLBBwt48714QDYMPxmb3M9gEhMlAm0kpwk4xxCYZFAG59GZDJVE3qmDFA1VybwQnrxKDIzbukDsXEnQEDqpB/EjEGX5GqNlLOwTCLKeXZ5bIwAI1AyBLAbhyJt2rKxQCigMGGuH3fMQIHMlXkoIERqDAgiBaWNyJS4hTGx+uxE/wOQEeCAdoI47GvjBC0cUHdu88uFhF5BGcb1HVjAkn0g/FpJTCL8mg+WhhFgBDJAAIpr3npJAjasFi37d9JQVlCeE/qflZh2GspzXvOKgvILpgVHfSi+CdVDEnNl2MqQAWyR1gSEwQaOQRyQtRMkAFjmoexa9Lb48sX3xJevbRJi286CyG16VIkO5x8nOl55mmjTsyp2GCBAs2V69QKZChwT5Q0HnbliEqGDEj/DCDACZYkAlD+uauJjH1fw8Z8jzfDIWhku2HlPXdnYSj6i2gEhgT8ESEW46MoAM/50GVchSgYfJkcXhyeG3eTtsc6edZ+IHT//g9gN8hBTOl41QHS69ZzIJ3Rum2A9+IyDyXpiEmGCFj/LCDACZYMAlPco6VAY3CnGDQ4m+cXyZkVQiZs4FKLtsGMlZEAWTOxcdUqUDDr10n7GNPgWFCgsND4VEIht31vYanlIkq3DxSeKzlMvPOAxExyQxRTrKco/JKlvn35nEuHTbLAsjAAjUDIEKKGrYUlYPGpyQUbK1UbUCwaaolxthH8FyIgvhYIDFOjKwBXPzMeydafY+p1GsfejrUai4Gij0+RzC3V0LBDhxn1KC2808MDDTCKoyHE9RoARyC0CphaE4EBBIkAmqMGmFBFxIUPWEwBLSnXjrNijnGIy4ojoCU/SeH/xUJPY+fCrJDir7r9GvFO1S1qUZpNwyPt1VSYRpGXDlRgBRiDPCFAsAGq8V0nlB2uAbdhrXIfUjc0QxhoyNHiggG2IEMbkS8TJz679NyG27yItaVgjfjpyp/SLWUCqj0pbrp7ura9L0qCYRCQhxL8zAoxAWSGA3XP3x2dajck2++SUky4Qs9/6vZUMPqTAHrfsgcTYEnGDvGvwFTLuwzArHGwrw4lyO3whiAW3Nq648ePY+BZJTSvrVtJzPv7OJMLHWWGZGAFGIDUEKOGqw8Kc1b2PeEXGg6CWsb1OEgs3vUWtXqjnw+6V4lcSHLQP2UxxnXNH/fNWc3Hsf2uODbKV1LgPOCTJWOx3JhFU5LgeI8AI5BIBFyTizMN7i1c//YA8ftv66NiHTKDlQCJs/CHUAjjsptfJawEVmURYwceVGQFGgBEoHQK4Tlm9YJZVh5f3Pln85oO15DZsj0PQsQ/HGeVAImyPM0SXDmL4LZvJ/i2YSx9zqugubrZE6CLFzzECjEDZIEC9WQEAkAej7pRhVo50iJOQlGciDmyE1EYWzKxLnQyyhQiV1OKDNWXvh1vF1lseow5BtB96rPjWpR/LiKcryG344mBKGQCTCApqXIcRYARyjYCN8oPpGXkkqNYM5KNYXztN1K1oJCseHxwSsQBsrDogY+tr7/BiHW2/4ymxe9WHJFk6110onj+jrRi1+D5S/RFHV8v08LeR6vpQiUmED7PAMjACjEBJEcANjf4yvkFcxskogRQBQNRKSnAhtKnOv6GAcdXUVAYo36bLpnhzJdAkSmMQU59M+NQjjXaDeooud15WGBb1aCfPNzMwbiYRJf10cWeMACPgCwKUSIvhD75pvIlwfAdKnAUfjgCCcwhCNlKGDzeJeeFjgKWd89eIL2TeDO0ifSGq7rmyNRkXhZhOkflQ6gfXanfp44NMInycFZaJEWAESoIAlDiONpKsAbBAzJUJuML5HqA4xi19QCtGABRn/ZDagywIJjIgwFRUEq+SgBXTiQmR8JFAqKHpEok2Rx8quvxgtGh7/BEHoNLUsrHg66JDqPJ8IyM4aCYRWb993D8jwAhkigCOFXA0UcwxDkpvxqBLBDIvFisgAmjjne0tBz2C4wfUR5TLYsWFDJmCuL9zYAAsonCAMyh23T6SoCB2ONrAtc9IHwlpfShk8JR/oqpjJOQgVPVvLhP10uE0ipzCBwLrwXccdNcTkwhdpPg5RoARKGsE8PFv2vKBzOq5L4gUsivWdO9t5Htw19qlYvmf3xMf7PhM9O7cVYzucaK49YR9CZp0SpQMeVM2GAOIxEt/freAQ/WhR4ivHXu6uLz3qToQOHkGMsx/f80B2VFxlGSSMbNp4zviiTdWij3y9kYbSRiqux8lxg89X3s9QIZZry8Rb/zXZrEFOUYIOGAtYhyqgMhiHD6lg2cS4WTJciOMACNQqQhAWeCaI3afLbt2HAQDMjXiSuj0gWPKGiKFw4xViyLHCRxwnDOhf3GLjC1AkGGm7B9WgKgCJTxj0JhYGeArgzwYxdKzw6KEuSxmmYIMqA8iRZUBdWeuXhQrA27o+EAmmETYrlquzwgwAhWLABTNeJk/oqklOXpljTTnLx492YsPv+sJw44ZCcmKKd5gf8jeOUf6l7hWgCYygAhEKWHdmyYgRMhAGrYSQYZR0sk0ikyGMS+W0t1EBqwnE+uK63lHe0wi0kCV22QEGIGyRwA7TigMHQKhwACRWOlBkCiXk0NJB+46DTjIi2kq7rASN40dAiIRVOImBELhH5ZBl0Co+mEZXM6rbltMInSR4ucYAUaAEQggYPrBV1XLxStfjYcaH8FlnAhbGaj5VHCkgWiTKFQZEL0Ut34oV44L/fY4XuDqcVaFSURWyHO/jAAjkFsEbCI1YvfYLCNWujbnZwEmdt+DF95N6ho4bLl6BqlusBKVAKANRQKoBABtgAyhTFr+KGksSgabUOwuCZnpIJhEmCLGzzMCjEDFI1C/dplV7owsP/ouJ8/0CCDct9qF28hEtQipPp+8aKL4ynNzySLsuy3RmRzCHB3/6oLrxdd//zBZhixjbzCJIE8bV2QEGIFKRcBm5wrMyuVIwwccbGVwkVEVMTB0AkwVe19uqT5H3N9sEC0z1FCWvjZMIir1K8jjZgQYATICtoor70mXFHC2OLggU90en5EYcTRuojEXz25uJq8FFxVdyJBVangmES5WALfBCDACFYWArfLM0vzscqJscXBBIkzzl4THf1WfAWL+xr8EdKLgg7DoSaHT0yQy6L/FgX8JZexMIiiocR1GgBGoaARsfQF8SeVtO4njZIyMYERF0/Zc+IbYyjDt1JFi1htLTEVvfR5HGfCJsLFm3FVzhZjatIAsQ5aWLSYR5GnjiowAI1CpCFCv4ym8fMvESZ1HShbSYF9brp5ufUvFhQyUtPBqHMjEiRsWiFJJKcqKYHMskyUpZRJBmXWuwwgwAhWPANWMnuWuMY1Jo15NdHWkQ0nBrXBQMiBx2MzVTxvDAwLQJIOHdevYWVCJiDrSsZFhfYZXhplEGC8brsAIMAKMgCgk6jKNkQCls8SDUMUu549ilVHKNy4zqomMVBmU8jVJZR6UK2gBoFhEcBSC9YCYIVQZXBwJmWAdfpZJhA16XJcRYAQqGgETxQHFOVfmjEB0wnIrpjikQaRMdvJRZA4BxOAoGpXGPGq+oiwpJjEromQAMR0pQ6nrOmm6subYrEcmETbocV1GgBGoeAQQMRHKI0759OvSTTQMvznzZElpThasAXUrGmNxwFEOMnmmlTQKMkx86dFYJQwZ5g69NjILJ6wB45Y+EOskCeWPTKB1Jw+LhBOECo63cUQAMmA9REUt1ZWhfnCtQO6NrAuTiKxngPtnBBiBskAAygNKrGXn5wUlBEUBc/24vgPL0voQNWlQgA0b1hRwwM4eAZgUDhOrzz4o62UaE+9CBhBDjKFpy8ZCgjXMI25gYC6huJNClkMGrAe0Axzwh4BQaEcXhygZUB+5MnRkSAPbqDaZRJQKae6HEWAEyhYBKI15zSuk4nj5gKyeUBxQGhOqhyQqHiiN2TKcNv5VqaSV4prQ/6xEBQwZZq5aVKgfzCxqIoPtBEFZYgwN7685IC04FB+OcXCTIalA+c6XChxtqKKUJ+onWTGKyYDMoSABwDKpFJMBbUyRFogkXw4XMuxa9Lb48sX35N+7reK26VElOpx/nOh45WmiTc+qpGGU5HcmESWBmTthBBiBckUACmeqNF8rxR81TpCBOUX8IaD8xy97sKD84woUGNqI2gXryADFByc8KPQ0CvKJgMTE4QAZkC8jighA8Y6XcSeSUqvXSSJxlzTlRxUdv4g4GeCTMEkeh9jIoBNDJE6GPes+Edt/tFjs/Whr7DR1vGqA6HTrOWlMpVGbTCKM4OKHGQFGgBH4CwKmibjCnvRQnIMXzo5VvEG8YVVYvN+bX/13HaUVbCMNb34Th0LIEk68BeU9SjoUxhGQMA4r5dXKYDGRAaTuiWE3H0CoTGUAqUMbNjJgLoOECgRi2/cWCrFtp9Zr1uHiE0XnqcnWHa3GiA8xiSACx9UYAUagshGgXCsEYotHTW5VXpRYE0HlRZXBZbArk5sZasVAiYMEYEcOSwyuyoJQmRQcbcC5EMWUzKFOWIbqxlnaJEbJGZRBxwoSHl9QBrF1p/jslse0CYRqq+P1Z4pO36gxgc7ps0winMLJjTECjEClIEANsoTjBBAJivJV2KJ+TffeJOWLNpQMtnMFAkBRvkEZKMpXyQ0yBCJClcE22BTkaL5iWkGc6gWzSHAqGXbctUzsevpPpDaq7r8mMx8JJhGkKeNKjAAjUMkIUC0AQeWHq4jU9NFXwUlQOipOWv4oeRpcWCNsiJBSwLDG6MZFCA8WCrimex9yyGm0h9Db1GiTqA9rBCwKlIiXajxbLv2eaHdTA3kus7RGMIkgTxtXZAQYgUpFwOT8PQqjKSddIGa/9Xsr+EAkbJJfuci3YJv86u9OHS7+6Y2lZBxghUAMDpvkV7YJuFzI8NixV4hL/pFmhQB47Qb1FF3uvIyMo01FJhE26HFdRoARqEgEbFNgj+11kli46S0r7C48qp94/uN3yG24SMNtiwMsCfPWryCPARUROppq0UF9H1KBf3/PQPH3D+2xwqHrgglW9amVmURQkeN6jAAjULEI2CrPMw+Xiu/TD6zwO6v7MeKVLe+T23ARMtkWBx8UOIJh2VgyyBMQqMgkwgWK3AYjwAgwAjlBwNaM72IHbqv8ysUSYYuD7VwgDDaONGysIf966EXi2p9tJq/+ttXdxaH3XEmub1ORLRE26HFdRoARqEgEKFcKg0AhTkJSjoc4YGHCR+jjqSsXkPEPx2qgNGQaoyLcx3MXTxYXPX0fpetCHfiFQIHPXvs8uQ1bGUBCUGyOZdad9zfiqNvNU5GrQXe4+AQZLyI6lwcZGM2KTCI0geLHGAFGgBFQCBRyIRBvFWDnihTUSFZFVTxwisTtDOq1Qjgjrq+9w3pCgYOtDDZOqgicpa66UgajcLA5lgEZQxTRUYtpZAiWlCWjbxPb73hK7F71IWUYosuPx4p2p/ci1bWtxCTCFkGuzwgwAhWJADW+gboVgRgLlKuFQQJAtQS4jFpJJQHKEkIlIrDGNO2PWkk9XlKBvxBynEICFAHAC0AlIkqG3a9tEtsRrdKwZHkzA6IyiTCcMH6cEWAEGAGFgGnESZjfGwKhkk3jTcCKsSQQKhlEZKQMF21yHu/CoTK4AlzIYBpvwgUOwWiTGI/pERVkAIlRybgopDDsl/LFQ01i58Ov6r9gXTqIrr/4qhBVHfXrOH6SSYRjQLk5RoARqBwEoDjg26ATrwHKu35I7UEJtKBAYVFICrgUVpwKZcgwbukDWjcMXBOIoAy6ZCasvFUbukQClpiG4TcflMTLhMwUk0GXSMAKMlcmQwsnEoNVBVYRHVJXzLFVl0jAmbLL90dnFqlSzRuTiMr53vFIGQFGICUEoABxvPHO9paDeoDCmTFoTMGHoViB8kH9KB8JkAc4UaKNqAyeQSUcJwPyTKSVwVNHBpj+Zwy6JFYG4ABCFUXKgAMyeNadMiwWBxCB+jeXRc6FjgxIxDVDZiO1kQHzgDURtR5gjaqT6cTj5gJHGzsb1ogvX3rvoCXT5uhDRYcxJ4pOMotnlhYIJhEpfUy42cpCYO+HW8WuF+WLHsi61/68Y0Xb44+oLCB4tAUEoATxB0WEXSpM3crcrQsRzufRRreOnQvK0kTxYzd+j4yEuW7rJ2LTjs9Er85dxQVH9hO3nnCubvfWz7mQYenH68Qv1r0iWnZ+Ljq3ay+O6lglviujW+piuU+G5yUOW1pxuKTnieKGfoO1xxeWYcDhPcVN/YYYynDgXHz12EHiK71P05YBSbl2N38idsvsnm17VIm2PeWfZ98WtkToTyc/yQi0IoCUvTt+/geBHUNUaVt9hOg8+ZzMPKZ5qioLASjNmXL3XF/kqiNyO2AHP33gmNSAgQy4coodeFSBDLBE4CihWIGPCNooltEThApOocXIhI4MOFKa0P+sojJA/pmrFxWVAVYh4FhMBsiO+sVwQD1YleJkSG2SUmiYSUQKoHKT5Y3ArkVvix31evfSO91QIzrecGZ5A8KjyxQBWD0mSb+MppbkCJg18mhlsXTMjDsWoQwGMoxf9qBWOm8QAXUtMtiX7i0PkJE50h8hfDwEGUZJJ9OWXTsSh4B06mgjjIOJDE9IB9mwlchEBpAR3NRxPReJg3f8AJMIx4Byc+WNgAmBUEh0uvUc0RHnl1wYAccIYOc9eOHdWspbdQ0isXL/1UgX4lDSgYdTkVOuqgazkJoobzVmEAkQAVV0CYR6HmQGhEw5V1JkAJGAZSXPhUlEnmePZS8tAvJ88rNbHjvA/0FXgKr7r8nci1pXVn4uPwhQ4yO4CHmtUKLGR1DxMqgxGnAs0HzFtIIYVBlUvAwXMphe91X4uYzZkcXKZRKRBercZy4R0L16FTW4LMPS5hJsFjoRAex8YYWgFOyim2XUTFtTuq0MW66eQSYAGDeICCwBlEBRqK+ICJUAoA1lSZi0/FHKVLTKQKrsQSUmER5MAouQDwS2Tvq12Lt5G03YQzuKro9cT6vLtRiBCAQoRwDBZnzInXHv2ePFbS8/QZ5fXNkEEaCGD0fHT140UXzlublkGXBlE6TMRobg0QxZkIwqMonICHjuNn8IfHbFPCuhs4xvbyU4V/YSAaoJXw3GxZGGrQy2GTQxlqyzeEIGBMCKigmhu3DU0Y7u8z49xyTCp9lgWbxFgBrXPjggJhHeTm8uBXOhwOcOvdZq7DbHAOh4bK+TxMJNb1nJYFvZloTY9o/6LgidCzkobTCJoKDGdSoPAThVfv1hq3EzibCCjyuHELAlES4Ul60MLiwRiAiqE2a62AK6qs8AMX/jGqv1hWiaSWHL4zpwMRdWA7CozCTCAjyuWlkIfHbtvwmxfRd50F1/JX0iMkyUQxacK3qJgOmVxPAgXJjQbWWYKYNPTZchoqkFxwg13fto5S4p1se/DP6K+NuVT1JFECAx8Il4dnMzuQ2VyZPcQIYVmURkCD53nS8Edty1TOx6+k8koZEs59B7riTV5UqMQBQCphlAw23geqRuGOliM6CbNKtY/S1XTxc1T80m+xMg+iVuZ1BvRkAuyEBJya7GBCtCt46HFCJtUgqsGC3ylkpeC5OIvM4cy11yBBDqett3Gkn98lEGCTaulIBA/8Y7SQrYZTZPWxlsiAiIEHKMUImIyuaJhFkzVz9tvN5AANbLq7IoVCKS56MMjJtJhPGy4QqVjMAX9y0XO//jdSMI2g89Vhzyg9FGdfhhRkAHAUqQJCi+Jhmx0tYKoeSjWESU8lVxKigOmsHjGIoMOAppumxKa6wMigzBQFEUMoSjkCUphCHXWTuunmESQUASYV5bdu5w9hISROAqGSJgcqxROMb48WXsC5HhfJV71ybKC8obSkuFanaFja0M+KaOlHkvdB0koywptjIgcRYigNrIYGLRAIlpGH6z87lwNae67TCJKIIUFtSzm9eJpi0bC4lt8G9cYhc41sDBR6X+RWz4EUcfrzsPZf0cPhDPftRcSI+MnRPS+0YlC0JMf5wtAjt85Eb0qLaOqJcWsIXolfOlR3eMo2XHK08TnSaXLgVzWmPldv1HAO8VnBzjYhXgKiMyWLomEEGLRN2KxkQZcK00ygqC7wTqxwVtAglCBsy6k4dFTgosEjoyQHlHRevUlaF+cK1A3ouoAhkmyoRocbc1EKBqbkQCMP9X2sESlpREfL57V0GJ/FEq5TX/9VEh5/2HMuf9x19sF1vkAkI57bCjRY9OVeKm/kPELcefU1JMoeTmyTSwDe+vMUpoEyckFOPE6rMFFo0r82FJQSF2hpdxvsQRuwPMObUo/CZUD/GPUMhrnzufflt8+cK7heHt3bZTtJGRKduff5zocN5xnCuDOulcj4zAvvftT4XvF/7UpgbfoHDGSXInCRUhAxQpNgvYeKkNFrJu6sgAuevXLits3NQY1OYCijspVDe+PQ0b1rTKoNrAJg/1dUgUdAHGEZYBYxjXFxEqD4lFwYUMac2P63bbiF9N20tt9PELbxLj+w5MrL5w09rChPyHVCrbJZHQKd/oVyN+ed7XdR61fmbe+ldE/Zty0Wqk0rXpDAqx7pRhmeeRNzG5hceL3cyS0bcVhQEvz+y1zxfw1EnJa4InPgDTB47xhowhANXO+a+LL+W/QhIIVdpLAlEgEhefYDI862fxfl39/C/F7r17rNtSDUySyucX535Vqz3K+Xyw4VI6mNm8A5DZxyt5UJazpfINb4JMiDi+0/MlAUAbqoAEjJPf+Qn9z0okAeUkA/RCcAOkcFA3QrReigp4yIpEPHbhjeLqvoMiYdqzd6/41buvih+/vm4/ZJgAACAASURBVFis+vRDYyhvOK5GPHR+uiQCi2TGqkXOrA66g8TuACY5vJRZFJsPaByJAJ4wJbomD2GMgB3IRGZFWiC2/+/FAiQirrQ7vZfo8g+jSuIPkRaBuP8cmX20TRstqJlEaMGUykPYuc+U37KkI9c50oSO3XS4QPmPl/4ASRsppM9GG1E7cZ3vChQx0m9HWSSw+58kjwGSZKiT1zqny29AlAw6+UTw/UXekCiLBGQYv+zBRJ0AGe6SRxpc5O0MG0tEMRLx3vYW6aDyoFix5X0yxmmSCHzspq5sTFysZOE1K2KHgIWoY+LTbFLrMZ2XvVhDUSQC1ge8/MHdi5YgFg8BO3yMSn5EJAnEtu8tFHuaP9GTXh5vVN1dm+rRRhoEAu/fL8+7TptAAAwmEXpLwvVTpgGfwqmnoThHSadGXfKPd29x6EZBHmUIJyAzxQHfbVikKr1YkYio44wnN74hbnzxV9oLstgEpHWcAfJQL83tPpVSs1qXJEJ395AG3tjV4GOmc8bpqv/tdzwldq8ys6y1rT5CBppKZ9eSBoG4RloX//2CG0TbNm2NYGMSYQSXk4cpVxvRscoaiQ0ACETS7j8sLCwSIPEosIKYBloKvruQASnNYQ0xKSrGA+pQvmmQYeX+q66QobpxlrHeCspgIns5PWtFIsKWiFmvLxHf++NTguxkEUDWtSVC11yX1eSWcmdNeeEULkFLhClzTwPbUhIJOFB+Lo8xKKXTreeIjlcNoFQtWictAvHI+TeIdm3NCASEZBLhdHoTG6MqPjSsdtE23wLswmu69yYpX19kUGRI5xik2IS4iPyZONkeP+CMRNz28uPivj8tdzZUl5YIH5SdDjClUog2Hw5FIqg7GB0cTJ8pFW6f//AZ8eVL75mKV3jetTUiDQJR2+c08YR0lqYQCCYRpGVhVckkLkJUR7BGjFv6ACniJdpDrIaRPU6wCjkNBYwgT9TkVZABty5MLSFBPGzDXle6NcIJifjZ2y+Kb73SYPVChCu7skTgRcMRhu55n9NBEBorhUJ0QSJGLb7P6uomAZrYKlHntK77+OyKeVZNVt0vnRR7Vlm1gcppEIixvU4WC4ZPEO3btiPLx5YIMnSkigiMhGvU1PJ3pw4X//TGUmr1wtXNEdIvwEaG2088X/zk7ResZEDUR5vkV9NOHSlmvbGELAP8skCGKrVYkQj4RJzY9UhxxlP1zvFzYYmwZerOB6XZYNpEwpZE4LqXDfPXhMH4sTR3BHs/3Cq23vKYsUzBCi7yZ6RBIEbJ3eRTF00SHdu1txofkwgr+Iwr+5CGG5ZJGwV+3XGni0fefc147MEKiPwYF2QrqXEXqcD3XndnUjdl+7s1ifipZJG/+/Bt5wDZWiJwhAFnnbwWsFuYG5OCmlDGZ0MiIJcKIkPpO+06ad3ft0m+pcZsSyLSIhC/uWii6Nyug/XUMImwhtCoAVsSMbbXSWLhpreM+gw/DCuAbpjoqI5cKHBEsaQeh0AmWyKENphEEJfR9weMFj9a8wyxdnw1G0tEXnwgkoBL6wqRDYlIkjnr33GsAY/rNIrtccah8qpn2+OPIImWBoG48Kh+YtHIbzohEBgUkwjS1JIr2ZII+BPEhZjWEcxWAfsgg+2RSt5TeevMc9wzVpYImN3T8jWgkgifHP5sJwf1g5nqXLSHNsqZRGB8aVkjtn37P2R8CLNraGrO2hx9qKiaoxf5MTzPaRCIc484VuJ0q+jSvqOrZcUkwhmSeg1RrlYGW0achKQcD3GSgEBgo0NJoa3afe7iyeKip+/TG3DEUyqdAKLkUoutDC7TqlPHkGU9KxKRpuDU44xJyx8thNh2WbBQVVIotKuCQ4GwNG35oNCVSi5l42QUJXPwLrOrMZU7iUjLgoOEW1/8/A+kaaAm40qDQAyWyc2ek6HLqzp0Io2lWCW2RDiFM7ExXFuvXjAr8bmoB+BHsL72jkLSLqo1AkGr8K5lLQOumVKPrnEcg7ToNladtDYtpInNoFJZkQhq4JViL9mMQZdoJVsJ14ccyB1h43AUbNO1UiwFiYCJD3ew9yUAOqI1suS+xECfFALLQOnYOETFvS9p3d3eOunXYu/mbWavapcOousvpBWiymzXnxaBwEfv8I6dzcag8TSTCA2QHD9CjW+golbiPaRcsVTKF8OhyqAiRlLJUDBmDZUMKQJA9aFLyiXkeLq9bK5sSAQ16ll4VqD8EEESBMK26KTn1e3DJdtNk0TgpUKSsaj4/FFjVdnybMyRUe2mlcyp4GApo1bGpQAPy0NxqEyDQAw6vKdYNvpbqRAIjJlJhO7b7PY5kAAT58aw+d30Fhu+kUsCkWLx7R0po16WWgZYEFTYe4oM4dtcFBzW105Lxfnd7QpJt7WyIREuFCNMfMgz7zKMMhY3ArrYWiVcWiNcYBVelsCufkitNnkI18duBLsJW5xUu2k6WGoTCWmBOGTqsEJGT5OSBoE4pevR4vcXf0sc0amLiShGzzKJMILL2cP4xsC3Qecotdj5PRQoLApJtxyKfSNNvnPFrmLrKnFYQebKJGDh77QJkSi2yTCRoSGL3D3OVo27hkpGIg6Rd9AvkrvUS+S1Ijh1IT88GK36U0P66IutYsUn74s9Mnj25b1P1RqpTfhX1QEWJth1Glcq0QfV3BYEQMW71wIl5iHXJMIldi5wUkNHJLq05lPIRFxfSB8J+EkcZJWQ5KGDJA6dbz3XiyMMEIil0gfi6M72ga7i1h6TCNs3064+FCCcLaMsArAQwroal+wPRB7fBiTSC5MJZaGFlTHunYIMaCPqmBK+ZXUnD9OSIcpPAwRmYvVZBUtn1jK4sFTbzbY/tVMnEad0PUrMOvNygQWUVrFVinhBSmGWMjU7hvFy5QVsi1dQLpcEQrVrG4lPtRPO0pfW+oNlYu+2na3NIwU4paRhgTih6kjxgrRApE0gMF4mEZRZd1sHG6r71/1BrPr0Q7Fj967C9d1Lep4kLu9zijahxhEjjhdV/aM7HSr+WkaW1M2YW0yGG/rVaA8Wa2ne+lfIMoAQPfjOCrFu6ycH4GAiw4KNr4vHNqxqldkUB+3BpvggcICFCnOiCiw4LvVxaiTiyI5dJPMdI7514nminWE2QBNMba0Q4fM9k75Nn4Ws/WWmuCSTYbF2cVOj2cEZnEsS4co6EhyzLU6qrbT8IkznXef5NAhEvy7dxYtj/lr0OqSrjgjWzzCJsIaQ3ADeGUSRLXYzDd8O7OCnDxxTtA84hKONYtk0YcXAlfNix70+yADZZ65eFIsDrAg4UilWgCHaiMMBjqm6pIo8qRYVITtuKuKdjCqQHfp5Qv+zLHrZVzUVEjH0yGNF47AJJdn92N6VLrWisVXgLnbXtjKUQknbzitkBNvGuaXvJQ0Cccwhh0kCcbvo2+Xwkg2fSUTJoD6gI1gOxi97UCuVdrEcMybHiOpmR1AIkwB/ICP4joWPJHRlACG6a3Bt4WgjSxnmSL8MXQfyUq4MkMFJ0kdGJ4YTMMR82hTnJOLGfoOlUF+1SuRjMqDB0jO5qWVfrAbTUqpjjKBctrtsF0caLkhEKaK0dXt8BtlqA8zzcP0qLQKxTB5hlHqnxCTC9Atk/zzFEhsmEpQrmsHNDHa9+A7rKC014rCjuC6BCCIWvLFmQmJUGyoNuPr/KTKkYYm1WRWUq6q2RMIpifhq39PFoxd+wwYDo7rU+8WqkyhGbSQA8WEbJe4iY5xN/2rIpbDgUF7q8JT4HNM+DQLRUzpPwgJRagIB3JlEED8IFtWo/kPq/aXOWfBolRqoyVaGYH4hqgxKB1BjDLn4HltM/0FV+zfeSYq9Y2PhdkYienXuKt68/LviMGlqKlWxNXmn6r0fAwKFLQabs2W/LkhEWsGcguOkfuCCbfhKItIgEEdJBzg4UZ4onZmzKLbzVQpiqnCxfQdcxm2hzpXNd0SRAN2roVEyKv+IUYtpYashw5arZ1hFi4QMUOQ4zqEUJYON03tWm9HweHWvp0bhZEOGnJGIhSNuEZfK65ulLFQWDhmzPi+3MdXbLlrbD6gKmZv2XMNU2/3xmVbd+Egi0iIQuMZ56mE9rPCyqcwkwgY987qUY4hgLz856ypx+yvzzTveXwPHIiOkf4NNoLh7zx4vbnv5CSsZcEOMGrobHT98/vXi+hceJsuQtS5RgtvoQ7RB3Rg6IRGIhPfaZVPJk0Ct2F2emZucwwX7KeWuJ2p8VPMb2ioWrEUXR1sS4cIvQ1dWqnlOte8biXjqgzfFFUvnid179+hCkPhcdxlzBYGksiQQEJJJROJUOX3A5hsCQXzIoOmDDNcdd4Z45N0/Ws2ND98Zm40pBk890nBCIu4ecqX49kkXWE2CaWUbUx76ytocaXPeb+swaEsibC0hJnNt+6HMep6DYwWBuHLZA2LXnt0mEMQ+e5hMooVQ1qd3o8WmcCYIkwiXUGq1ZftuIBX88x+/o9VXsYewgURMCmoZK63XCze9Ra3upJ5tOnMI4QOJaPPIHVZ4UDfW1iSivYwB8fG4/5laPP5iqNj6QyBsahbOZ2o8OL+iZhtV53jUFWNLIkqpmG0/lKWUNW4+0iAQh8o03sjGOaT7MdSl4LQeWyKcwpnYmO274YMVwIUMOM4wydsRBhbHETohw+MmpBxIBHVzaE0iruhzqmgcPjFxwbt+wFYRupan1O3ZLFpb7EqpmG0sNpiTUspabA2kRSCeHvlNMfRIs7wcaa5TJhFpontw27bvxg8GjBY/XPMMWWj4RuGqpo0/wkwZ8Gj6qkVWMtR072NFAv5l8FfE3658kixDMKMpuREHFW1JJdVh35pE/Oj0S8U/yMVY6mILWKnldd0f1QkGcuSJRORJ1qg5RujcWukD4brAAjFc5kPwqTCJKO1sUK8lKinxDYEzHnUXD98sRK9EZERqwQ25mqdmk64lok8fZMANEeQEybrYWOdtnOWtScTv5G5oTM8TS45fpZMImx12nhRznmQNvwRpWCBUHwhZGxfCuOQvpOyQSUTpUadeTVTO0TbXAtVGhur8bCsDAt4hHXi3jp3JRET5AVC/M1kELCy2ymwCGVL9ISCLNYn4VN7zLWVsCAWgrRNJ6V93tz0yidDD0wYnvR6in0qTQOx7cduIF8Z8i48ziJNEVRqqu6zWVXi4FAfzsOKjbMiCSodCHrHzbbpMEoAOhxSGRCFDQQsAxSoTTh5IkYHqR0BctonVKKTQ9jjGikQgq9lH436QOLA0HmASMTk2pW4c5nn6gOZJVoV52gRC9dP3kMPFmr/6W9FV3tDwoVCUSVBum92Q6fjzuK6KjdFEcUQlHMQOduQz92kfa0Rd8c6bDCAxDcNvPiCZmCkOtlftTdes7vMm8UNcZGG2IhHVMlLYOnmulkVhEsEkQmfdlXrHWCoCocZ+dd9B4rELb9SBIvVnmESkDnHRDmCRGLf0gVjfAlxlnDv02shbaVCgM6SDY1zgKBAQHKMVO//H/MPZ853tLUXlhAxQ3uHkW6igK0N9RPIt1SEsEnUrGmNlwG0M3M4rJgPqxzmLAgfU9zH5VhAHRCONyxgNMlg/pFY7RXyxSbUiEWcc3ku8elldJm8OkwgmEToLr5QkotQEQo3/5+dcLb55/Lk6cKT6DJOIVOHVahxKtGHD6gMyeuL2ApIsFUvhHWwY+YhUG1/u3S3at2knfQ4OKSjMcX0HaCmcoAyqjVLLAMvIko/+ZIXD3OaXD0ilbYqD1oSl+BBIWcOGNYX5bNn5eWtPuFEzsfps4xAHaC+KeFmRiAuOlMFK5LlsFoVJBJMInXVXKhKRFYEABp3athd/lOfLJ3c9WgeS1J5hEpEatCVrGMp33noo4HWtfSIuDRTPFHkDAf/GFZCQmasXFerjf6uCENnj+g4s3KaIUkTBNiHD7LXLDsjODBlQf0L/sxJlcAEWbjrMk3IEM0SbyADLEKw6IHTBqMrAAQp8QvWQWBygsOc1r5CxhF6OlEHdSokbK+YAc1lMBrQRV5JkgGM3Yi1ZkQjcysDtjCwKkwgmETrrrhQkIksCoTAYeFhPseLSb4uO7drrwJLKM0wiUoG1JI1C6U2S5u+g0ozqGOmz5xQ5CtDxM4EiRv2oowDIgERaQfIRJQOsKnCqTCIjFOB0ZaiTCni6PNqJkkHHJwHKF2Gmo6xDJjLcJY92ooqtDHiXx8vrv0lpJYCDFYm4RJKI3zKJoKxV6zo2ylHnZY8T0KZv04H7LqsPBEJhihe62EfFFHfK80wiKKhlXwdKa5R0rExSGEGrwuLRkw9QoKaBr8K3GlzIYIskRYaV8oppsJjedAnnqzB9h2AZwvc4WExumYDUPTHs5gOsOyZOsug3tyTCBCjbxeVjfZs05r4r5iDePsvqE4FQmP1OZtMdU+Jsuqpv0w9g+L3i2xml/9LAZD144d2Ju/+wZLBIQPmgUIMcqQiJkKG6cZY2iVGyuLwd4UIGnd1/GEcocRARWCZggRm8cLYVDlQZmmunFUghRYbckghTxhecPFxrgYdvnkvS2WTc2HxWzGG5fZXVRwIB7I7s2EW8cfl3xVHy+nWpC5OIUiNu35/N+4UdcE333iQCAMnVLtpWBptvoULQ1JISRB5Bt1CqF8wiTYi6MuuDDJR04rklERTGpWYYrE9NPGnWc17J5qXF0Cv9OMNXAqGW5cXymHFRBseMTCLy92GgRpvESHFVEgp86soF5IHjOwyrctxVxLjGo2JWUISx8bFTDopx12OTZFpf+/eif+P/SXqs6O8uZMBcUIhQbkmErSK0SWBFnmlPKtpiV8kkAgTir56b43wm/9egSwrBfh7bsMpJ2/9cI5MKnTLcSVu6jTCJ0EXKj+co0S6DksMUP0KSCJsMmLefeL74ydsvkAGxzWiMjm3XLTalCF717OZm8jjuOG2EuPP1Z8n1EX8DPi3UPCjoeNqpI8WsN5YYy5BbEmE78TYJrIxR9qwCkwjahKRlgfiuVPb/JJX+Z7u+EAP+81/Ehs8/pQkYqNWuTVvxh0tuF4NLmCbc9p0spU+EjekYMJeSSFsvhiIN2M4XmoXyslGe1x13unjk3deshmi7IaT6dFgJHapsi6MLWcZKX6qFm94ybiq3JAKOMN0fn2k8YFXBl8xr5AFYVGQSQQNvxDP3iucsdhtRvX7z+HPEz8+5pvWnl/78rjh/0U/FXvl/tgU7pFWXTRWHtu9o25RWfVulVEoSYeNTxSTiL8thkAw4uOrTTVrrI+qhq/oMEPM3riHXR0VbEmH7PbQSfn9lH0gEVYbckghgb3Oeh6Af4es5LhZDHtqwfWlKuQvzSVbXJOLGfoPFAzIMcZs2bQ5YNj947bfiR2uecbKUcKce1+lKUWxJBD5iS2SK81IUeMEnxUSIk6OU70BaeNjOF+SiKh41Jvg0xIWY1hm7LYmwxQFhsEHYbY4Svn3SBeKet36vM9zIZ3BZAFEp40KOJzV++0nyaOkt86OlXJMIW5Nk1kca6loRnJNG9jih4KiExZh28UkxJ43VJ1ldkohrjz1DPHz+10VbeewQLnv27ilYI5Z/8l4SPFq///qCb4hrjj1d61mbh2w/xi7Ot3Xkt7Vioo9yIBEYR7fHZ5CdGl04Vj538WRx0dP36Uxb5DOQoWH/VVNqI7brAUQIxYYMLR3938XwZ35GHYKM5Gkvw6vyqumZklybllyTCEr61yBApTSfRk1MVFAPFRY1TULhk2JOWrA+yeqKRPxV71NE47AJol3bgwmEwuM9mcQI/hFbv9yZBFHi71XyOAPZPo+Vzl9pFlsSAdlKQextvxvlRCJsNmKwcGEDRPHoB4ZwRlxfe0chaRdVAYeDNVHXN+Vqo+pLBXsatZhGhpQFzuaIzVYGRcYoMuSaRNgy6VJ9tIotbLx8cSFeYZVAUJcJmslzdF8gnxRzksw+yeqCROD65W+GT9QKT/3QOyvFjS8+kgSR1u/nHnGseEHmuYmyfGg1oPGQ7Y4OXZSC2NsoraDicBGfQAPWVB/B94dyxRLm86b90Rqp1+0VAaDK4PL4CzJQyFBQBioRUVYtKgkPWmMoJCCoByky5J5E2H4QgpHXUn1bQ42bhhZVhEIde9jI6pNiThqHT7LakojhR/cXv5URJTu365A07Nbfr3n+l+JxR9c+vz9gtPjh6Zdq90150Oa+PfpLO4YLVVmEsSiX4wyMy9QyAx+AJTLstcr7API4UobNNvEJCEebNP0eQob1+6MsUtZpVB1TGWBJaZKJ71T+DAoOYQd/05siIHOYi6AMNU/NNvKNCIcgN/3m5p5EUJhTeAGFQXS1KIu1Qw2xqtqzldd0kWT5AfVJVirLB349O1WJdfKj18WAQKDeZ19+Ic54qt44LHGxtfecdFwcLh0Y0yo2GLla33Fjo+6as3wH0pqrYLsgEhNlAq6koE9QWnNlAq1w4ih808YtfUDrumcxaxOUOOaHKoMLnHSJBHCAL0bYh82ESBT7jpvIECQQavwgyrCK6JC6YjLokhngkHsSUdi9NN5pxLyiFpurszWdhYyzs2CqXZ06wWds8magHZ8Uc9LYfZLVxhJxqkzT/boMR00pLq999uxcJV6X/hHdZXjsNIoLJQ0HSxXL36WMLjYcSp5yskQElQ/et4b31xykyLHrxk2fulOGxWbPhAKEAopSYDC71yWkE4cCTJJhhgzMlmZJkgEYYBxxBThgHFG3JeAEiTHEOdErGaJ8RTAXqI/5iCuYh/o3lx0kA6w4sMDryID3OSqYGMgDMIAMZUEidJlbHOD4cCEzXVRqVpcLdtLyR2WO+FfITbrwRvZJMScB4ZOsWZEIYIQrn7j66aJcLh07n7xokoumDmrDxbuIRl0fM1ITTRUDqRxJRHCswU1Ot46djb6LUIBz1r0s3v28RWyVAdSqOnQS5x7ZV1x/XI12+m5YRqC8Nn3+meh1SFdxtMwFc0O/GiM5XCxwGxzQP7AI+r1R/GiCMoB4mNzgQ9//T0YE3fzFNrFph8Syc9dCGnboEd2Cd6dpywetj4dlKAsSgdG5sEagHSTmUnHIdUHWfc6WQKAfFx8vnxRzEnY+yZoliXB97fNnZ48Xt50wNAl+499dOFeqTl3FuDBN8awzaBfvoU4/eXoGCmvm6kVFN0nYqGEXP33gmKLDAglFG8UczqGE4UeQ9mYvT7hHyYo1j5wmxSzemIv6IbXyami8NUMHh7IhEabOQXHgYBd0lyQTJowvrj28ECAQNkcYaN+VN7JPijlpkfoka5YkAji5vPbZqW178UfpFHayPGZxXVz4RSiZbJXGvPXynH1Fo3F65SRMmEQciJAJUcM1dlh9lTNgK2k0uOpp6xeWNL95/h1EbKo8hkAujaQCXTdH+riE5yKpXvD3siERGJTLjxfaqzv5QjF90BgywCAP+IjNWLXIZE6KPuvqw+WTYk4CxidZsyYRwOqx914TX/39Q0mwaf0+8LCeYsWl39a6bqrV4P6HXB1pBPvEu6h71RnWkGc/ai446cVdoTYZU/hZV++ijQy+1DUhEErmcMRgyi07noODVwAlqZqtxa+sSAT1vnHcywizD3ZD4/oOlJaA4xOtE5Dh2c3rRMOG1QUHJVfFlRUC8vikmJPw8UlWH0gE8Lpl+a/FL5pfToJO6/e/kaFu7xlyldazug9BifdvnJXoZa/bXvA5ddW5W8dDCuS+pjvC/e6QIaw3Fh6Dtc/W4qcjFyuwv6BE3bypWxpUh9e0HHB15t/XZ6jH+jaWnbIiEZjYNHZBwQWDhVvTvU/hP+GDFtzpNG3ZqGVCMl2A8KZFYBdXxys+KeYkLHyS1RcSsU1GsRz01F3OdtkLZPCrr/Q5NWkqjH63nTejzjJ4mEnEPtCpBAB1VZhzKglBG5WcSDG87HWvZUa9LjbxWcqORAAgimksg++QdpeuXxTbD3wpP6A+yeoLicDCWbnlfXHO734idss8G7YFO3pc+4QXvKuSpjXClYw27ZTyHbCRM+26tld674WD78tPkMWs5ESKYdCoETNVO9SQ82VJIkwCfpBXb4kqurjSGRbVJ8WcBKNPsvpEIoDb/33jWfH3r/5nEoRavyOa5rOjbjsoo6hW5SIP2c6dTd9p12USsQ9hGysC6vuQxTPttVKq9m2jxVJjJZUlicCklQORCIc0dbUYbT/upfyA+iSrbyRi7969YsTie8XSzeudLI07z7hMTDttpJO2VCPIy6ATOc9ppyVorJTvQAmGQ+7Cdn7H9jpJLNz0Frl/VLRNBW7VuUeVbUkENW9N2ZIIRSRM44j7sibSIhAYn0+KOQlvn2T1jUQAOwTjOU1m+wRpti3tZFryP1xyuxjc/Rjbplrrw+EReRWSQhk769CgIfgaUeViErEPaLZEGCy4lB+1JRFU58qyJhGKSJgmh0l5rhObT5NAMIlIhL/oAz6SCAj75MY3xBVL59IHFqgJB6tVl00Vh8r04a6KyxgurmTCMWHLTnkVdHMzqUnXfkokITyoZOt/NlNeoZ9ucQU+mE3UAzgyFcGW0K0c+x1SEK+yJxGKSOgmh8l0FcjO0yYQTCLoM+wricCI/vqVBvHTt1+kDy5Q86Z+g8UD513npC3VSNq3pkyEVRkgbb4JVNOviZx5eNaWICIPkI21OJwNNA+YpSWjze0M5ONYX3sHSbSKIBEKGRuQSegaVoKTEUKR2kQP0+nSpyOCJHl9ktVnErFj9y6Z7XO2eGvrx0mQav3+0HlfL+QqcFl8IBLBNNY2a4tJxF9WBjU2gSIA1HWRRjpwl+u91G3Z3IiysaxVFInApOKMFilvfXL2wsuA9LpIjFKKYvPxhHylPA/2SVafSQTmZdWnm8SQ394jdu3Zbb2MkLIcxxrVVUdYtxVsQDfltNNO9zcWJBD4TzZri0nEX2aIEiURO98mGXZdbZgopnjqGX4aa8uXNimEzPZIqOJIRNAqgXDUVMcqV4tGJy2sq75UOzYfTyYRptjpjQAADJZJREFUtDN0m1TgJvN/99rnxRQZ7tlFQZIjOFq2b9vORXOtbWRB5BHxtWH4zQdY+WzeA5cRZJ2Cm1FjJsorTOYgsultOj7GKD7RJhZ3F8fnFUsi1MJFvvV6+eEtNZnARwj53CmpYW2/EzYfTyYRfpMIzM+YJf8qnv7wbdtlUqh/h7zy+WN59TONgo9d2kQeCguZeZEfIFxszvOZRBy8InTIIRxaYXWNOrIFkcB6mC2/x8UKLBg48i2V1TaNdV+KNrG2kXjune0tRbtzdXxe0SQiiC6YND5qaR5z4IOGrGkgD65CWFMWJJMICmoyi+oz94rniN78pbJEYGQff7FNnPqbfxZ/3rmdNtBQLQShuqhHtZO2wo1AcaRB5KFsQByQerqYj5FNyOa0IyUinH63jp2t/KOg1G1SZlNlgAJD7iDU3/rlF6KqfadCqgDMh448qKfa2LH7S2kJayNOrDpKbrhOkDmMBhhjYotDKgu/RI1Cry356E8HhMhHHiiQMFc6qI0MWLO3ROPJRTfBBUy9/hUcKD5mKoEXs+dcLAEWMiMElOJA4jqKZTDv7xo++LPlRqap5YMDZgAbD2QwTfp+4Ns1c/WiggIPpoFWSct0MhLHyTDl5GGJltM4GUAicAyR5DiOzdw8iUUUDjoygBwie3IUDroyZPQK5LJbJhEJ0wYWi0WJO+XB7IBhggHzJgpeWPyBeYN1u2J7uVxdLDQjQEQA713Tlg/kDuqTgjLB+xcuyOQJiwDetcI7J9+3PBaMdZJ09g4rzfBYsBlBaOIoJaxjXUTCq7uKHO1AhvHLHkxM6hYng04eDRcygFTNKXIkoisD6ieRsjyupSxkZhKRBercJyPACDACEgEo71EyomfQchAHDEjT4tGTDyASpgGfwrcaWAZeijYIMImwQY/rMgKMACNARAD+ICAQSRaIKIsErlmjmHjiB9tR17QhQ3XjLG0So9qARULJoGMFiYJIRUikygCLxBPDbi40TZEBVpGVY6ewtZi4flU1JhGWAHJ1RoARYAQoCFAUn+oHxxpQ5BQCgDYUCbCRASSipntvaxl0jiCK4QsZcJRVvWAWZQpacSBV5koFBJhE8EJgBBgBRiADBKiRHiEqrkriTH/S8kfJksMSgNDfcdcA4xqHDCAjU1cuIMvQfMU0gUygFEdadIprivCJsZWBfdfIU8gkgg4d12QEGAFGgIYAJcpjuCco8fnyJgu13HbCueLePy2nVpd+GZ0LuX5sbrHdfuL54idvv5CpDDYhn8mCl1FFtkSU0WTyUBgBRiAfCNjEqFAjHHrkseKlP79HHvA1fQeJxzasItdHRdxKsyER1x13unjk3desZMDVXqo1BR1zCHMr+NkSYQcf12YEGAFGwBwBJhH7MGMSYb52fKvBlgjfZoTlYQQYgbJHwIfjDPgTzFu/wgprW0uErQyIAoxrrzbWED7OsFoCbImwg49rMwKMACNAQ8DGsRK+CIi+aONQiJsN45Y9QHZqdOFYCefOwQvvpgEoa0EGOEXG5dtIahzOnexYmYRS8d/ZEkHHjmsyAowAI0BGwOZ6JQJG4WYE9WYD/AjW194hTANVBQerZKBer3QhA666IlIpVQZOpEZevq0VmUTYY8gtMAKMACNgjACCLPWXgZ5MrzfCCtEkgyShUIkIlC+uiLqQgRrnQQW8Qr4NChkKEgBbGYwnjyswieA1wAgwAoxA1giY+kbAB2CJDHsdzBMyUmaXNfEJQBIspEdXxTQlOmQAiQkeAYAEmGRADt+IQOIvk5gXkGF97bTW8N8gQyNl9E8TGdgXws3qZ0uEGxy5FUaAEWAESAiASEABJlkkYP5vGH7zQYnGoEDrVjRqOUkWu86I2yI6/hGwgsyVyavCyc4gw0SZREwnbkUx5Q0ygzaScIAMDTLcddiPATIgeJYOoQrnDyFNHFcqIMAkghcCI8AIMAIZIwAFWP/mMoEdeTjmAcgDnCjrThkWm0YbRABm/ajdOBwQZwwaE5vpFDLMWLWoIENYkSsZZgy6JBYpEAG0UUwGWEDinBgVIYpKBw8ZgEGdTEkeVyA/coqEZYD1Avk2MAZ2pHS34JlEuMOSW2IEGIEKRgBn+9iJq/TlcHyEshpx9L5/dQqU8MJNa8Wqlk2iqkOnQr3bThiqneYcMvzq3VfFK59sEG/LNOq4/njukX3F9cfVxBKQsGywjrTs3FH4z5BBV37VDuTAnyrAwrSAFKmSlQymMlfi80wiKnHWecyMACPgDAHsnnHVEjvgYgWWBJjxu3U4JPIRkAe0EVS8wQehRNVtiKgGUG/m6n1WhGKlTvpCTJfWiGIyOAOEG6ooBJhEVNR082AZAUbAJQLYsSOdd8uufbv2uAKrwJwIfwKTa5Y4kpg+cMwB3ZjKsFg6ZjKRSJot/l0XASYRukjxc4wAI8AIBBCABcI0FTeIRFCJU64mBp0CYYEYLG9G6JAYJXpYBp5URsAGASYRNuhxXUaAEahYBHCbQec2QhgghHqeO/RaQc2fgeyZK/dfsTS93qlk4aRTFbtsnQ+cSYRzSLlBRoARKHcETOM7hPFAqGVYISgkBG0h1gP8LGxCRm+5ejofa5T7Qi3B+JhElABk7oIRYATKCwFqpEiFwk/Oukrc/sp8MihwtMS1TZucERwrgQw/VwwgwCSClwMjwAgwAoYIUI8RVDfX9B0kHtuwyrDXAx+3zaDJRxpW8HPl/QgwieClwAgwAoyAIQK2JAJRF01CNEeJZ9uG8s0wHDo/zggcgACTCF4QjAAjwAgYImBLItgSYQg4P+4tAkwivJ0aFowRYAR8RYByNTM4ln88Y6z4H39cSB4eQjjDsZJ9IsgQckVHCDCJcAQkN8MIMAKVg0DWtzNwFDGu70AxftmDZND5dgYZOq4YQIBJBC8HRoARYAQICFCPNGzjREBUXBHFDQ1bGQjD5iqMwAEIMIngBcEIMAKMAAEB3RTewaZxDLG+dlprfAaTkNeqneCtCooMyIbZdNkUjhFBmHOucjACTCJ4VTACjAAjQEQAUScRuTKcOjuqORCIJTJvRU23Pgf8bBL5MupGBZJ3TXzpUSsZiMPnaoyAYBLBi4ARYAQYAQsEYA2oW9Eont3cXLQVxHRAqOtiKbURvKp+7fNFiQAIyFyZvGvcMQMj+9CRAQSkfkgtWyAs5pqrsiWC1wAjwAgwAqkgAEWOVNxNWza2tl/TvU/hFkXY+hAlABJ6NWxYI2BZ2LC9pfDIoMN7iZE9TpBOlAO0lH+UDCN7HF9wwtSRIRVguNGyRoAtEWU9vTw4RoARyAsCICCz1y4TTS0fHCAySACIyIT+Z+VlKCxnBSHAJKKCJpuHyggwAv4hAOsBrmoirXdc4RTe/s0dSyTYJ4IXASPACDACWSEAAjHqmftEy64dWiIgDXhz4HaHViV+iBFIEQG2RKQILjfNCDACjEAxBOADgVTeSRaIcH0cbyweNZmBZQS8QIBJhBfTwEIwAoxApSFgk06c03hX2mrxd7xMIvydG5aMEWAEyhiB/o13inf238IwHeZVxwwQDcNuNq3GzzMCzhFgEuEcUm6QEWAEGIF4BGxzb6D1vdfdyTAzApkjwCQi8ylgARgBRqDSEECky1GL77MatsqfYdUIV2YELBFgEmEJIFdnBBgBRsAUASYRpojx874iwCTC15lhuRgBRqBsEeDjjLKd2oobGJOIiptyHjAjwAj4gEC3x2doJc2KkvXMbr1F09gpPgyDZahwBJhEVPgC4OEzAoxANgjwFc9scOde3SLAJMItntwaI8AIMAJaCCDYVP/GWcbWCLZCaMHLD5UIASYRJQKau2EEGAFGIIwAfCNGyrDXn2qGvUZK8CWjJ3NGTl5K3iDAJMKbqWBBGAFGoBIR0CUSsEDMHfo1JhCVuEg8HjOTCI8nh0VjBBiBykAARxv1by4TSAcejmLZr0s3UXfKMFF38rDKAINHmSsEmETkarpYWEaAEWAEGAFGwB8EmET4MxcsCSPACDACjAAjkCsEmETkarpYWEaAEWAEGAFGwB8EmET4MxcsCSPACDACjAAjkCsEmETkarpYWEaAEWAEGAFGwB8EmET4MxcsCSPACDACjAAjkCsEmETkarpYWEaAEWAEGAFGwB8EmET4MxcsCSPACDACjAAjkCsEmETkarpYWEaAEWAEGAFGwB8EmET4MxcsCSPACDACjAAjkCsEmETkarpYWEaAEWAEGAFGwB8EmET4MxcsCSPACDACjAAjkCsEmETkarpYWEaAEWAEGAFGwB8EmET4MxcsCSPACDACjAAjkCsE/j8LsqDuomr8vQAAAABJRU5ErkJggg==;" parent="DzccVoENs5ZmWSwi9zG2-175" vertex="1">
          <mxGeometry y="70" width="175.61" height="75.69" as="geometry" />
        </mxCell>
        <mxCell id="DzccVoENs5ZmWSwi9zG2-88" value="" style="shape=image;verticalLabelPosition=bottom;labelBackgroundColor=default;verticalAlign=top;aspect=fixed;imageAspect=0;image=https://www.hpc-ch.org/wp-content/uploads/2012/09/CSCS_RGB.jpg;" vertex="1" parent="DzccVoENs5ZmWSwi9zG2-175">
          <mxGeometry y="20" width="90.27" height="25" as="geometry" />
        </mxCell>
        <mxCell id="DzccVoENs5ZmWSwi9zG2-121" value="" style="shape=image;verticalLabelPosition=bottom;labelBackgroundColor=default;verticalAlign=top;aspect=fixed;imageAspect=0;image=https://opencredo.com/wp-content/uploads/2018/01/jupyterhub-logo.png;" vertex="1" parent="DzccVoENs5ZmWSwi9zG2-175">
          <mxGeometry x="7.690000000000055" y="49.309999999999945" width="81.04" height="35.69" as="geometry" />
        </mxCell>
        <mxCell id="DzccVoENs5ZmWSwi9zG2-124" value="" style="group" vertex="1" connectable="0" parent="DzccVoENs5ZmWSwi9zG2-175">
          <mxGeometry x="106.88" width="70" height="60" as="geometry" />
        </mxCell>
        <mxCell id="DzccVoENs5ZmWSwi9zG2-117" value="" style="shape=step;perimeter=stepPerimeter;whiteSpace=wrap;html=1;fixedSize=1;fontSize=22;strokeWidth=3;fillColor=#e1d5e7;strokeColor=#9673a6;dashed=1;dashPattern=1 1;" vertex="1" parent="DzccVoENs5ZmWSwi9zG2-124">
          <mxGeometry width="70" height="30" as="geometry" />
        </mxCell>
        <mxCell id="DzccVoENs5ZmWSwi9zG2-118" value="" style="shape=step;perimeter=stepPerimeter;whiteSpace=wrap;html=1;fixedSize=1;fontSize=22;strokeWidth=3;fillColor=#e1d5e7;strokeColor=#9673a6;dashed=1;dashPattern=1 1;" vertex="1" parent="DzccVoENs5ZmWSwi9zG2-124">
          <mxGeometry y="10" width="70" height="30" as="geometry" />
        </mxCell>
        <mxCell id="DzccVoENs5ZmWSwi9zG2-119" value="" style="shape=step;perimeter=stepPerimeter;whiteSpace=wrap;html=1;fixedSize=1;fontSize=22;strokeWidth=3;fillColor=#e1d5e7;strokeColor=#9673a6;dashed=1;dashPattern=1 1;" vertex="1" parent="DzccVoENs5ZmWSwi9zG2-124">
          <mxGeometry y="20" width="70" height="30" as="geometry" />
        </mxCell>
        <mxCell id="DzccVoENs5ZmWSwi9zG2-120" value="" style="shape=step;perimeter=stepPerimeter;whiteSpace=wrap;html=1;fixedSize=1;fontSize=22;strokeWidth=3;fillColor=#e1d5e7;strokeColor=#9673a6;dashed=1;dashPattern=1 1;" vertex="1" parent="DzccVoENs5ZmWSwi9zG2-124">
          <mxGeometry y="30" width="70" height="30" as="geometry" />
        </mxCell>
        <mxCell id="DzccVoENs5ZmWSwi9zG2-180" style="edgeStyle=none;orthogonalLoop=1;jettySize=auto;html=1;fontSize=22;fontColor=#06570B;strokeColor=#99FFCC;strokeWidth=8;fillColor=#d5e8d4;" edge="1" parent="1">
          <mxGeometry relative="1" as="geometry">
            <mxPoint x="1280" y="320" as="targetPoint" />
            <mxPoint x="1390" y="320" as="sourcePoint" />
            <Array as="points">
              <mxPoint x="1390" y="440" />
              <mxPoint x="1280" y="430" />
            </Array>
          </mxGeometry>
        </mxCell>
        <mxCell id="DzccVoENs5ZmWSwi9zG2-271" value="&lt;div&gt;&lt;b&gt;composed workflow &lt;br&gt;&lt;/b&gt;&lt;/div&gt;&lt;div&gt;can be used&lt;/div&gt;&lt;div&gt;as &lt;b&gt;single-stage workflow&lt;/b&gt;&lt;br&gt;&lt;/div&gt;" style="edgeLabel;html=1;align=center;verticalAlign=middle;resizable=0;points=[];fontSize=22;fontColor=#06570B;" vertex="1" connectable="0" parent="DzccVoENs5ZmWSwi9zG2-180">
          <mxGeometry x="-0.2037" y="-1" relative="1" as="geometry">
            <mxPoint x="-52" as="offset" />
          </mxGeometry>
        </mxCell>
        <mxCell id="DzccVoENs5ZmWSwi9zG2-185" value="" style="group" vertex="1" connectable="0" parent="1">
          <mxGeometry x="1310" y="820" width="296.92" height="260" as="geometry" />
        </mxCell>
        <mxCell id="DzccVoENs5ZmWSwi9zG2-7" value="" style="shape=image;verticalLabelPosition=bottom;labelBackgroundColor=default;verticalAlign=top;aspect=fixed;imageAspect=0;image=https://enterprise-knowledge.com/wp-content/uploads/2020/01/knowledge-graph.png;" vertex="1" parent="DzccVoENs5ZmWSwi9zG2-185">
          <mxGeometry width="276.91999999999996" height="179.99999999999997" as="geometry" />
        </mxCell>
        <mxCell id="DzccVoENs5ZmWSwi9zG2-130" value="" style="group" vertex="1" connectable="0" parent="DzccVoENs5ZmWSwi9zG2-185">
          <mxGeometry x="39.99999999999999" y="180" width="69.99999999999999" height="60" as="geometry" />
        </mxCell>
        <mxCell id="DzccVoENs5ZmWSwi9zG2-131" value="" style="shape=step;perimeter=stepPerimeter;whiteSpace=wrap;html=1;fixedSize=1;fontSize=22;strokeWidth=3;fillColor=#e1d5e7;strokeColor=#9673a6;dashed=1;dashPattern=1 1;" vertex="1" parent="DzccVoENs5ZmWSwi9zG2-130">
          <mxGeometry width="69.99999999999999" height="30" as="geometry" />
        </mxCell>
        <mxCell id="DzccVoENs5ZmWSwi9zG2-132" value="" style="shape=step;perimeter=stepPerimeter;whiteSpace=wrap;html=1;fixedSize=1;fontSize=22;strokeWidth=3;fillColor=#e1d5e7;strokeColor=#9673a6;dashed=1;dashPattern=1 1;" vertex="1" parent="DzccVoENs5ZmWSwi9zG2-130">
          <mxGeometry y="10" width="69.99999999999999" height="30" as="geometry" />
        </mxCell>
        <mxCell id="DzccVoENs5ZmWSwi9zG2-133" value="" style="shape=step;perimeter=stepPerimeter;whiteSpace=wrap;html=1;fixedSize=1;fontSize=22;strokeWidth=3;fillColor=#e1d5e7;strokeColor=#9673a6;dashed=1;dashPattern=1 1;" vertex="1" parent="DzccVoENs5ZmWSwi9zG2-130">
          <mxGeometry y="20" width="69.99999999999999" height="30" as="geometry" />
        </mxCell>
        <mxCell id="DzccVoENs5ZmWSwi9zG2-134" value="" style="shape=step;perimeter=stepPerimeter;whiteSpace=wrap;html=1;fixedSize=1;fontSize=22;strokeWidth=3;fillColor=#e1d5e7;strokeColor=#9673a6;dashed=1;dashPattern=1 1;" vertex="1" parent="DzccVoENs5ZmWSwi9zG2-130">
          <mxGeometry y="30" width="69.99999999999999" height="30" as="geometry" />
        </mxCell>
        <mxCell id="DzccVoENs5ZmWSwi9zG2-141" value="" style="group" vertex="1" connectable="0" parent="DzccVoENs5ZmWSwi9zG2-185">
          <mxGeometry x="226.92000000000002" y="140" width="69.99999999999999" height="60" as="geometry" />
        </mxCell>
        <mxCell id="DzccVoENs5ZmWSwi9zG2-142" value="" style="shape=step;perimeter=stepPerimeter;whiteSpace=wrap;html=1;fixedSize=1;fontSize=22;strokeWidth=3;fillColor=#e1d5e7;strokeColor=#9673a6;dashed=1;dashPattern=1 1;" vertex="1" parent="DzccVoENs5ZmWSwi9zG2-141">
          <mxGeometry width="69.99999999999999" height="30" as="geometry" />
        </mxCell>
        <mxCell id="DzccVoENs5ZmWSwi9zG2-143" value="" style="shape=step;perimeter=stepPerimeter;whiteSpace=wrap;html=1;fixedSize=1;fontSize=22;strokeWidth=3;fillColor=#e1d5e7;strokeColor=#9673a6;dashed=1;dashPattern=1 1;" vertex="1" parent="DzccVoENs5ZmWSwi9zG2-141">
          <mxGeometry y="10" width="69.99999999999999" height="30" as="geometry" />
        </mxCell>
        <mxCell id="DzccVoENs5ZmWSwi9zG2-144" value="" style="shape=step;perimeter=stepPerimeter;whiteSpace=wrap;html=1;fixedSize=1;fontSize=22;strokeWidth=3;fillColor=#e1d5e7;strokeColor=#9673a6;dashed=1;dashPattern=1 1;" vertex="1" parent="DzccVoENs5ZmWSwi9zG2-141">
          <mxGeometry y="20" width="69.99999999999999" height="30" as="geometry" />
        </mxCell>
        <mxCell id="DzccVoENs5ZmWSwi9zG2-145" value="" style="shape=step;perimeter=stepPerimeter;whiteSpace=wrap;html=1;fixedSize=1;fontSize=22;strokeWidth=3;fillColor=#e1d5e7;strokeColor=#9673a6;dashed=1;dashPattern=1 1;" vertex="1" parent="DzccVoENs5ZmWSwi9zG2-141">
          <mxGeometry y="30" width="69.99999999999999" height="30" as="geometry" />
        </mxCell>
        <mxCell id="DzccVoENs5ZmWSwi9zG2-146" value="" style="group" vertex="1" connectable="0" parent="DzccVoENs5ZmWSwi9zG2-185">
          <mxGeometry x="139.99999999999997" y="200" width="69.99999999999999" height="60" as="geometry" />
        </mxCell>
        <mxCell id="DzccVoENs5ZmWSwi9zG2-147" value="" style="shape=step;perimeter=stepPerimeter;whiteSpace=wrap;html=1;fixedSize=1;fontSize=22;strokeWidth=3;fillColor=#e1d5e7;strokeColor=#9673a6;dashed=1;dashPattern=1 1;" vertex="1" parent="DzccVoENs5ZmWSwi9zG2-146">
          <mxGeometry width="69.99999999999999" height="30" as="geometry" />
        </mxCell>
        <mxCell id="DzccVoENs5ZmWSwi9zG2-148" value="" style="shape=step;perimeter=stepPerimeter;whiteSpace=wrap;html=1;fixedSize=1;fontSize=22;strokeWidth=3;fillColor=#e1d5e7;strokeColor=#9673a6;dashed=1;dashPattern=1 1;" vertex="1" parent="DzccVoENs5ZmWSwi9zG2-146">
          <mxGeometry y="10" width="69.99999999999999" height="30" as="geometry" />
        </mxCell>
        <mxCell id="DzccVoENs5ZmWSwi9zG2-149" value="" style="shape=step;perimeter=stepPerimeter;whiteSpace=wrap;html=1;fixedSize=1;fontSize=22;strokeWidth=3;fillColor=#e1d5e7;strokeColor=#9673a6;dashed=1;dashPattern=1 1;" vertex="1" parent="DzccVoENs5ZmWSwi9zG2-146">
          <mxGeometry y="20" width="69.99999999999999" height="30" as="geometry" />
        </mxCell>
        <mxCell id="DzccVoENs5ZmWSwi9zG2-150" value="" style="shape=step;perimeter=stepPerimeter;whiteSpace=wrap;html=1;fixedSize=1;fontSize=22;strokeWidth=3;fillColor=#e1d5e7;strokeColor=#9673a6;dashed=1;dashPattern=1 1;" vertex="1" parent="DzccVoENs5ZmWSwi9zG2-146">
          <mxGeometry y="30" width="69.99999999999999" height="30" as="geometry" />
        </mxCell>
        <mxCell id="DzccVoENs5ZmWSwi9zG2-233" style="edgeStyle=none;orthogonalLoop=1;jettySize=auto;html=1;fontSize=22;fontColor=#06570B;strokeColor=#E5CCFF;strokeWidth=8;" edge="1" parent="1">
          <mxGeometry relative="1" as="geometry">
            <mxPoint x="110.94999999999999" y="1380" as="sourcePoint" />
            <mxPoint x="460.95000000000005" y="1380" as="targetPoint" />
            <Array as="points" />
          </mxGeometry>
        </mxCell>
        <mxCell id="DzccVoENs5ZmWSwi9zG2-235" value="continuous automation" style="edgeLabel;html=1;align=center;verticalAlign=middle;resizable=0;points=[];fontSize=22;fontColor=#06570B;" vertex="1" connectable="0" parent="DzccVoENs5ZmWSwi9zG2-233">
          <mxGeometry x="-0.1202" y="-1" relative="1" as="geometry">
            <mxPoint x="1" as="offset" />
          </mxGeometry>
        </mxCell>
        <mxCell id="DzccVoENs5ZmWSwi9zG2-236" style="edgeStyle=none;orthogonalLoop=1;jettySize=auto;html=1;fontSize=22;fontColor=#06570B;strokeColor=#99FFCC;strokeWidth=8;" edge="1" parent="1">
          <mxGeometry relative="1" as="geometry">
            <mxPoint x="110.94999999999982" y="1440" as="sourcePoint" />
            <mxPoint x="460.9499999999998" y="1440" as="targetPoint" />
            <Array as="points" />
          </mxGeometry>
        </mxCell>
        <mxCell id="DzccVoENs5ZmWSwi9zG2-237" value="&lt;div&gt;workflow creation,&lt;/div&gt;&lt;div&gt;&amp;nbsp;composition, execution&lt;br&gt;&lt;/div&gt;" style="edgeLabel;html=1;align=center;verticalAlign=middle;resizable=0;points=[];fontSize=22;fontColor=#06570B;" vertex="1" connectable="0" parent="DzccVoENs5ZmWSwi9zG2-236">
          <mxGeometry x="-0.1202" y="-1" relative="1" as="geometry">
            <mxPoint x="1" as="offset" />
          </mxGeometry>
        </mxCell>
        <mxCell id="DzccVoENs5ZmWSwi9zG2-242" style="edgeStyle=none;orthogonalLoop=1;jettySize=auto;html=1;fontSize=22;fontColor=#06570B;strokeColor=#FFE6CC;strokeWidth=8;" edge="1" parent="1">
          <mxGeometry relative="1" as="geometry">
            <mxPoint x="106.94999999999983" y="1520" as="sourcePoint" />
            <mxPoint x="456.94999999999976" y="1520" as="targetPoint" />
            <Array as="points" />
          </mxGeometry>
        </mxCell>
        <mxCell id="DzccVoENs5ZmWSwi9zG2-252" value="&lt;div&gt;collecting and propagating &lt;br&gt;&lt;/div&gt;&lt;div&gt;metadata&lt;/div&gt;" style="edgeLabel;html=1;align=center;verticalAlign=middle;resizable=0;points=[];fontSize=22;fontColor=#06570B;" vertex="1" connectable="0" parent="DzccVoENs5ZmWSwi9zG2-242">
          <mxGeometry x="-0.2607" y="5" relative="1" as="geometry">
            <mxPoint x="29" y="5" as="offset" />
          </mxGeometry>
        </mxCell>
        <mxCell id="DzccVoENs5ZmWSwi9zG2-253" value="&lt;b&gt;workflow&lt;/b&gt; - anything that takes an &lt;b&gt;input data &lt;/b&gt;and produces &lt;b&gt;output data&lt;/b&gt; (service, notebook)" style="shape=step;perimeter=stepPerimeter;whiteSpace=wrap;html=1;fixedSize=1;fontSize=22;strokeWidth=3;fillColor=#e1d5e7;strokeColor=#9673a6;" vertex="1" parent="1">
          <mxGeometry x="750" y="1380" width="580" height="110" as="geometry" />
        </mxCell>
        <mxCell id="DzccVoENs5ZmWSwi9zG2-254" value="input &lt;b&gt;data&lt;/b&gt;" style="shape=cylinder3;whiteSpace=wrap;html=1;boundedLbl=1;backgroundOutline=1;size=15;fontSize=22;strokeWidth=3;fillColor=#fff2cc;strokeColor=#d6b656;" vertex="1" parent="1">
          <mxGeometry x="570" y="1390" width="170" height="90" as="geometry" />
        </mxCell>
        <mxCell id="DzccVoENs5ZmWSwi9zG2-255" value="output &lt;b&gt;data&lt;/b&gt;" style="shape=cylinder3;whiteSpace=wrap;html=1;boundedLbl=1;backgroundOutline=1;size=15;fontSize=22;strokeWidth=3;fillColor=#d5e8d4;strokeColor=#82b366;" vertex="1" parent="1">
          <mxGeometry x="1338.73" y="1390" width="180" height="90" as="geometry" />
        </mxCell>
        <mxCell id="DzccVoENs5ZmWSwi9zG2-256" value="" style="shape=umlActor;verticalLabelPosition=bottom;verticalAlign=top;html=1;outlineConnect=0;fontSize=22;strokeWidth=4;fillColor=#fff2cc;strokeColor=#d6b656;" vertex="1" parent="1">
          <mxGeometry x="590" y="680" width="30" height="55" as="geometry" />
        </mxCell>
        <mxCell id="DzccVoENs5ZmWSwi9zG2-262" value="" style="shape=umlActor;verticalLabelPosition=bottom;verticalAlign=top;html=1;outlineConnect=0;fontSize=22;strokeWidth=4;fillColor=#fff2cc;strokeColor=#d6b656;" vertex="1" parent="1">
          <mxGeometry x="700" y="277.5" width="30" height="55" as="geometry" />
        </mxCell>
        <mxCell id="DzccVoENs5ZmWSwi9zG2-269" value="" style="shape=umlActor;verticalLabelPosition=bottom;verticalAlign=top;html=1;outlineConnect=0;fontSize=22;strokeWidth=4;fillColor=#fff2cc;strokeColor=#d6b656;" vertex="1" parent="1">
          <mxGeometry x="720" y="762.5" width="30" height="55" as="geometry" />
        </mxCell>
        <mxCell id="DzccVoENs5ZmWSwi9zG2-270" value="" style="shape=umlActor;verticalLabelPosition=bottom;verticalAlign=top;html=1;outlineConnect=0;fontSize=22;strokeWidth=4;fillColor=#fff2cc;strokeColor=#d6b656;" vertex="1" parent="1">
          <mxGeometry x="310.63" y="410" width="30" height="55" as="geometry" />
        </mxCell>
        <mxCell id="DzccVoENs5ZmWSwi9zG2-291" value="" style="group" vertex="1" connectable="0" parent="1">
          <mxGeometry x="480" y="120" width="70" height="60" as="geometry" />
        </mxCell>
        <mxCell id="DzccVoENs5ZmWSwi9zG2-292" value="" style="shape=step;perimeter=stepPerimeter;whiteSpace=wrap;html=1;fixedSize=1;fontSize=22;strokeWidth=3;fillColor=#e1d5e7;strokeColor=#9673a6;dashed=1;dashPattern=1 1;" vertex="1" parent="DzccVoENs5ZmWSwi9zG2-291">
          <mxGeometry width="70" height="30" as="geometry" />
        </mxCell>
        <mxCell id="DzccVoENs5ZmWSwi9zG2-293" value="" style="shape=step;perimeter=stepPerimeter;whiteSpace=wrap;html=1;fixedSize=1;fontSize=22;strokeWidth=3;fillColor=#e1d5e7;strokeColor=#9673a6;dashed=1;dashPattern=1 1;" vertex="1" parent="DzccVoENs5ZmWSwi9zG2-291">
          <mxGeometry y="10" width="70" height="30" as="geometry" />
        </mxCell>
        <mxCell id="DzccVoENs5ZmWSwi9zG2-294" value="" style="shape=step;perimeter=stepPerimeter;whiteSpace=wrap;html=1;fixedSize=1;fontSize=22;strokeWidth=3;fillColor=#e1d5e7;strokeColor=#9673a6;dashed=1;dashPattern=1 1;" vertex="1" parent="DzccVoENs5ZmWSwi9zG2-291">
          <mxGeometry y="20" width="70" height="30" as="geometry" />
        </mxCell>
        <mxCell id="DzccVoENs5ZmWSwi9zG2-295" value="" style="shape=step;perimeter=stepPerimeter;whiteSpace=wrap;html=1;fixedSize=1;fontSize=22;strokeWidth=3;fillColor=#e1d5e7;strokeColor=#9673a6;dashed=1;dashPattern=1 1;" vertex="1" parent="DzccVoENs5ZmWSwi9zG2-291">
          <mxGeometry y="30" width="70" height="30" as="geometry" />
        </mxCell>
        <mxCell id="DzccVoENs5ZmWSwi9zG2-296" value="eosc marketplace" style="rounded=1;whiteSpace=wrap;html=1;fontSize=22;fontColor=#06570B;strokeWidth=3;fillColor=#CCFF99;" vertex="1" parent="1">
          <mxGeometry x="-30" y="40" width="140" height="60" as="geometry" />
        </mxCell>
        <mxCell id="DzccVoENs5ZmWSwi9zG2-297" value="rucio" style="rounded=1;whiteSpace=wrap;html=1;fontSize=22;fontColor=#06570B;strokeWidth=3;fillColor=#CCFF99;" vertex="1" parent="1">
          <mxGeometry x="133.5" y="37.16" width="120" height="60" as="geometry" />
        </mxCell>
        <mxCell id="DzccVoENs5ZmWSwi9zG2-298" style="edgeStyle=none;orthogonalLoop=1;jettySize=auto;html=1;fontSize=22;fontColor=#06570B;strokeColor=#FFE6CC;strokeWidth=8;" edge="1" parent="1">
          <mxGeometry relative="1" as="geometry">
            <mxPoint x="50" y="190" as="targetPoint" />
            <mxPoint x="1309" y="1050" as="sourcePoint" />
            <Array as="points">
              <mxPoint x="1308.73" y="1172.5" />
              <mxPoint x="-241.27" y="1182.5" />
              <mxPoint x="-241" y="190" />
            </Array>
          </mxGeometry>
        </mxCell>
        <mxCell id="DzccVoENs5ZmWSwi9zG2-301" value="&lt;div&gt;advantages&lt;/div&gt;&lt;div&gt;of renku&lt;br&gt;&lt;/div&gt;" style="rounded=1;whiteSpace=wrap;html=1;fontSize=22;fontColor=#06570B;strokeWidth=3;fillColor=#CCFF99;" vertex="1" parent="1">
          <mxGeometry x="1560" y="62" width="180" height="98" as="geometry" />
        </mxCell>
      </root>
    </mxGraphModel>
  </diagram>
</mxfile>
